<?xml version="1.0" encoding="UTF-8" standalone="no"?>
<svg
   xmlns:dc="http://purl.org/dc/elements/1.1/"
   xmlns:cc="http://creativecommons.org/ns#"
   xmlns:rdf="http://www.w3.org/1999/02/22-rdf-syntax-ns#"
   xmlns:svg="http://www.w3.org/2000/svg"
   xmlns="http://www.w3.org/2000/svg"
   xmlns:xlink="http://www.w3.org/1999/xlink"
   xmlns:sodipodi="http://sodipodi.sourceforge.net/DTD/sodipodi-0.dtd"
   xmlns:inkscape="http://www.inkscape.org/namespaces/inkscape"
   inkscape:export-ydpi="300"
   inkscape:export-xdpi="300"
   inkscape:export-filename="C:\Users\Morgan\Desktop\icon.png"
   inkscape:version="1.0 (4035a4fb49, 2020-05-01)"
   height="108pt"
   width="108pt"
   sodipodi:docname="icon.svg"
   version="1.1"
   viewBox="0 0 144.00001 144"
   data-name="Layer 1"
   id="Layer_1">
  <metadata
     id="metadata624">
    <rdf:RDF>
      <cc:Work
         rdf:about="">
        <dc:format>image/svg+xml</dc:format>
        <dc:type
           rdf:resource="http://purl.org/dc/dcmitype/StillImage" />
        <dc:title>nowcasting</dc:title>
      </cc:Work>
    </rdf:RDF>
  </metadata>
  <sodipodi:namedview
     inkscape:object-nodes="false"
     inkscape:snap-to-guides="false"
     inkscape:current-layer="Layer_1"
     inkscape:window-maximized="1"
     inkscape:window-y="-8"
     inkscape:window-x="-8"
     inkscape:cy="77.933873"
     inkscape:cx="28.891734"
     inkscape:zoom="4.0609536"
     inkscape:snap-grids="false"
     width="108mm"
     units="pt"
     showgrid="true"
     id="namedview622"
     inkscape:window-height="1017"
     inkscape:window-width="1920"
     inkscape:pageshadow="2"
     inkscape:pageopacity="0"
     guidetolerance="10"
     gridtolerance="10"
     objecttolerance="10"
     borderopacity="1"
     bordercolor="#666666"
     pagecolor="#ffffff"
     inkscape:document-rotation="0">
    <inkscape:grid
       units="pt"
       gridanglex="30"
       id="grid1467"
       type="axonomgrid" />
  </sodipodi:namedview>
  <defs
     id="defs11">
    <linearGradient
       id="linearGradient1512"
       inkscape:collect="always">
      <stop
         id="stop1508"
         offset="0"
         style="stop-color:#0075b3;stop-opacity:1" />
      <stop
         id="stop1510"
         offset="1"
         style="stop-color:#004f79;stop-opacity:1" />
    </linearGradient>
    <linearGradient
       gradientUnits="userSpaceOnUse"
       y2="199.52"
       x2="274.56"
       y1="212.75"
       x1="261.67001"
       id="linear-gradient">
      <stop
         id="stop2"
         stop-opacity="0"
         stop-color="gray"
         offset="0" />
      <stop
         id="stop4"
         stop-color="#009245"
         offset="1" />
    </linearGradient>
    <linearGradient
       xlink:href="#linear-gradient"
       y2="187.59"
       x2="256.06"
       y1="239.28999"
       x1="218.98"
       id="linear-gradient-2" />
    <linearGradient
       xlink:href="#linear-gradient"
       y2="172.55"
       x2="213.37"
       y1="221.33"
       x1="182.17"
       id="linear-gradient-3" />
    <linearGradient
       xlink:href="#linear-gradient"
       y2="203.27"
       x2="131.03999"
       y1="233.46001"
       x1="94.169998"
       id="linear-gradient-4" />
    <linearGradient
       xlink:href="#linear-gradient"
       y2="201.39999"
       x2="240.25"
       y1="213.78999"
       x1="225.13"
       id="linear-gradient-5" />
    <filter
       inkscape:collect="always"
       style="color-interpolation-filters:sRGB"
       id="filter2387">
      <feBlend
         inkscape:collect="always"
         mode="multiply"
         in2="BackgroundImage"
         id="feBlend2389" />
    </filter>
    <linearGradient
       gradientUnits="userSpaceOnUse"
       y2="152.22902"
       x2="242.9848"
       y1="68.803246"
       x1="186.77557"
       id="linearGradient1514"
       xlink:href="#linearGradient1512"
       inkscape:collect="always" />
  </defs>
  <title
     id="title13">nowcasting</title>
  <polygon
     style="fill-opacity:1;fill:url(#linearGradient1514)"
     transform="matrix(1.524557,0,0,1.3016982,-254.95406,-79.957402)"
     id="polygon31"
     fill="#006ba4"
     points="272.13,67.83 265.05,227.25 165.55,171.94 167.52,7.43 " />
  <ellipse
     id="ellipse569"
     fill="#ffb236"
     transform="rotate(-10.95)"
     ry="20.484901"
     rx="15.5601"
     cy="82.405525"
     cx="63.456928"
     style="stroke-width:0.81" />
  <ellipse
     id="ellipse571"
     fill="#ffc358"
     transform="rotate(-10.95)"
     ry="20.484901"
     rx="15.5601"
     cy="81.855522"
     cx="60.581635"
     style="stroke-width:0.81" />
  <path
     id="path573"
     fill="#9fb8b7"
     d="m 73.777163,79.795556 a 6.9498,6.9498 0 0 0 -1.5147,-4.7871 6.5529,6.5529 0 0 0 -6.1965,-2.106 c -0.1053,-3.086099 -1.0611,-6.172199 -3.888,-7.856999 a 5.5647,5.5647 0 0 0 -4.86,-0.5265 5.2974,5.2974 0 0 0 -0.5589,0.3159 3.7827,3.7827 0 0 0 -2.3571,-2.106 c -1.9278,-0.5427 -3.3129,0.4779 -4.1715,1.9359 -1.4661,-1.4094 -3.4344,-2.1303 -5.508,-1.1583 -2.5677,1.1988 -2.9403,4.455 -2.5191,6.933599 0.7047,4.1634 3.4263,6.885 6.8283,8.586 a 8.2215,8.2215 0 0 0 3.24,5.7753 6.156,6.156 0 0 0 5.1111,0.9558 5.2488,5.2488 0 0 0 3.7584,4.779002 5.4837,5.4837 0 0 0 3.7503,-0.0648 5.67,5.67 0 0 0 5.4351,3.6612 3.888,3.888 0 0 0 2.754,-1.1664 3.9447,3.9447 0 0 0 3.5559,0.6804 c 2.3085,-0.729 2.9565,-2.9403 2.7702,-5.151602 a 10.6191,10.6191 0 0 0 -5.6295,-8.6994 z"
     style="stroke-width:0.81" />
  <path
     id="path575"
     opacity="0.08"
     d="m 73.777163,79.795556 a 6.9498,6.9498 0 0 0 -1.5147,-4.7871 6.5529,6.5529 0 0 0 -6.1965,-2.106 c -0.1053,-3.086099 -1.0611,-6.172199 -3.888,-7.856999 a 5.5647,5.5647 0 0 0 -4.86,-0.5265 5.2974,5.2974 0 0 0 -0.5589,0.3159 3.7827,3.7827 0 0 0 -2.3571,-2.106 c -1.9278,-0.5427 -3.3129,0.4779 -4.1715,1.9359 -1.4661,-1.4094 -3.4344,-2.1303 -5.508,-1.1583 -2.5677,1.1988 -2.9403,4.455 -2.5191,6.933599 0.7047,4.1634 3.4263,6.885 6.8283,8.586 a 8.2215,8.2215 0 0 0 3.24,5.7753 6.156,6.156 0 0 0 5.1111,0.9558 5.2488,5.2488 0 0 0 3.7584,4.779002 5.4837,5.4837 0 0 0 3.7503,-0.0648 5.67,5.67 0 0 0 5.4351,3.6612 3.888,3.888 0 0 0 2.754,-1.1664 3.9447,3.9447 0 0 0 3.5559,0.6804 c 2.3085,-0.729 2.9565,-2.9403 2.7702,-5.151602 a 10.6191,10.6191 0 0 0 -5.6295,-8.6994 z"
     style="stroke-width:0.81" />
  <path
     id="path577"
     fill="#9fb8b7"
     d="m 69.913463,81.844856 a 6.9498,6.9498 0 0 0 -1.5147,-4.7871 6.5529,6.5529 0 0 0 -6.1965,-2.106 c -0.1053,-3.0861 -1.0611,-6.172199 -3.888,-7.856999 a 5.5647,5.5647 0 0 0 -4.86,-0.5265 5.2974,5.2974 0 0 0 -0.5589,0.3159 3.7827,3.7827 0 0 0 -2.3571,-2.106 c -1.9278,-0.5427 -3.3129,0.4779 -4.1715,1.9359 -1.4661,-1.4094 -3.4344,-2.1303 -5.508,-1.1583 -2.5677,1.1988 -2.9403,4.455 -2.5191,6.933599 0.7047,4.1634 3.4263,6.885 6.8283,8.586 a 8.2215,8.2215 0 0 0 3.24,5.7753 6.156,6.156 0 0 0 5.1111,0.9558 5.2488,5.2488 0 0 0 3.726,4.811402 5.4837,5.4837 0 0 0 3.7503,-0.0648 5.67,5.67 0 0 0 5.4351,3.661198 3.888,3.888 0 0 0 2.754,-1.1664 3.9447,3.9447 0 0 0 3.5559,0.6804 c 2.3085,-0.729 2.9565,-2.940298 2.7702,-5.151598 a 10.6191,10.6191 0 0 0 -5.5971,-8.731802 z"
     style="stroke-width:0.81" />
  <path
     id="path579"
     fill="#ffb236"
     d="m 59.901863,43.880157 2.4786,3.24 a 1.4985,1.4985 0 0 0 2.3814,-1.8144 l -2.4786,-3.24 a 1.4985,1.4985 0 0 0 -2.3814,1.8144 z"
     style="stroke-width:0.81" />
  <path
     id="path581"
     fill="#ffb236"
     d="m 72.035663,33.787557 v 9.2826 a 1.4985,1.4985 0 0 0 2.997,0 v -9.2826 a 1.4985,1.4985 0 0 0 -2.997,0 z"
     style="stroke-width:0.81" />
  <path
     id="path583"
     fill="#ffb236"
     d="m 48.926363,50.473557 7.7436,5.1192 a 1.4985,1.4985 0 0 0 1.62,-2.4948 l -7.6788,-5.1192 a 1.5052058,1.5052058 0 0 0 -1.6848,2.4948 z"
     style="stroke-width:0.81" />
  <path
     id="path585"
     fill="#ffb236"
     d="m 84.339563,41.174757 -2.3571,3.3453 a 1.4985,1.4985 0 0 0 2.43,1.7253 l 2.3571,-3.3453 a 1.4985,1.4985 0 0 0 -2.43,-1.7253 z"
     style="stroke-width:0.81" />
  <path
     id="path587"
     fill="#ffb236"
     d="m 96.862155,43.831557 -6.479992,6.6339 a 1.4985,1.4985 0 0 0 2.1384,2.0898 l 6.479997,-6.6339 a 1.4985,1.4985 0 0 0 -2.138405,-2.0898 z"
     style="stroke-width:0.81" />
  <path
     id="path589"
     fill="#ffb236"
     d="m 98.78996,55.552257 -3.912305,1.1907 a 1.4985,1.4985 0 0 0 0.8667,2.8674 l 3.912305,-1.1907 a 1.4985,1.4985 0 0 0 -0.8667,-2.8674 z"
     style="stroke-width:0.81" />
  <path
     id="path591"
     fill="#9fb8b7"
     d="m 43.969163,88.551656 a 9.8253,9.8253 0 0 0 -0.9153,1.0611 14.9607,14.9607 0 0 0 -1.5633,2.754002 5.022,5.022 0 0 0 -0.2997,3.628798 2.5029,2.5029 0 0 0 3.24,1.312202 2.6568,2.6568 0 0 0 1.3932,-2.502902 c 0.0729,-2.122198 -0.8829,-4.406398 -1.8549,-6.2532 z"
     style="stroke-width:0.81" />
  <path
     id="path593"
     fill="#9fb8b7"
     d="m 51.421163,98.636158 a 9.8253,9.8253 0 0 0 -0.9153,1.0611 14.9607,14.9607 0 0 0 -1.5633,2.754002 5.022,5.022 0 0 0 -0.2997,3.6288 2.5029,2.5029 0 0 0 3.24,1.3122 2.6568,2.6568 0 0 0 1.3932,-2.5029 c 0.081,-2.1384 -0.8505,-4.4226 -1.8549,-6.253202 z"
     style="stroke-width:0.81" />
  <path
     id="path595"
     fill="#9fb8b7"
     d="m 63.806063,98.295958 a 9.8253,9.8253 0 0 0 -0.9153,1.0611 14.9607,14.9607 0 0 0 -1.5633,2.754002 5.022,5.022 0 0 0 -0.2997,3.6288 2.5029,2.5029 0 0 0 3.24,1.3122 2.6568,2.6568 0 0 0 1.3932,-2.5029 c 0.0729,-2.1222 -0.8586,-4.4064 -1.8549,-6.253202 z"
     style="stroke-width:0.81" />
  <path
     id="path609"
     opacity="0.08"
     d="m 43.969163,88.551656 a 9.8253,9.8253 0 0 0 -0.9153,1.0611 14.9607,14.9607 0 0 0 -1.5633,2.754002 5.022,5.022 0 0 0 -0.2997,3.628798 2.5029,2.5029 0 0 0 3.24,1.312202 2.6568,2.6568 0 0 0 1.3932,-2.502902 c 0.0729,-2.122198 -0.8829,-4.406398 -1.8549,-6.2532 z"
     style="stroke-width:0.81" />
  <path
     id="path611"
     opacity="0.08"
     d="m 51.421163,98.636158 a 9.8253,9.8253 0 0 0 -0.9153,1.0611 14.9607,14.9607 0 0 0 -1.5633,2.754002 5.022,5.022 0 0 0 -0.2997,3.6288 2.5029,2.5029 0 0 0 3.24,1.3122 2.6568,2.6568 0 0 0 1.3932,-2.5029 c 0.081,-2.1384 -0.8505,-4.4226 -1.8549,-6.253202 z"
     style="stroke-width:0.81" />
  <path
     id="path613"
     opacity="0.08"
     d="m 63.806063,98.295958 a 9.8253,9.8253 0 0 0 -0.9153,1.0611 14.9607,14.9607 0 0 0 -1.5633,2.754002 5.022,5.022 0 0 0 -0.2997,3.6288 2.5029,2.5029 0 0 0 3.24,1.3122 2.6568,2.6568 0 0 0 1.3932,-2.5029 c 0.0729,-2.1222 -0.8586,-4.4064 -1.8549,-6.253202 z"
     style="stroke-width:0.81" />
  <path
     id="path615"
     fill="#9fb8b7"
     d="m 43.385963,89.199656 a 9.8253,9.8253 0 0 0 -0.9153,1.061102 14.9607,14.9607 0 0 0 -1.5633,2.754 5.022,5.022 0 0 0 -0.2997,3.628798 2.5029,2.5029 0 0 0 3.24,1.312202 2.6568,2.6568 0 0 0 1.3932,-2.502902 c 0.0729,-2.122198 -0.8586,-4.406398 -1.8549,-6.2532 z"
     style="stroke-width:0.81" />
  <path
     id="path617"
     fill="#9fb8b7"
     d="m 50.846063,99.276058 a 9.8253,9.8253 0 0 0 -0.9153,1.061102 14.9607,14.9607 0 0 0 -1.5633,2.754 5.022,5.022 0 0 0 -0.2997,3.6288 2.5029,2.5029 0 0 0 3.24,1.3122 2.6568,2.6568 0 0 0 1.3932,-2.5029 c 0.0729,-2.1222 -0.8586,-4.4145 -1.8549,-6.253202 z"
     style="stroke-width:0.81" />
  <path
     id="path619"
     fill="#9fb8b7"
     d="m 63.222863,98.952058 a 9.8253,9.8253 0 0 0 -0.9153,1.061102 14.9607,14.9607 0 0 0 -1.5633,2.754 5.022,5.022 0 0 0 -0.2997,3.6288 2.5029,2.5029 0 0 0 3.24,1.3122 2.6568,2.6568 0 0 0 1.3932,-2.5029 c 0.0729,-2.1303 -0.8586,-4.4145 -1.8549,-6.253202 z"
     style="stroke-width:0.81" />
  <rect
     style="display:inline;fill:#c13900;fill-opacity:1;stroke:#000000;stroke-width:14.8666;stroke-linecap:round;stroke-linejoin:round;stroke-miterlimit:4;stroke-dasharray:none;stroke-dashoffset:0;stroke-opacity:1;filter:url(#filter2387)"
     id="rect2097"
     width="0.5333581"
     height="0.5333581"
     x="45.973434"
     y="46.753288"
     rx="7.5435399e-15"
     transform="matrix(0.03082147,0.01186535,-0.00466629,0.02788058,81.09894,85.487351)" />
  <g
     id="g2007"
     transform="matrix(0.9456057,0,0,0.9456057,5.3548492,3.5959332)">
    <path
       id="path1743-6"
       d="m 85.941184,106.26901 1.765407,0.75752 0.07155,-8.669356 7.862411,4.721276 -0.495665,-3.088293 7.823433,-3.173946 -1.47184,-2.900435 1.17971,-2.874423 -3.402299,-1.111692 -1.914309,-2.495416 -5.572415,1.008576 1.482241,-9.772482 -2.985287,-0.512894 -3.92928,-6.241009 -3.74618,3.078079 -3.16863,-1.835728 1.71424,10.761405 -5.381022,-5.154587 -1.905001,0.784927 -3.533214,-1.67206 1.200125,3.804016 -1.196497,1.775408 7.895695,9.571633 -0.366066,2.737502 7.81686,1.73823 z"
       style="fill:#8a2a00;fill-opacity:1;stroke:none;stroke-width:0.521635;stroke-linecap:round;stroke-linejoin:round;stroke-miterlimit:4;stroke-dasharray:none;stroke-dashoffset:0;stroke-opacity:1" />
    <g
       id="g1988"
       transform="matrix(0.88309279,0,0.16307171,1,-4.5292251,-1.7237331)">
      <path
         id="path1743"
         d="m 80.655319,109.0713 1.859234,0.75752 1.681897,-8.66935 8.031441,4.72127 0.0088,-3.08829 9.445209,-3.173945 -1.13109,-2.900431 1.86668,-2.874423 -3.64742,-1.111692 -1.706927,-2.495416 -6.496358,1.008576 3.483053,-9.772482 -3.285774,-0.512894 -3.296992,-6.241009 -4.810514,3.078079 -3.249121,-1.835728 -0.04602,10.761405 -5.141538,-5.154587 -2.302137,0.784927 -3.692192,-1.67206 0.656554,3.804016 -1.682741,1.775408 7.173462,9.571633 -0.920034,2.7375 8.530705,1.738233 z"
         style="fill:#c13900;fill-opacity:1;stroke:none;stroke-width:0.55509;stroke-linecap:round;stroke-linejoin:round;stroke-miterlimit:4;stroke-dasharray:none;stroke-dashoffset:0;stroke-opacity:1" />
      <path
         id="path1745"
         d="m 75.235822,89.019765 8.61435,8.413371 2.175807,-12.44827"
         style="fill:none;fill-opacity:0;stroke:#8a2a00;stroke-width:0.55509;stroke-linecap:round;stroke-linejoin:round;stroke-miterlimit:4;stroke-dasharray:none;stroke-dashoffset:0;stroke-opacity:1" />
      <path
         id="path1747"
         d="M 83.850172,97.433136 94.290946,96.313641"
         style="fill:#c13900;fill-opacity:1;stroke:#8a2a00;stroke-width:0.55509;stroke-linecap:round;stroke-linejoin:round;stroke-miterlimit:4;stroke-dasharray:none;stroke-dashoffset:0;stroke-opacity:1" />
    </g>
  </g>
</svg>
