<?xml version="1.0" encoding="UTF-8" standalone="no"?>
<svg
   xmlns:dc="http://purl.org/dc/elements/1.1/"
   xmlns:cc="http://creativecommons.org/ns#"
   xmlns:rdf="http://www.w3.org/1999/02/22-rdf-syntax-ns#"
   xmlns:svg="http://www.w3.org/2000/svg"
   xmlns="http://www.w3.org/2000/svg"
   xmlns:xlink="http://www.w3.org/1999/xlink"
   xmlns:sodipodi="http://sodipodi.sourceforge.net/DTD/sodipodi-0.dtd"
   xmlns:inkscape="http://www.inkscape.org/namespaces/inkscape"
   inkscape:export-ydpi="682.66669"
   inkscape:export-xdpi="682.66669"
   inkscape:export-filename="C:\Users\Morgan\nowcasting\assets\launcher\icon_static.png"
   inkscape:version="1.0 (4035a4fb49, 2020-05-01)"
   height="108pt"
   width="108pt"
   sodipodi:docname="icon_ios.svg"
   version="1.1"
   viewBox="0 0 144.00001 144"
   data-name="Layer 1"
   id="Layer_1">
  <metadata
     id="metadata624">
    <rdf:RDF>
      <cc:Work
         rdf:about="">
        <dc:format>image/svg+xml</dc:format>
        <dc:type
           rdf:resource="http://purl.org/dc/dcmitype/StillImage" />
        <dc:title>nowcasting</dc:title>
      </cc:Work>
    </rdf:RDF>
  </metadata>
  <sodipodi:namedview
     inkscape:document-rotation="0"
     pagecolor="#ffffff"
     bordercolor="#666666"
     borderopacity="1"
     objecttolerance="10"
     gridtolerance="10"
     guidetolerance="10"
     inkscape:pageopacity="0"
     inkscape:pageshadow="2"
     inkscape:window-width="1920"
     inkscape:window-height="1017"
     id="namedview622"
     showgrid="false"
     units="pt"
     width="108mm"
     inkscape:snap-grids="false"
     inkscape:zoom="2.0304768"
     inkscape:cx="81.794777"
     inkscape:cy="30.915786"
     inkscape:window-x="-8"
     inkscape:window-y="-8"
     inkscape:window-maximized="1"
     inkscape:current-layer="Layer_1"
     inkscape:snap-to-guides="false"
     inkscape:object-nodes="false">
    <inkscape:grid
       type="axonomgrid"
       id="grid1467"
       gridanglex="30"
       units="pt" />
  </sodipodi:namedview>
  <defs
     id="defs11">
    <linearGradient
       inkscape:collect="always"
       id="linearGradient1512">
      <stop
         style="stop-color:#0075b3;stop-opacity:1"
         offset="0"
         id="stop1508" />
      <stop
         style="stop-color:#004f79;stop-opacity:1"
         offset="1"
         id="stop1510" />
    </linearGradient>
    <linearGradient
       id="linear-gradient"
       x1="261.67001"
       y1="212.75"
       x2="274.56"
       y2="199.52"
       gradientUnits="userSpaceOnUse">
      <stop
         offset="0"
         stop-color="gray"
         stop-opacity="0"
         id="stop2" />
      <stop
         offset="1"
         stop-color="#009245"
         id="stop4" />
    </linearGradient>
    <linearGradient
       id="linear-gradient-2"
       x1="218.98"
       y1="239.28999"
       x2="256.06"
       y2="187.59"
       xlink:href="#linear-gradient" />
    <linearGradient
       id="linear-gradient-3"
       x1="182.17"
       y1="221.33"
       x2="213.37"
       y2="172.55"
       xlink:href="#linear-gradient" />
    <linearGradient
       id="linear-gradient-4"
       x1="94.169998"
       y1="233.46001"
       x2="131.03999"
       y2="203.27"
       xlink:href="#linear-gradient" />
    <linearGradient
       id="linear-gradient-5"
       x1="225.13"
       y1="213.78999"
       x2="240.25"
       y2="201.39999"
       xlink:href="#linear-gradient" />
    <filter
       id="filter2387"
       style="color-interpolation-filters:sRGB"
       inkscape:collect="always">
      <feBlend
         id="feBlend2389"
         in2="BackgroundImage"
         mode="multiply"
         inkscape:collect="always" />
    </filter>
    <linearGradient
       inkscape:collect="always"
       xlink:href="#linearGradient1512"
       id="linearGradient1514"
       x1="186.77557"
       y1="68.803246"
       x2="242.9848"
       y2="152.22902"
       gradientUnits="userSpaceOnUse" />
  </defs>
  <title
     id="title13">nowcasting</title>
  <polygon
     points="272.13,67.83 265.05,227.25 165.55,171.94 167.52,7.43 "
     fill="#006ba4"
     id="polygon31"
     transform="matrix(1.524557,0,0,1.3016982,-254.95406,-79.957402)"
     style="fill-opacity:1;fill:url(#linearGradient1514)" />
  <ellipse
     style="stroke-width:1.1664"
     cx="66.813034"
     cy="82.426376"
     rx="22.406544"
     ry="29.498259"
     transform="rotate(-10.95)"
     fill="#ffb236"
     id="ellipse569" />
  <ellipse
     style="stroke-width:1.1664"
     cx="62.672611"
     cy="81.634369"
     rx="22.406544"
     ry="29.498259"
     transform="rotate(-10.95)"
     fill="#ffc358"
     id="ellipse571" />
  <path
     style="stroke-width:1.1664"
     d="m 75.238009,83.993955 a 10.007712,10.007712 0 0 0 -2.181168,-6.893424 9.436176,9.436176 0 0 0 -8.92296,-3.03264 c -0.151632,-4.443983 -1.527984,-8.887967 -5.59872,-11.314079 a 8.013168,8.013168 0 0 0 -6.9984,-0.75816 7.628256,7.628256 0 0 0 -0.804816,0.454896 5.447088,5.447088 0 0 0 -3.394224,-3.03264 c -2.776032,-0.781488 -4.770576,0.688176 -6.00696,2.787696 -2.111184,-2.029536 -4.945536,-3.067632 -7.93152,-1.667952 -3.697488,1.726272 -4.234032,6.4152 -3.627504,9.984383 1.014768,5.995296 4.933872,9.9144 9.832752,12.36384 a 11.83896,11.83896 0 0 0 4.6656,8.316432 8.86464,8.86464 0 0 0 7.359984,1.376352 7.558272,7.558272 0 0 0 5.412096,6.881762 7.896528,7.896528 0 0 0 5.400432,-0.09331 8.1648,8.1648 0 0 0 7.826544,5.272129 5.59872,5.59872 0 0 0 3.96576,-1.67962 5.680368,5.680368 0 0 0 5.120496,0.97978 c 3.32424,-1.04976 4.25736,-4.234033 3.989088,-7.418307 a 15.291504,15.291504 0 0 0 -8.10648,-12.527136 z"
     fill="#9fb8b7"
     id="path573" />
  <path
     style="stroke-width:1.1664"
     d="m 75.238009,83.993955 a 10.007712,10.007712 0 0 0 -2.181168,-6.893424 9.436176,9.436176 0 0 0 -8.92296,-3.03264 c -0.151632,-4.443983 -1.527984,-8.887967 -5.59872,-11.314079 a 8.013168,8.013168 0 0 0 -6.9984,-0.75816 7.628256,7.628256 0 0 0 -0.804816,0.454896 5.447088,5.447088 0 0 0 -3.394224,-3.03264 c -2.776032,-0.781488 -4.770576,0.688176 -6.00696,2.787696 -2.111184,-2.029536 -4.945536,-3.067632 -7.93152,-1.667952 -3.697488,1.726272 -4.234032,6.4152 -3.627504,9.984383 1.014768,5.995296 4.933872,9.9144 9.832752,12.36384 a 11.83896,11.83896 0 0 0 4.6656,8.316432 8.86464,8.86464 0 0 0 7.359984,1.376352 7.558272,7.558272 0 0 0 5.412096,6.881762 7.896528,7.896528 0 0 0 5.400432,-0.09331 8.1648,8.1648 0 0 0 7.826544,5.272129 5.59872,5.59872 0 0 0 3.96576,-1.67962 5.680368,5.680368 0 0 0 5.120496,0.97978 c 3.32424,-1.04976 4.25736,-4.234033 3.989088,-7.418307 a 15.291504,15.291504 0 0 0 -8.10648,-12.527136 z"
     opacity="0.08"
     id="path575" />
  <path
     style="stroke-width:1.1664"
     d="m 69.674281,86.944947 a 10.007712,10.007712 0 0 0 -2.181168,-6.893424 9.436176,9.436176 0 0 0 -8.92296,-3.03264 c -0.151632,-4.443984 -1.527984,-8.887967 -5.59872,-11.314079 a 8.013168,8.013168 0 0 0 -6.9984,-0.75816 7.628256,7.628256 0 0 0 -0.804816,0.454896 5.447088,5.447088 0 0 0 -3.394224,-3.03264 c -2.776032,-0.781488 -4.770576,0.688176 -6.00696,2.787696 -2.111184,-2.029536 -4.945536,-3.067632 -7.93152,-1.667952 -3.697488,1.726272 -4.234032,6.4152 -3.627504,9.984383 1.014768,5.995296 4.933872,9.9144 9.832752,12.36384 a 11.83896,11.83896 0 0 0 4.6656,8.316432 8.86464,8.86464 0 0 0 7.359984,1.376352 7.558272,7.558272 0 0 0 5.36544,6.928419 7.896528,7.896528 0 0 0 5.400432,-0.0933 8.1648,8.1648 0 0 0 7.826544,5.27212 5.59872,5.59872 0 0 0 3.96576,-1.67961 5.680368,5.680368 0 0 0 5.120496,0.97977 c 3.32424,-1.04976 4.25736,-4.23403 3.989088,-7.418299 A 15.291504,15.291504 0 0 0 69.674281,86.944947 Z"
     fill="#9fb8b7"
     id="path577" />
  <path
     style="stroke-width:1.1664"
     d="m 55.257577,32.27578 3.569184,4.6656 a 2.15784,2.15784 0 0 0 3.429216,-2.612736 l -3.569184,-4.6656 a 2.15784,2.15784 0 0 0 -3.429216,2.612736 z"
     fill="#ffb236"
     id="path579" />
  <path
     style="stroke-width:1.1664"
     d="M 72.730249,17.742436 V 31.10938 a 2.15784,2.15784 0 0 0 4.31568,0 V 17.742436 a 2.15784,2.15784 0 0 0 -4.31568,0 z"
     fill="#ffb236"
     id="path581" />
  <path
     style="stroke-width:1.1664"
     d="m 39.452857,41.770276 11.150784,7.371648 a 2.15784,2.15784 0 0 0 2.3328,-3.592512 L 41.878969,38.177764 a 2.1674964,2.1674964 0 0 0 -2.426112,3.592512 z"
     fill="#ffb236"
     id="path583" />
  <path
     style="stroke-width:1.1664"
     d="m 90.447865,28.380004 -3.394224,4.817232 a 2.15784,2.15784 0 0 0 3.4992,2.484432 l 3.394224,-4.817232 a 2.15784,2.15784 0 0 0 -3.4992,-2.484432 z"
     fill="#ffb236"
     id="path585" />
  <path
     style="stroke-width:1.1664"
     d="m 108.48039,32.205796 -9.331181,9.552816 a 2.15784,2.15784 0 0 0 3.079301,3.009312 l 9.33119,-9.552816 a 2.15784,2.15784 0 0 0 -3.07931,-3.009312 z"
     fill="#ffb236"
     id="path587" />
  <path
     style="stroke-width:1.1664"
     d="m 111.25644,49.083604 -5.63372,1.714608 a 2.15784,2.15784 0 0 0 1.24804,4.129056 l 5.63372,-1.714608 a 2.15784,2.15784 0 0 0 -1.24804,-4.129056 z"
     fill="#ffb236"
     id="path589" />
  <path
     style="stroke-width:1.1664"
     d="m 32.314489,96.602739 a 14.148432,14.148432 0 0 0 -1.318032,1.527984 21.543408,21.543408 0 0 0 -2.251152,3.965757 7.23168,7.23168 0 0 0 -0.431568,5.22548 3.604176,3.604176 0 0 0 4.6656,1.88956 3.825792,3.825792 0 0 0 2.006208,-3.60417 c 0.104976,-3.05597 -1.271376,-6.345217 -2.671056,-9.004611 z"
     fill="#9fb8b7"
     id="path591" />
  <path
     style="stroke-width:1.1664"
     d="m 43.045369,111.12442 a 14.148432,14.148432 0 0 0 -1.318032,1.52798 21.543408,21.543408 0 0 0 -2.251152,3.96576 7.23168,7.23168 0 0 0 -0.431568,5.22548 3.604176,3.604176 0 0 0 4.6656,1.88956 3.825792,3.825792 0 0 0 2.006208,-3.60417 c 0.11664,-3.0793 -1.22472,-6.36855 -2.671056,-9.00461 z"
     fill="#9fb8b7"
     id="path593" />
  <path
     style="stroke-width:1.1664"
     d="m 60.879625,110.63453 a 14.148432,14.148432 0 0 0 -1.318032,1.52799 21.543408,21.543408 0 0 0 -2.251152,3.96576 7.23168,7.23168 0 0 0 -0.431568,5.22547 3.604176,3.604176 0 0 0 4.6656,1.88957 3.825792,3.825792 0 0 0 2.006208,-3.60418 c 0.104976,-3.05597 -1.236384,-6.34522 -2.671056,-9.00461 z"
     fill="#9fb8b7"
     id="path595" />
  <path
     style="stroke-width:1.1664"
     d="m 32.314489,96.602739 a 14.148432,14.148432 0 0 0 -1.318032,1.527984 21.543408,21.543408 0 0 0 -2.251152,3.965757 7.23168,7.23168 0 0 0 -0.431568,5.22548 3.604176,3.604176 0 0 0 4.6656,1.88956 3.825792,3.825792 0 0 0 2.006208,-3.60417 c 0.104976,-3.05597 -1.271376,-6.345217 -2.671056,-9.004611 z"
     opacity="0.08"
     id="path609" />
  <path
     style="stroke-width:1.1664"
     d="m 43.045369,111.12442 a 14.148432,14.148432 0 0 0 -1.318032,1.52798 21.543408,21.543408 0 0 0 -2.251152,3.96576 7.23168,7.23168 0 0 0 -0.431568,5.22548 3.604176,3.604176 0 0 0 4.6656,1.88956 3.825792,3.825792 0 0 0 2.006208,-3.60417 c 0.11664,-3.0793 -1.22472,-6.36855 -2.671056,-9.00461 z"
     opacity="0.08"
     id="path611" />
  <path
     style="stroke-width:1.1664"
     d="m 60.879625,110.63453 a 14.148432,14.148432 0 0 0 -1.318032,1.52799 21.543408,21.543408 0 0 0 -2.251152,3.96576 7.23168,7.23168 0 0 0 -0.431568,5.22547 3.604176,3.604176 0 0 0 4.6656,1.88957 3.825792,3.825792 0 0 0 2.006208,-3.60418 c 0.104976,-3.05597 -1.236384,-6.34522 -2.671056,-9.00461 z"
     opacity="0.08"
     id="path613" />
  <path
     style="stroke-width:1.1664"
     d="m 31.474681,97.535859 a 14.148432,14.148432 0 0 0 -1.318032,1.527986 21.543408,21.543408 0 0 0 -2.251152,3.965755 7.23168,7.23168 0 0 0 -0.431568,5.22548 3.604176,3.604176 0 0 0 4.6656,1.88956 3.825792,3.825792 0 0 0 2.006208,-3.60417 c 0.104976,-3.05597 -1.236384,-6.34522 -2.671056,-9.004611 z"
     fill="#9fb8b7"
     id="path615" />
  <path
     style="stroke-width:1.1664"
     d="m 42.217225,112.04588 a 14.148432,14.148432 0 0 0 -1.318032,1.52798 21.543408,21.543408 0 0 0 -2.251152,3.96576 7.23168,7.23168 0 0 0 -0.431568,5.22547 3.604176,3.604176 0 0 0 4.6656,1.88957 3.825792,3.825792 0 0 0 2.006208,-3.60418 c 0.104976,-3.05596 -1.236384,-6.35688 -2.671056,-9.0046 z"
     fill="#9fb8b7"
     id="path617" />
  <path
     style="stroke-width:1.1664"
     d="m 60.039817,111.57932 a 14.148432,14.148432 0 0 0 -1.318032,1.52798 21.543408,21.543408 0 0 0 -2.251152,3.96576 7.23168,7.23168 0 0 0 -0.431568,5.22547 3.604176,3.604176 0 0 0 4.6656,1.88957 3.825792,3.825792 0 0 0 2.006208,-3.60418 c 0.104976,-3.06763 -1.236384,-6.35688 -2.671056,-9.0046 z"
     fill="#9fb8b7"
     id="path619" />
  <rect
     transform="matrix(0.04438291,0.0170861,-0.00671946,0.04014804,85.781368,92.190139)"
     rx="7.5435399e-15"
     y="46.753288"
     x="45.973434"
     height="0.5333581"
     width="0.5333581"
     id="rect2097"
     style="display:inline;fill:#c13900;fill-opacity:1;stroke:#000000;stroke-width:14.8666;stroke-linecap:round;stroke-linejoin:round;stroke-miterlimit:4;stroke-dasharray:none;stroke-dashoffset:0;stroke-opacity:1;filter:url(#filter2387)" />
  <g
     transform="matrix(1.3616722,0,0,1.3616722,-23.290123,-25.733503)"
     id="g2007">
    <path
       style="fill:#8a2a00;fill-opacity:1;stroke:none;stroke-width:0.521635;stroke-linecap:round;stroke-linejoin:round;stroke-miterlimit:4;stroke-dasharray:none;stroke-dashoffset:0;stroke-opacity:1"
       d="m 85.941184,106.26901 1.765407,0.75752 0.07155,-8.669356 7.862411,4.721276 -0.495665,-3.088293 7.823433,-3.173946 -1.47184,-2.900435 1.17971,-2.874423 -3.402299,-1.111692 -1.914309,-2.495416 -5.572415,1.008576 1.482241,-9.772482 -2.985287,-0.512894 -3.92928,-6.241009 -3.74618,3.078079 -3.16863,-1.835728 1.71424,10.761405 -5.381022,-5.154587 -1.905001,0.784927 -3.533214,-1.67206 1.200125,3.804016 -1.196497,1.775408 7.895695,9.571633 -0.366066,2.737502 7.81686,1.73823 z"
       id="path1743-6" />
    <g
       transform="matrix(0.88309279,0,0.16307171,1,-4.5292251,-1.7237331)"
       id="g1988">
      <path
         style="fill:#c13900;fill-opacity:1;stroke:none;stroke-width:0.55509;stroke-linecap:round;stroke-linejoin:round;stroke-miterlimit:4;stroke-dasharray:none;stroke-dashoffset:0;stroke-opacity:1"
         d="m 80.655319,109.0713 1.859234,0.75752 1.681897,-8.66935 8.031441,4.72127 0.0088,-3.08829 9.445209,-3.173945 -1.13109,-2.900431 1.86668,-2.874423 -3.64742,-1.111692 -1.706927,-2.495416 -6.496358,1.008576 3.483053,-9.772482 -3.285774,-0.512894 -3.296992,-6.241009 -4.810514,3.078079 -3.249121,-1.835728 -0.04602,10.761405 -5.141538,-5.154587 -2.302137,0.784927 -3.692192,-1.67206 0.656554,3.804016 -1.682741,1.775408 7.173462,9.571633 -0.920034,2.7375 8.530705,1.738233 z"
         id="path1743" />
      <path
         style="fill:none;fill-opacity:0;stroke:#8a2a00;stroke-width:0.55509;stroke-linecap:round;stroke-linejoin:round;stroke-miterlimit:4;stroke-dasharray:none;stroke-dashoffset:0;stroke-opacity:1"
         d="m 75.235822,89.019765 8.61435,8.413371 2.175807,-12.44827"
         id="path1745" />
      <path
         style="fill:#c13900;fill-opacity:1;stroke:#8a2a00;stroke-width:0.55509;stroke-linecap:round;stroke-linejoin:round;stroke-miterlimit:4;stroke-dasharray:none;stroke-dashoffset:0;stroke-opacity:1"
         d="M 83.850172,97.433136 94.290946,96.313641"
         id="path1747" />
    </g>
  </g>
</svg>
