<svg
    xmlns="http://www.w3.org/2000/svg"
    viewBox="0 0 144 144"
    id="vector">
    <path
        id="path"
        d="M 74.064 48.739 C 70.838 49.363 67.953 51.316 65.826 54.317 C 63.7 57.318 62.437 61.216 62.222 65.447 C 62.006 69.679 62.849 74.032 64.627 77.878 C 66.405 81.724 69.03 84.869 72.123 86.86 C 75.215 88.851 78.62 89.588 81.846 88.963 C 85.072 88.34 87.956 86.386 90.083 83.385 C 92.21 80.385 93.472 76.487 93.688 72.255 C 93.903 68.024 93.061 63.671 91.283 59.825 C 89.504 55.979 86.879 52.834 83.787 50.842 C 80.694 48.851 77.289 48.115 74.064 48.739 Z"
        fill="#ffb236"
        stroke-width="1"/>
    <path
        id="path_1"
        d="M 71.136 48.746 C 67.901 49.358 65.006 51.305 62.871 54.306 C 60.735 57.308 59.466 61.211 59.248 65.45 C 59.03 69.69 59.874 74.052 61.658 77.904 C 63.441 81.757 66.074 84.905 69.175 86.893 C 72.276 88.881 75.689 89.608 78.918 88.97 C 82.153 88.358 85.048 86.41 87.184 83.409 C 89.32 80.408 90.589 76.505 90.807 72.265 C 91.024 68.025 90.181 63.663 88.397 59.811 C 86.613 55.958 83.98 52.81 80.879 50.822 C 77.778 48.834 74.366 48.107 71.136 48.746 Z"
        fill="#ffc358"
        stroke-width="1"/>
    <path
        id="path_2"
        d="M 73.777 79.796 C 73.886 78.067 73.346 76.359 72.262 75.008 C 71.505 74.145 70.533 73.496 69.446 73.126 C 68.358 72.757 67.193 72.68 66.066 72.902 C 65.961 69.816 65.005 66.73 62.178 65.045 C 61.461 64.594 60.651 64.311 59.809 64.22 C 58.967 64.129 58.115 64.231 57.318 64.519 C 57.125 64.613 56.939 64.718 56.759 64.835 C 56.541 64.335 56.218 63.887 55.811 63.524 C 55.404 63.16 54.923 62.889 54.402 62.729 C 52.474 62.186 51.089 63.207 50.23 64.665 C 48.764 63.255 46.796 62.534 44.722 63.506 C 42.155 64.705 41.782 67.961 42.203 70.44 C 42.908 74.603 45.63 77.325 49.032 79.026 C 49.142 80.161 49.487 81.26 50.044 82.254 C 50.602 83.249 51.361 84.116 52.272 84.801 C 53.002 85.324 53.838 85.68 54.721 85.845 C 55.604 86.01 56.513 85.98 57.383 85.757 C 57.436 86.845 57.826 87.89 58.5 88.746 C 59.173 89.602 60.096 90.228 61.141 90.536 C 62.36 90.956 63.688 90.933 64.891 90.471 C 65.307 91.569 66.053 92.511 67.027 93.167 C 68 93.822 69.153 94.16 70.327 94.133 C 70.84 94.13 71.348 94.025 71.82 93.825 C 72.293 93.625 72.721 93.333 73.081 92.966 C 73.576 93.355 74.157 93.62 74.776 93.738 C 75.394 93.857 76.033 93.825 76.636 93.647 C 78.945 92.918 79.593 90.706 79.407 88.495 C 79.289 86.685 78.71 84.935 77.725 83.412 C 76.74 81.889 75.38 80.644 73.777 79.796 Z"
        fill="#9fb8b7"
        stroke-width="1"/>
    <path
        id="path_3"
        d="M 73.777 79.796 C 73.886 78.067 73.346 76.359 72.262 75.008 C 71.505 74.145 70.533 73.496 69.446 73.126 C 68.358 72.757 67.193 72.68 66.066 72.902 C 65.961 69.816 65.005 66.73 62.178 65.045 C 61.461 64.594 60.651 64.311 59.809 64.22 C 58.967 64.129 58.115 64.231 57.318 64.519 C 57.125 64.613 56.939 64.718 56.759 64.835 C 56.541 64.335 56.218 63.887 55.811 63.524 C 55.404 63.16 54.923 62.889 54.402 62.729 C 52.474 62.186 51.089 63.207 50.23 64.665 C 48.764 63.255 46.796 62.534 44.722 63.506 C 42.155 64.705 41.782 67.961 42.203 70.44 C 42.908 74.603 45.63 77.325 49.032 79.026 C 49.142 80.161 49.487 81.26 50.044 82.254 C 50.602 83.249 51.361 84.116 52.272 84.801 C 53.002 85.324 53.838 85.68 54.721 85.845 C 55.604 86.01 56.513 85.98 57.383 85.757 C 57.436 86.845 57.826 87.89 58.5 88.746 C 59.173 89.602 60.096 90.228 61.141 90.536 C 62.36 90.956 63.688 90.933 64.891 90.471 C 65.307 91.569 66.053 92.511 67.027 93.167 C 68 93.822 69.153 94.16 70.327 94.133 C 70.84 94.13 71.348 94.025 71.82 93.825 C 72.293 93.625 72.721 93.333 73.081 92.966 C 73.576 93.355 74.157 93.62 74.776 93.738 C 75.394 93.857 76.033 93.825 76.636 93.647 C 78.945 92.918 79.593 90.706 79.407 88.495 C 79.289 86.685 78.71 84.935 77.725 83.412 C 76.74 81.889 75.38 80.644 73.777 79.796 Z"
        fill="#93aaa9"
        stroke-width="1"/>
    <path
        id="path_4"
        d="M 69.913 81.845 C 70.023 80.117 69.482 78.409 68.399 77.058 C 67.641 76.194 66.67 75.545 65.582 75.176 C 64.495 74.806 63.329 74.729 62.202 74.952 C 62.097 71.866 61.141 68.78 58.314 67.095 C 57.598 66.643 56.787 66.361 55.945 66.269 C 55.103 66.178 54.251 66.28 53.454 66.568 C 53.262 66.662 53.075 66.768 52.895 66.884 C 52.678 66.384 52.354 65.937 51.947 65.573 C 51.54 65.21 51.06 64.938 50.538 64.778 C 48.61 64.235 47.225 65.256 46.367 66.714 C 44.901 65.305 42.932 64.584 40.859 65.556 C 38.291 66.755 37.918 70.011 38.34 72.489 C 39.044 76.653 41.766 79.374 45.168 81.075 C 45.278 82.21 45.623 83.309 46.181 84.304 C 46.739 85.298 47.497 86.165 48.408 86.851 C 49.139 87.373 49.975 87.73 50.858 87.895 C 51.741 88.06 52.649 88.03 53.519 87.806 C 53.563 88.896 53.946 89.945 54.614 90.807 C 55.281 91.669 56.201 92.302 57.245 92.618 C 58.464 93.038 59.792 93.015 60.995 92.553 C 61.411 93.651 62.157 94.593 63.13 95.248 C 64.104 95.904 65.257 96.242 66.43 96.214 C 66.944 96.211 67.451 96.107 67.924 95.906 C 68.397 95.706 68.825 95.414 69.184 95.048 C 69.68 95.437 70.261 95.702 70.88 95.82 C 71.498 95.938 72.136 95.907 72.74 95.728 C 75.049 94.999 75.697 92.788 75.511 90.577 C 75.402 88.764 74.83 87.01 73.851 85.481 C 72.871 83.952 71.515 82.7 69.913 81.845 Z"
        fill="#9fb8b7"
        stroke-width="1"/>
    <path
        id="path_5"
        d="M 59.902 43.88 L 62.38 47.12 C 62.628 47.416 62.98 47.605 63.363 47.648 C 63.746 47.69 64.131 47.584 64.438 47.35 C 64.744 47.117 64.949 46.774 65.01 46.393 C 65.07 46.012 64.981 45.623 64.762 45.306 L 62.283 42.066 C 62.036 41.77 61.684 41.581 61.301 41.538 C 60.918 41.496 60.533 41.602 60.226 41.836 C 59.92 42.069 59.715 42.412 59.654 42.793 C 59.594 43.174 59.683 43.563 59.902 43.88 Z M 72.036 33.788 L 72.036 43.07 C 72.036 43.467 72.194 43.849 72.475 44.13 C 72.755 44.411 73.137 44.569 73.534 44.569 C 73.931 44.569 74.313 44.411 74.594 44.13 C 74.875 43.849 75.033 43.467 75.033 43.07 L 75.033 33.788 C 75.033 33.39 74.875 33.009 74.594 32.728 C 74.313 32.447 73.931 32.289 73.534 32.289 C 73.137 32.289 72.755 32.447 72.475 32.728 C 72.194 33.009 72.036 33.39 72.036 33.788 Z M 48.926 50.474 L 56.67 55.593 C 56.999 55.753 57.375 55.788 57.727 55.69 C 58.08 55.592 58.384 55.369 58.583 55.062 C 58.783 54.755 58.863 54.386 58.809 54.024 C 58.755 53.663 58.57 53.333 58.29 53.098 L 50.611 47.979 C 50.28 47.756 49.874 47.673 49.483 47.749 C 49.091 47.825 48.745 48.054 48.522 48.384 C 48.299 48.715 48.216 49.121 48.292 49.513 C 48.367 49.904 48.596 50.25 48.926 50.474 Z M 84.34 41.175 L 81.982 44.52 C 81.801 44.843 81.746 45.221 81.827 45.582 C 81.908 45.943 82.12 46.261 82.422 46.475 C 82.723 46.689 83.094 46.785 83.461 46.742 C 83.829 46.7 84.168 46.523 84.412 46.245 L 86.77 42.9 C 86.951 42.578 87.006 42.199 86.925 41.838 C 86.844 41.477 86.632 41.159 86.33 40.945 C 86.029 40.731 85.658 40.636 85.291 40.678 C 84.923 40.72 84.584 40.897 84.34 41.175 Z M 96.862 43.832 L 90.382 50.465 C 90.136 50.754 90.009 51.126 90.026 51.506 C 90.043 51.885 90.204 52.243 90.476 52.509 C 90.747 52.774 91.109 52.927 91.489 52.935 C 91.868 52.944 92.237 52.808 92.521 52.555 L 99.001 45.921 C 99.247 45.632 99.374 45.26 99.357 44.881 C 99.339 44.502 99.179 44.143 98.907 43.878 C 98.636 43.613 98.273 43.46 97.894 43.452 C 97.514 43.443 97.145 43.579 96.862 43.832 Z M 98.79 55.552 L 94.878 56.743 C 94.509 56.867 94.203 57.13 94.024 57.476 C 93.846 57.822 93.809 58.224 93.922 58.597 C 94.034 58.969 94.288 59.283 94.628 59.473 C 94.968 59.662 95.369 59.711 95.744 59.61 L 99.657 58.42 C 100.025 58.295 100.332 58.032 100.51 57.686 C 100.688 57.341 100.725 56.939 100.613 56.566 C 100.5 56.194 100.247 55.879 99.907 55.69 C 99.567 55.501 99.166 55.451 98.79 55.552 Z"
        fill="#ffb236"
        stroke-width="1"/>
    <path
        id="path_6"
        d="M 43.969 88.552 C 43.639 88.883 43.333 89.238 43.054 89.613 C 42.437 90.473 41.913 91.396 41.491 92.367 C 40.94 93.496 40.833 94.791 41.191 95.996 C 41.453 96.594 41.939 97.066 42.544 97.311 C 43.149 97.556 43.827 97.555 44.431 97.308 C 44.878 97.067 45.247 96.704 45.494 96.26 C 45.741 95.817 45.855 95.312 45.824 94.805 C 45.897 92.683 44.941 90.398 43.969 88.552 Z M 51.421 98.636 C 51.091 98.968 50.785 99.322 50.506 99.697 C 49.889 100.557 49.365 101.481 48.943 102.451 C 48.392 103.58 48.285 104.876 48.643 106.08 C 48.905 106.678 49.391 107.15 49.996 107.395 C 50.601 107.641 51.279 107.639 51.883 107.392 C 52.33 107.152 52.699 106.788 52.946 106.345 C 53.193 105.901 53.307 105.396 53.276 104.889 C 53.357 102.751 52.426 100.467 51.421 98.636 Z M 63.806 98.296 C 63.476 98.627 63.17 98.982 62.891 99.357 C 62.274 100.217 61.75 101.14 61.327 102.111 C 60.777 103.24 60.67 104.536 61.028 105.74 C 61.29 106.338 61.776 106.81 62.381 107.055 C 62.986 107.3 63.663 107.299 64.268 107.052 C 64.715 106.812 65.084 106.448 65.331 106.004 C 65.577 105.561 65.692 105.056 65.661 104.549 C 65.734 102.427 64.802 100.143 63.806 98.296 Z"
        fill="#9fb8b7"
        stroke-width="1"/>
    <path
        id="path_7"
        d="M 43.969 88.552 C 43.639 88.883 43.333 89.238 43.054 89.613 C 42.437 90.473 41.913 91.396 41.491 92.367 C 40.94 93.496 40.833 94.791 41.191 95.996 C 41.453 96.594 41.939 97.066 42.544 97.311 C 43.149 97.556 43.827 97.555 44.431 97.308 C 44.878 97.067 45.247 96.704 45.494 96.26 C 45.741 95.817 45.855 95.312 45.824 94.805 C 45.897 92.683 44.941 90.398 43.969 88.552 Z M 51.421 98.636 C 51.091 98.968 50.785 99.322 50.506 99.697 C 49.889 100.557 49.365 101.481 48.943 102.451 C 48.392 103.58 48.285 104.876 48.643 106.08 C 48.905 106.678 49.391 107.15 49.996 107.395 C 50.601 107.641 51.279 107.639 51.883 107.392 C 52.33 107.152 52.699 106.788 52.946 106.345 C 53.193 105.901 53.307 105.396 53.276 104.889 C 53.357 102.751 52.426 100.467 51.421 98.636 Z M 63.806 98.296 C 63.476 98.627 63.17 98.982 62.891 99.357 C 62.274 100.217 61.75 101.14 61.327 102.111 C 60.777 103.24 60.67 104.536 61.028 105.74 C 61.29 106.338 61.776 106.81 62.381 107.055 C 62.986 107.3 63.663 107.299 64.268 107.052 C 64.715 106.812 65.084 106.448 65.331 106.004 C 65.577 105.561 65.692 105.056 65.661 104.549 C 65.734 102.427 64.802 100.143 63.806 98.296 Z"
        fill="#93aaa9"
        stroke-width="1"/>
    <path
        id="path_8"
        d="M 43.386 89.2 C 43.056 89.531 42.75 89.886 42.471 90.261 C 41.854 91.121 41.33 92.044 40.907 93.015 C 40.357 94.144 40.25 95.439 40.608 96.644 C 40.87 97.242 41.356 97.714 41.961 97.959 C 42.566 98.204 43.243 98.203 43.848 97.956 C 44.295 97.715 44.664 97.352 44.91 96.908 C 45.157 96.465 45.272 95.96 45.241 95.453 C 45.314 93.331 44.382 91.046 43.386 89.2 Z M 50.846 99.276 C 50.516 99.608 50.21 99.962 49.931 100.337 C 49.314 101.197 48.79 102.12 48.367 103.091 C 47.817 104.22 47.71 105.516 48.068 106.72 C 48.33 107.318 48.816 107.79 49.421 108.035 C 50.026 108.28 50.703 108.279 51.308 108.032 C 51.755 107.792 52.124 107.428 52.371 106.985 C 52.617 106.541 52.732 106.036 52.701 105.529 C 52.774 103.407 51.842 101.115 50.846 99.276 Z M 63.223 98.952 C 62.893 99.284 62.587 99.638 62.308 100.013 C 61.691 100.873 61.166 101.796 60.744 102.767 C 60.194 103.896 60.087 105.192 60.445 106.396 C 60.707 106.994 61.192 107.466 61.798 107.711 C 62.403 107.956 63.08 107.955 63.685 107.708 C 64.132 107.468 64.5 107.104 64.747 106.661 C 64.994 106.217 65.109 105.712 65.078 105.205 C 65.151 103.075 64.219 100.791 63.223 98.952 Z"
        fill="#9fb8b7"
        stroke-width="1"/>
    <path
        id="path_9"
        d="M 82.298 87.336 L 82.314 87.343 L 82.312 87.358 L 82.295 87.351 Z"
        fill="#c13900"
        stroke="#000000"
        stroke-width="0.411729743"
        stroke-linecap="round"
        stroke-linejoin="round"/>
    <path
        id="path_10"
        d="M 86.621 104.085 L 88.291 104.801 L 88.358 96.603 L 95.793 101.068 L 95.324 98.147 L 102.722 95.146 L 101.331 92.403 L 102.446 89.685 L 99.229 88.634 L 97.419 86.274 L 92.149 87.228 L 93.551 77.987 L 90.728 77.502 L 87.012 71.601 L 83.47 74.511 L 80.474 72.775 L 82.095 82.951 L 77.006 78.077 L 75.205 78.819 L 71.864 77.238 L 72.999 80.835 L 71.867 82.514 L 79.334 91.565 L 78.988 94.154 L 86.379 95.797 Z"
        fill="#8a2a00"
        stroke-width="1"/>
    <path
        id="path_11"
        d="M 85.243 105.104 L 86.912 105.821 L 86.98 97.623 L 94.415 102.087 L 93.946 99.167 L 101.344 96.166 L 99.952 93.423 L 101.067 90.705 L 97.85 89.654 L 96.04 87.294 L 90.771 88.248 L 92.172 79.007 L 89.349 78.522 L 85.634 72.62 L 82.091 75.531 L 79.095 73.795 L 80.716 83.971 L 75.628 79.097 L 73.826 79.839 L 70.485 78.258 L 71.62 81.855 L 70.489 83.534 L 77.955 92.585 L 77.609 95.174 L 85.001 96.817 Z"
        fill="#c13900"
        stroke-width="1"/>
    <path
        id="path_12"
        d="M 77.625 86.144 L 86.116 94.099 L 86.014 82.328"
        fill="none"
        stroke="#8a2a00"
        stroke-width="0.457489343"
        stroke-linecap="round"
        stroke-linejoin="round"/>
    <path
        id="path_13"
        d="M 86.116 94.099 L 94.662 93.041"
        fill="#c13900"
        stroke="#8a2a00"
        stroke-width="0.457489343"
        stroke-linecap="round"
        stroke-linejoin="round"/>
</svg>
