<?xml version="1.0" encoding="UTF-8" standalone="no"?>
<svg
   xmlns:dc="http://purl.org/dc/elements/1.1/"
   xmlns:cc="http://creativecommons.org/ns#"
   xmlns:rdf="http://www.w3.org/1999/02/22-rdf-syntax-ns#"
   xmlns:svg="http://www.w3.org/2000/svg"
   xmlns="http://www.w3.org/2000/svg"
   xmlns:sodipodi="http://sodipodi.sourceforge.net/DTD/sodipodi-0.dtd"
   xmlns:inkscape="http://www.inkscape.org/namespaces/inkscape"
   inkscape:version="1.0 (4035a4fb49, 2020-05-01)"
   sodipodi:docname="Error_notification_SVG.svg"
   id="svg105"
   version="1.1"
   viewBox="0 0 500 373.72">
  <metadata
     id="metadata109">
    <rdf:RDF>
      <cc:Work
         rdf:about="">
        <dc:format>image/svg+xml</dc:format>
        <dc:type
           rdf:resource="http://purl.org/dc/dcmitype/StillImage" />
        <dc:title>Error notification_SVG</dc:title>
      </cc:Work>
    </rdf:RDF>
  </metadata>
  <sodipodi:namedview
     inkscape:current-layer="svg105"
     inkscape:window-maximized="1"
     inkscape:window-y="-8"
     inkscape:window-x="-8"
     inkscape:cy="185.96398"
     inkscape:cx="147.68004"
     inkscape:zoom="1.48351"
     inkscape:snap-bbox="false"
     inkscape:snap-nodes="true"
     inkscape:object-paths="false"
     showgrid="false"
     id="namedview107"
     inkscape:window-height="1017"
     inkscape:window-width="1920"
     inkscape:pageshadow="2"
     inkscape:pageopacity="0"
     guidetolerance="10"
     gridtolerance="10"
     objecttolerance="10"
     borderopacity="1"
     bordercolor="#666666"
     pagecolor="#ffffff" />
  <defs
     id="defs9">
    <style
       id="style2">.cls-1{fill:#b1b4c4;}.cls-2{fill:#d6d8e5;opacity:0.4;}.cls-3{fill:#616e84;}.cls-4{fill:#757b89;}.cls-5{fill:#20232d;}.cls-6,.cls-9{fill:#fff;}.cls-7{opacity:0.5;fill:url(#Безымянный_градиент_15);}.cls-8{fill:#2b303f;}.cls-9{opacity:0.1;}.cls-10{fill:#e9eaf2;}.cls-11{fill:#edeef7;}.cls-12{fill:#f8f9ff;}.cls-13{fill:#ff7b7b;}.cls-14{fill:#c1c4d3;}</style>
    <linearGradient
       gradientUnits="userSpaceOnUse"
       y2="80.74"
       x2="260.38"
       y1="340.14"
       x1="260.38"
       id="Безымянный_градиент_15">
      <stop
         id="stop4"
         stop-opacity="0"
         stop-color="#fff"
         offset="0.21" />
      <stop
         id="stop6"
         stop-opacity="0.2"
         stop-color="#fff"
         offset="1" />
    </linearGradient>
  </defs>
  <title
     id="title11">Error notification_SVG</title>
  <polygon
     id="polygon13"
     points="500,170.71 500,159.67 489.29,166.57 "
     class="cls-1" />
  <path
     id="path15"
     d="M 131.79,369.6 7.13,297.6 c -10.56,-6.1 -9.24,-16.75 3,-23.79 L 311.22,100 c 12.2,-7 30.64,-7.8 41.2,-1.71 l 124.66,72 c 10.56,6.09 9.23,16.74 -3,23.78 L 173,367.89 c -12.21,7.04 -30.65,7.81 -41.21,1.71 z"
     class="cls-2" />
  <path
     id="path17"
     d="m 147.58,360.12 -124.66,-72 c -10.56,-6.09 -9.23,-16.74 3,-23.78 L 327,90.51 c 12.2,-7 30.64,-7.81 41.2,-1.71 l 124.66,72 c 10.56,6.1 9.24,16.75 -3,23.79 L 188.78,358.42 c -12.2,7.04 -30.64,7.8 -41.2,1.7 z"
     class="cls-1" />
  <polygon
     id="polygon19"
     points="15.79,277.67 15.79,266.19 29.25,271.27 "
     class="cls-1" />
  <path
     id="path21"
     d="m 147.58,350.41 -124.66,-72 c -10.56,-6.1 -9.23,-16.75 3,-23.79 L 327,80.79 c 12.2,-7 30.64,-7.8 41.2,-1.71 l 124.66,72 c 10.56,6.09 9.24,16.74 -3,23.78 L 188.78,348.7 c -12.2,7.04 -30.64,7.81 -41.2,1.71 z"
     class="cls-3" />
  <ellipse
     id="ellipse23"
     transform="rotate(-30)"
     ry="2.3099999"
     rx="1.34"
     cy="270.5672"
     cx="-113.70513"
     class="cls-4" />
  <ellipse
     id="ellipse25"
     transform="rotate(-30)"
     ry="2.3099999"
     rx="1.34"
     cy="276.5773"
     cx="-110.24554"
     class="cls-4" />
  <ellipse
     id="ellipse27"
     transform="rotate(-30)"
     ry="2.3099999"
     rx="1.34"
     cy="282.56876"
     cx="-106.78094"
     class="cls-4" />
  <ellipse
     id="ellipse29"
     transform="rotate(-30)"
     ry="2.3099999"
     rx="1.34"
     cy="288.57886"
     cx="-103.32134"
     class="cls-4" />
  <ellipse
     id="ellipse31"
     transform="rotate(-30)"
     ry="2.3099999"
     rx="1.34"
     cy="340.09442"
     cx="-73.564911"
     class="cls-4" />
  <ellipse
     id="ellipse33"
     transform="rotate(-30)"
     ry="2.3099999"
     rx="1.34"
     cy="346.10455"
     cx="-70.105316"
     class="cls-4" />
  <ellipse
     id="ellipse35"
     transform="rotate(-30)"
     ry="2.3099999"
     rx="1.34"
     cy="352.09598"
     cx="-66.640717"
     class="cls-4" />
  <ellipse
     id="ellipse37"
     transform="rotate(-30)"
     ry="2.3099999"
     rx="1.34"
     cy="358.10608"
     cx="-63.181122"
     class="cls-4" />
  <path
     id="path39"
     d="M 88.82,323.72 72.34,314.2 a 4.51,4.51 0 0 1 -1.89,-3.61 v 0 c 0,-1.39 0.84,-2 1.89,-1.43 l 16.48,9.52 a 4.51,4.51 0 0 1 1.89,3.61 v 0 c 0,1.39 -0.84,2.03 -1.89,1.43 z"
     class="cls-4" />
  <path
     id="path41"
     d="m 462.27,198 -15.33,8.85 c -1,0.56 -1.76,0 -1.76,-1.33 v 0 a 4.21,4.21 0 0 1 1.76,-3.36 l 15.33,-8.85 c 1,-0.56 1.75,0 1.75,1.33 v 0 a 4.21,4.21 0 0 1 -1.75,3.36 z"
     class="cls-4" />
  <path
     id="path43"
     d="m 438.79,211.59 -15.33,8.85 c -1,0.56 -1.76,0 -1.76,-1.33 v 0 a 4.2,4.2 0 0 1 1.76,-3.35 l 15.33,-8.85 c 1,-0.56 1.75,0 1.75,1.33 v 0 a 4.19,4.19 0 0 1 -1.75,3.35 z"
     class="cls-4" />
  <path
     id="path45"
     d="m 147.58,348.64 -124.66,-72 c -10.56,-6.1 -9.23,-16.74 3,-23.78 L 327,79 c 12.2,-7 30.64,-7.81 41.2,-1.71 l 124.66,72 c 10.56,6.1 9.24,16.75 -3,23.79 L 188.78,346.94 c -12.2,7.06 -30.64,7.8 -41.2,1.7 z"
     class="cls-5" />
  <path
     id="path47"
     d="m 479.49,152.16 -48.67,-28.1 -0.12,0.07 c -5.75,3.32 -15.07,3.32 -20.82,0 -5.75,-3.32 -5.75,-8.7 0,-12 L 410,112 361.33,83.9 c -7.39,-4.27 -19.38,-4.27 -26.77,0 L 41.27,253.27 c -7.39,4.27 -7.39,11.19 0,15.45 l 118.15,68.22 c 7.4,4.27 19.38,4.27 26.77,0 l 293.3,-169.33 c 7.39,-4.26 7.39,-11.18 0,-15.45 z"
     class="cls-6" />
  <path
     id="path49"
     d="M 479.49,167.61 186.2,337 c -6.68,3.85 -17.13,4.22 -24.53,1.1 A 22,22 0 0 1 159.44,337 L 41.28,268.72 a 12.48,12.48 0 0 1 -4.15,-3.6 c -2.79,-3.95 -1.41,-8.64 4.15,-11.85 L 334.56,83.94 c 7.39,-4.26 19.37,-4.26 26.77,0 L 410,112.05 a 0.34,0.34 0 0 0 -0.12,0.06 c -5.75,3.32 -5.75,8.7 0,12 5.75,3.3 15.08,3.32 20.82,0 l 0.11,-0.07 48.68,28.1 c 7.39,4.29 7.39,11.2 0,15.47 z"
     class="cls-7"
     style="fill:url(#%D0%91%D0%B5%D0%B7%D1%8B%D0%BC%D1%8F%D0%BD%D0%BD%D1%8B%D0%B9_%D0%B3%D1%80%D0%B0%D0%B4%D0%B8%D0%B5%D0%BD%D1%82_15)" />
  <ellipse
     id="ellipse51"
     ry="3.23"
     rx="5.5900002"
     cy="119.96"
     cx="417.09"
     class="cls-8" />
  <path
     id="path53"
     d="m 415.44,120.92 a 1,1 0 0 1 0,-1.91 3.64,3.64 0 0 1 3.31,0 1,1 0 0 1 0,1.91 3.64,3.64 0 0 1 -3.31,0 z"
     class="cls-9" />
  <polygon
     id="polygon55"
     points="438.55,139.97 440.66,141.2 437.13,143.23 435.02,142.01 "
     class="cls-10" />
  <polygon
     id="polygon57"
     points="442.78,140.79 444.9,142.01 439.96,144.86 437.84,143.64 "
     class="cls-10" />
  <polygon
     id="polygon59"
     points="447.72,141.2 449.84,142.42 442.78,146.49 440.66,145.27 "
     class="cls-10" />
  <polygon
     id="polygon61"
     points="453.37,141.2 455.49,142.42 445.6,148.12 443.49,146.9 "
     class="cls-10" />
  <polygon
     id="polygon63"
     points="458.07,147.72 461.37,149.62 454.78,153.42 451.49,151.52 "
     class="cls-10" />
  <polygon
     id="polygon65"
     points="462.47,150.25 465.76,152.15 459.17,155.96 455.88,154.06 "
     class="cls-10" />
  <polygon
     id="polygon67"
     points="466.86,152.79 470.15,154.69 463.56,158.49 460.27,156.59 "
     class="cls-10" />
  <polygon
     id="polygon69"
     points="315.31,106.72 327.81,99.46 447.44,168.53 434.95,175.79 "
     class="cls-10" />
  <polygon
     id="polygon71"
     points="153.77,200.6 200.14,173.65 226.09,188.63 179.73,215.58 "
     class="cls-10" />
  <polygon
     id="polygon73"
     points="184.95,218.6 252.95,179.08 278.91,194.06 210.9,233.58 "
     class="cls-10" />
  <polygon
     id="polygon75"
     points="216.12,236.59 303.34,185.9 329.3,200.89 242.08,251.58 "
     class="cls-10" />
  <polygon
     id="polygon77"
     points="247.29,254.59 351.37,194.11 377.33,209.09 273.25,269.58 "
     class="cls-10" />
  <polygon
     id="polygon79"
     points="124.38,217.68 136.87,210.42 256.51,279.49 244.01,286.75 "
     class="cls-10" />
  <polygon
     id="polygon81"
     points="102.2,230.57 114.7,223.3 234.34,292.37 221.84,299.64 "
     class="cls-10" />
  <polygon
     id="polygon83"
     points="80.03,243.45 92.53,236.18 212.17,305.26 199.67,312.52 "
     class="cls-10" />
  <polygon
     id="polygon85"
     points="57.86,256.33 70.36,249.07 190,318.14 177.5,325.4 "
     class="cls-10" />
  <polygon
     id="polygon87"
     points="270.97,132.49 283.47,125.22 403.11,194.3 390.6,201.56 "
     class="cls-10" />
  <polygon
     id="polygon89"
     points="293.14,119.61 305.64,112.34 425.28,181.41 412.77,188.68 "
     class="cls-10" />
  <path
     id="path91"
     d="M 332,61.06 228.83,1.49 c -2.79,-1.61 -5.34,-1.87 -7.28,-1 v 0 a 5.24,5.24 0 0 0 -0.77,0.43 L 210,6.89 l 7.84,11 v 77.89 c 0,7 4.92,15.52 11,19 l 40.42,23.33 4.92,12.69 -5.18,22.47 11.41,-6.34 11.18,-15.93 35,20.22 1.23,10.49 11.3,-6.3 c 2.35,-1 3.85,-3.55 3.85,-7.41 V 80.08 C 343,73.08 338.08,64.56 332,61.06 Z"
     class="cls-11" />
  <path
     id="path93"
     d="M 320.6,67.4 217.42,7.83 c -6.06,-3.5 -11,-0.66 -11,6.34 v 88 c 0,7 4.92,15.52 11,19 l 40.42,23.33 11.16,28.77 11.17,-15.9 40.42,23.34 c 6.07,3.5 11,0.66 11,-6.34 V 86.42 c -0.01,-7 -4.92,-15.52 -10.99,-19.02 z"
     class="cls-12" />
  <polygon
     style="fill:#aae3ea;fill-opacity:1"
     transform="matrix(1.3655372,0,0,1.3655372,-92.393453,-111.24327)"
     id="polygon99"
     points="297.21,141.53 297.19,149.28 237.88,115.03 237.9,107.29 "
     class="cls-14" />
  <polygon
     transform="matrix(0.49568538,0,0,0.49568538,134.96293,62.808029)"
     id="polygon101"
     points="234.71,91.87 300.47,129.83 300.45,137.58 234.69,99.62 "
     class="cls-14"
     style="fill:#aae3ea;fill-opacity:1;stroke:none;stroke-width:1;stroke-miterlimit:4;stroke-dasharray:none;stroke-opacity:1;image-rendering:auto" />
  <polygon
     style="fill:#aae3ea;fill-opacity:1;stroke:none;stroke-width:1;stroke-miterlimit:4;stroke-dasharray:none;stroke-opacity:1;image-rendering:auto"
     class="cls-14"
     points="300.47,129.83 300.45,137.58 234.69,99.62 234.71,91.87 "
     id="polygon101-3"
     transform="matrix(0.6389171,0,0,0.6389171,97.614082,30.816505)" />
  <polygon
     transform="matrix(0.93600469,0,0,0.93600469,19.128234,-20.297681)"
     id="polygon101-3-6"
     points="234.69,99.62 234.71,91.87 300.47,129.83 300.45,137.58 "
     class="cls-14"
     style="fill:#aae3ea;fill-opacity:1;stroke:none;stroke-width:1;stroke-miterlimit:4;stroke-dasharray:none;stroke-opacity:1;image-rendering:auto" />
</svg>
