<svg id="_1-10" data-name="#1-10" xmlns="http://www.w3.org/2000/svg" viewBox="0 0 400 300"><title>8_Navigation_isometric</title><path d="M87.66,237.55q.3-.73.58-1.46.57-1.47,1.1-2.95a108.13,108.13,0,0,0,3.2-10.74,69.52,69.52,0,0,0,2.08-11c0,.22-.21,1.63-.09.66l.1-.78q.07-.59.13-1.17.15-1.37.26-2.74.23-2.75.33-5.5a111.7,111.7,0,0,0-.18-11.22q-.18-2.75-.5-5.49c0-.38-.09-.77-.14-1.15l0-.33q-.2-1.36-.43-2.72-.86-5-2.18-9.83L43.94,198.87a8.89,8.89,0,0,0,0,15.38l43,24.86.57-1.26Z" fill="#96cf40"/><path d="M192.08,158.39l8,4.6c1.43.82,2.85,1.66,4.29,2.46l.46.25h0l1.61-.9,3.78-2.16q3.88-2.23,7.74-4.48,7.83-4.57,15.6-9.24,24.82-14.93,49-31L241.66,94.4a17.33,17.33,0,0,0-17.33,0l-71.56,41.43,23,13.21Z" fill="#96cf40"/><path d="M207.79,253.52a5.85,5.85,0,0,1-2.33-.25q-11.25-3.67-22.47-7.44Q144.94,233,107.33,218.93A112.13,112.13,0,0,1,99,246.05l71.47,41.31a18.55,18.55,0,0,0,18.61,0l21.74-12.65q-1.37-9.15-2.62-18.32Q208,254.94,207.79,253.52Z" fill="#96cf40"/><path d="M108.94,204.86q10.46,3.92,21,7.75,37.8,13.78,76,26.3-3.66-30.07-5.91-60.29-.7-.28-1.4-.62c-2.78-1.34-5.41-3-8.09-4.58l-8.46-4.85-16.48-9.45L139,143.85,104.18,164q.8,2.59,1.46,5.21A117.48,117.48,0,0,1,108.94,204.86Z" fill="#96cf40"/><path d="M368.46,167.36l-72.54-41.74q-14.48,9.73-29.21,19.08-7.12,4.52-14.3,8.93,7.33,4.51,14.64,9.05,32.74,20.37,65,41.44l36.41-21.18A9,9,0,0,0,368.46,167.36Z" fill="#96cf40"/><path d="M239.17,161.69l-3.75,2.25q-7.89,4.7-15.85,9.29c-2,1.13-3.9,2.31-5.88,3.42q.74,10.33,1.65,20.65,1.76,19.91,4.16,39.75.6,4.93,1.23,9.85.33,2.59.68,5.17l0,.18.13.93.34,2.46q.8,5.81,1.66,11.62l95.2-55.38-2.79-1.82Q277.87,185.4,239.17,161.69Z" fill="#96cf40"/><path d="M252.42,153.64q7.18-4.42,14.3-8.93,14.73-9.34,29.21-19.08L282.59,118q-24.13,16-49,31-7.77,4.67-15.6,9.24-3.86,2.25-7.74,4.48l-3.78,2.16-1.61.9h0l-.46-.25c-1.44-.8-2.86-1.64-4.29-2.46l-8-4.6-16.27-9.33-23-13.21-13.81,8,26.63,15.27,16.48,9.45,8.46,4.85c2.67,1.53,5.31,3.24,8.09,4.58q.7.34,1.4.62,2.22,30.21,5.91,60.29-38.23-12.52-76-26.3-10.5-3.83-21-7.75a117.48,117.48,0,0,0-3.3-35.66q-.66-2.62-1.46-5.21l-12.31,7.13Q93.19,176,94,180.94q.23,1.36.43,2.72l0,.33c0,.38.1.77.14,1.15q.32,2.74.5,5.49a111.7,111.7,0,0,1,.18,11.22q-.1,2.76-.33,5.5-.11,1.37-.26,2.74-.06.59-.13,1.17l-.1.78c-.11,1,.08-.45.09-.66a69.52,69.52,0,0,1-2.08,11,108.13,108.13,0,0,1-3.2,10.74q-.53,1.48-1.1,2.95-.28.73-.58,1.46l-.13.31L87,239.12l12,6.94a112.13,112.13,0,0,0,8.36-27.12Q144.94,233,183,245.82q11.22,3.78,22.47,7.44a5.85,5.85,0,0,0,2.33.25q.19,1.43.38,2.85,1.24,9.17,2.62,18.32l12.75-7.42q-.85-5.81-1.66-11.62l-.34-2.46-.13-.93,0-.18q-.34-2.58-.68-5.17-.63-4.92-1.23-9.85-2.4-19.84-4.16-39.75-.91-10.32-1.65-20.65c2-1.1,3.93-2.29,5.88-3.42q8-4.59,15.85-9.29l3.75-2.25q38.69,23.71,76.78,48.38l2.79,1.82,13.35-7.76q-32.29-21.07-65-41.44Q259.75,158.14,252.42,153.64Z" fill="#f8e6d2"/><path d="M211.78,40.74a2.46,2.46,0,0,1,2.32-.47.75.75,0,0,0,.4-1.45,3.89,3.89,0,0,0-3.78.86c-.65.71.4,1.77,1.06,1.06Z" fill="#f7931e"/><ellipse cx="104.08" cy="210.65" rx="19.58" ry="4.04" fill="#8ec62c" opacity="0.46"/><path d="M104.36,211.71a132.4,132.4,0,0,1-9.16-11.11c-5-6.68-10.26-14.23-12.33-22.43-2.61-10.35-1.41-23.07,7.88-29.76,10.93-7.87,29.06-3.63,34.67,8.85,7.24,16.1-3.89,31.47-12.83,44.08C109.89,205.13,107.06,208.49,104.36,211.71Z" fill="#f15a24"/><circle cx="104.71" cy="168.86" r="12.43" fill="#fff"/><path d="M361.84,100.06a17.56,17.56,0,0,0-16-3c-20.48,5.75-20.76,34.51-20.76,34.51s-7.44-5.48-18.25,1.93c-13.41,9.19-10.49,32.9-10.49,32.9l4.22,2.44,78.32-46.29S373.8,105,361.84,100.06Z" fill="#9fb8b7"/><path d="M361.84,100.06a17.56,17.56,0,0,0-16-3c-20.48,5.75-20.76,34.51-20.76,34.51s-7.44-5.48-18.25,1.93c-13.41,9.19-10.49,32.9-10.49,32.9l4.22,2.44,78.32-46.29S373.8,105,361.84,100.06Z" opacity="0.1"/><path d="M300.57,168.86l78.32-46.29s-8.34-28.8-28.83-23S329.31,134,329.31,134s-7.44-5.48-18.25,1.93C297.65,145.15,300.57,168.86,300.57,168.86Z" fill="#9fb8b7"/><polygon points="190.49 176.99 233.64 148.92 274.21 137.13 281.25 140.21 211.25 188.61 190.49 176.99" fill="#8ec62c" opacity="0.46"/><path d="M263.26,46.16c0-.26,2.21,2.34,2.66,4.72s-.51,9.38-1.33,10.17S260,62.86,260,62.86" fill="#42210b"/><path d="M246.81,28.42c-1.45,5.36-2.74,10.75-4.08,16.14a10.46,10.46,0,0,0-.46,4.15,9.93,9.93,0,0,0,2.67,4.67,92.84,92.84,0,0,0,9.56,9.55,6.63,6.63,0,0,0,2.72,1.64,6.87,6.87,0,0,0,2.91-.18,3.22,3.22,0,0,0,1.52-.6,3.19,3.19,0,0,0,.8-2.12c.76-6.85.73-13.76.92-20.66.06-2.31.14-4.71-.8-6.83a9.74,9.74,0,0,0-4.9-4.67c-3.53-1.64-7-3.32-11.1-4.13" fill="#42210b"/><path d="M224.61,47.76c-1.93-1-2.94-3-4.7-4.21l-.11-.08-.15,0a1.19,1.19,0,0,0-1.33,1.73,4.9,4.9,0,0,0,2.13,2.05,1.09,1.09,0,0,0,.7.53,23.49,23.49,0,0,1,3.16,1.09,1.22,1.22,0,0,0,1.61-.42,1.28,1.28,0,0,0,.12-.9A1.12,1.12,0,0,1,224.61,47.76Z" fill="#ffc4b0"/><path d="M224.71,51.23v0c-.69-1.61-1.28-3.25-1.93-4.87-.41-.41-.8-.85-1.2-1.28a1.12,1.12,0,0,0-.27,0,1.09,1.09,0,0,0-1,1.43l.15.38a1.23,1.23,0,0,0,0,.93q.73,1.57,1.48,3.14a5.92,5.92,0,0,0,.7,1.46l.3.63c.66,1.36,2.69.17,2-1.19Z" fill="#ffc4b0"/><path d="M238.56,28.75l-.21.33a14,14,0,0,1-1,1.75q-.56,2.1-1.16,4.19c-.78,2.71-.74,5.83-2.27,8.28-1.85,3-5.86,2.47-8.67,1.36-.73-.29-1.48-.66-2.24-1h0c-.29,4-.36,8.26,1.21,12a28.23,28.23,0,0,0,10.34,1.6c4.07-.15,9.61-1.38,11.14-5.7Z" fill="#5780f6"/><path d="M238.12,36.27c-.68,5.4,0,11.15-2.25,16.25A18,18,0,0,1,233,57l-.2.22c4.82-.11,6.65-.81,6.65-.81l-.76-23.8c-.15.43-.45,1.43-.85,2.8A.91.91,0,0,1,238.12,36.27Z" fill="#42210b"/><polygon points="210.58 44.25 218.3 55.17 223.96 55.58 216.27 43.98 210.58 44.25" fill="#2d2d2d"/><polygon points="212.78 42.25 218.13 42.81 226.53 54.55 223.96 55.58 217.12 46.09 210.58 44.25 212.78 42.25" fill="#606060"/><path d="M218.6,52.28h-.4a1.19,1.19,0,0,0-.91-1.92h-.93a1.21,1.21,0,0,0,.19-1.45c-.5-.78-2.55-.85-3,0a1.19,1.19,0,0,0,.42,1.61l.28.12a1.2,1.2,0,0,0,.78,2.06h.17a1.17,1.17,0,0,0,1,1.84,16.51,16.51,0,0,0,2.44.06,1.2,1.2,0,0,0,1.18-1.18A1.19,1.19,0,0,0,218.6,52.28Z" fill="#ffc4b0"/><path d="M231.72,138.83a35.84,35.84,0,0,1,.27,9.35c-.1.67-.19,1.4-.33,2.13l7.91-1.33V138.83Z" fill="#ffc4b0"/><path d="M231.77,144.15c-.5,2.8-2,6.73-3.47,8.09-1.81,1.68-12,7.1-7.76,10,3.17,2.12,20.16-6.39,20.6-8.68.32-1.67-.58-6.87-1.1-9.56C237.61,145.44,234.47,145.18,231.77,144.15Z" fill="#42210b"/><path d="M242.05,139.23c.49-9,1.78-25.49,2-26.32.27-1.15,4.7-18.33,4.7-18.33-1.25-5.78-2.32-11.6-3.08-17.46C244.3,77,247.34,61.32,246,61c-2.75-.58-5.28-4.37-7.84-5.57-2.61,14.78-11.07,58.31-13,81.53C227.06,141.07,235.92,141.71,242.05,139.23Z" fill="#9fb8b7"/><path d="M267.66,125.57c2,2.21,4.22,7.28,5.61,9.82.3.55.64,1.14.94,1.74l5.16-4.23-5.18-11.58Z" fill="#ffc4b0"/><path d="M277.62,128.54a6.39,6.39,0,0,1-6.14,3.05c.23,1.76,1,5.09.2,6.29-1.15,1.76-9.47,9-5.09,10.8,3.25,1.32,14.78-8.86,14.6-10.92C281.08,136.31,278.63,130.83,277.62,128.54Z" fill="#42210b"/><path d="M264.1,132.16a.39.39,0,0,0,.47.14,36.82,36.82,0,0,0,7.68-4.09c2.37-1.86,3.45-3.87,5.38-6.38l-1-1.67c-4.52-9.15-13.48-39.77-13.91-41.88-.51-2.49-2.58-24.8-2.58-24.8l-20.41-3.7s.71,19.48,2.32,36.78a83,83,0,0,0,2.83,8.94c4.57,12.06,10.43,26.44,19.22,36.66Z" fill="#9fb8b7"/><path d="M260.68,81.55a39.8,39.8,0,0,0-.73-5.4,40.46,40.46,0,0,0-.47-6.2,59.94,59.94,0,0,0-6.71.1c0,1.11,0,2.23-.07,3.34q-.38,1.22-.68,2.47a1.1,1.1,0,0,0-.32.43A20.32,20.32,0,0,0,249.75,83a1.2,1.2,0,0,0,2.22.59q.51-1.12,1-2.27,0,1.56,0,3.12a1.22,1.22,0,0,0,1.2,1.18,1.45,1.45,0,0,0,1.42-.82,1.41,1.41,0,0,0,1.64.49,2,2,0,0,0,1-1.17,1.55,1.55,0,0,0,1.41,0C260.64,83.6,260.74,82.53,260.68,81.55Z" fill="#ffc4b0"/><path d="M257.92,34.92c-1.93-4.19-9-7.43-11.73-8.58-.84,0-1.7.07-2.55.17l-1.06.2-.78.14a10.1,10.1,0,0,0-1.14.37q-.78.43-1.53.93a.46.46,0,0,1-.28.08,6.05,6.05,0,0,0-1.18,1.19.57.57,0,0,1-.12.12,14.2,14.2,0,0,0-.45,3.33,97.41,97.41,0,0,0,.16,9.74c.25,4.29.64,8.58.9,12.87l.44,2.06c4.41,3.54,12.08,4.6,12.72,4.48s0,6-.42,10.36a43.58,43.58,0,0,0,4.74.94h0c1.14.16,2.29.27,3.44.32.69,0,1.39,0,2.09,0C264.28,55.39,260.35,40.18,257.92,34.92Z" fill="#5780f6"/><path d="M243.66,29.61a4.66,4.66,0,0,0,2.2.64c2.48.13,3.95-2.49,4.9-4.39a16.83,16.83,0,0,0,2-7.19,3.81,3.81,0,0,0-.15-1.21c-.94-2.84-11.13-5-11.7.65C240.61,21.44,240.34,27.6,243.66,29.61Z" fill="#ffc4b0"/><path d="M251.6,21.74a2.48,2.48,0,0,0-1.9.73,3.2,3.2,0,0,0-1,1.9.67.67,0,0,0,.35.75.87.87,0,0,0,1.25.27,7.06,7.06,0,0,0,1.78-1.65C252.53,23.07,252.6,21.92,251.6,21.74Z" fill="#ffc4b0"/><path d="M255.36,14.85a4.28,4.28,0,0,0-1.92-3,4.71,4.71,0,0,0-3.91-.58,4.26,4.26,0,0,0-2.18-1.82,4.35,4.35,0,0,0-4.7,1.42,6.44,6.44,0,0,0-4.13,1,5.06,5.06,0,0,0-2.12,3.93,3.1,3.1,0,0,0,0,.68,3.82,3.82,0,0,0,0,1.21,4.54,4.54,0,0,0,4.4,3.6c-.23-1.5,0-4.4,1.74-3.64a.67.67,0,0,1,.28.07c1.09.52.18,2,1.77,2.23s2.48-1,3.93.43-1.73,3,1.64,5.61a5.45,5.45,0,0,0,.07.56c0-.22,1.33-1.45,1.53-1.67.54-.63,1.07-1.29,1.56-2a12.87,12.87,0,0,0,2.1-3.69A9.23,9.23,0,0,0,255.36,14.85Z" fill="#333"/><path d="M251.28,23.71c.15-1-.61-1.55-1.4-1.13a4.05,4.05,0,0,0-2,3.32.94.94,0,0,0,.27.73.9.9,0,0,0,.14.2.91.91,0,0,0,1.36-.07A5.29,5.29,0,0,0,251.28,23.71Z" fill="#ffc4b0"/><path d="M242.58,22.36c-.32-.06-3.34-1.16-3.34-1.16s-.11,3,1.48,3.69S242.58,22.36,242.58,22.36Z" fill="none" stroke="#333" stroke-miterlimit="10" stroke-width="0.75"/><path d="M244.16,22.86l3.53,1.21s0,3-2.31,2.49S244.16,22.86,244.16,22.86Z" fill="none" stroke="#333" stroke-miterlimit="10" stroke-width="0.75"/><path d="M249.31,22.45l-1.67,1.47c-.21.19.1.49.31.3l1.67-1.47C249.84,22.57,249.52,22.27,249.31,22.45Z" fill="#333"/><path d="M242.9,26.54c-.27,0-.67-.11-.67-.44a2.07,2.07,0,0,1,.24-.59c.16-.37.35-.73.54-1.09a.22.22,0,0,0-.38-.21c-.19.36-.38.72-.54,1.09a2.51,2.51,0,0,0-.33.92c0,.52.74.72,1.14.75S243.18,26.56,242.9,26.54Z" fill="#333"/><path d="M244.3,22.68a15.57,15.57,0,0,1-1.86-.51c-.26-.09-.37.33-.1.42a15.57,15.57,0,0,0,1.86.51C244.47,23.16,244.57,22.73,244.3,22.68Z" fill="#333"/><path d="M247.05,101.12s-3.41-12-5.33-18.16l1.71,36.42S245.37,105.85,247.05,101.12Z" fill="#42210b"/><path d="M255.24,31.59s-6.61,3.07-2.85,23.06c0,0-5.94-10.2-5.61-16.3s3.1-9.71,4.52-10.09S256,30.19,255.24,31.59Z" fill="#42210b"/><path d="M237.32,30c-1.25,5.05,0,10.17-.06,13.11a41.31,41.31,0,0,1,1-9.31c.6-2.3,1.38-5.32,3.43-6.77l0,0S237.94,27.47,237.32,30Z" fill="#5780f6"/><path d="M209.69,38.76c1.19-1.95,3.49-2,5.35-1.05.85.45,1.61-.84.76-1.3C213.2,35,210,35.34,208.39,38c-.5.83.79,1.58,1.3.76Z" fill="#f7931e"/><path d="M207.7,37c.65-3.41,5.74-3.89,8-1.87.72.64,1.79-.42,1.06-1.06-3.06-2.7-9.66-2.05-10.54,2.54-.18.94,1.27,1.35,1.45.4Z" fill="#f7931e"/><path d="M183.51,80.76a6.93,6.93,0,0,0-6.31-1.18C169.12,81.84,169,93.19,169,93.19s-2.93-2.16-7.19.76c-5.29,3.63-4.14,13-4.14,13l1.66,1,30.88-18.25S188.23,82.72,183.51,80.76Z" fill="#9fb8b7"/><path d="M183.51,80.76a6.93,6.93,0,0,0-6.31-1.18C169.12,81.84,169,93.19,169,93.19s-2.93-2.16-7.19.76c-5.29,3.63-4.14,13-4.14,13l1.66,1,30.88-18.25S188.23,82.72,183.51,80.76Z" opacity="0.1"/><path d="M159.36,107.88l30.88-18.25s-3.29-11.36-11.37-9.09-8.19,13.61-8.19,13.61-2.93-2.16-7.19.76C158.2,98.53,159.36,107.88,159.36,107.88Z" fill="#9fb8b7"/><path d="M71.88,96.3A13.48,13.48,0,0,0,59.59,94c-15.72,4.41-15.93,26.48-15.93,26.48s-5.71-4.21-14,1.48c-10.29,7.05-8,25.24-8,25.24l3.24,1.88,60.09-35.52S81.05,100.12,71.88,96.3Z" fill="#9fb8b7"/><path d="M71.88,96.3A13.48,13.48,0,0,0,59.59,94c-15.72,4.41-15.93,26.48-15.93,26.48s-5.71-4.21-14,1.48c-10.29,7.05-8,25.24-8,25.24l3.24,1.88,60.09-35.52S81.05,100.12,71.88,96.3Z" opacity="0.1"/><path d="M24.87,149.08,85,113.56s-6.4-22.1-22.12-17.69-15.93,26.48-15.93,26.48-5.71-4.21-14,1.48C22.62,130.89,24.87,149.08,24.87,149.08Z" fill="#9fb8b7"/></svg>