<svg id="Layer_1" data-name="Layer 1" xmlns="http://www.w3.org/2000/svg" xmlns:xlink="http://www.w3.org/1999/xlink" viewBox="0 0 400 300"><defs><linearGradient id="linear-gradient" x1="194.86" y1="162.67" x2="190.15" y2="12.95" gradientUnits="userSpaceOnUse"><stop offset="0" stop-color="#4d4d4d" stop-opacity="0"/><stop offset="0.41" stop-color="#344b51" stop-opacity="0.41"/><stop offset="0.98" stop-color="#114956"/></linearGradient><linearGradient id="linear-gradient-2" x1="145.01" y1="222.47" x2="213.04" y2="149.2" gradientUnits="userSpaceOnUse"><stop offset="0" stop-color="gray" stop-opacity="0"/><stop offset="1" stop-color="#0071bc"/></linearGradient><linearGradient id="linear-gradient-3" x1="170.79" y1="197.83" x2="202.9" y2="147.62" xlink:href="#linear-gradient-2"/></defs><title>#31-40</title><path d="M112.16,174.68l-26,15.52a4.75,4.75,0,0,0,.06,8.2l112.62,65a12.73,12.73,0,0,0,12.73,0l119.28-68.87a6.3,6.3,0,0,0,0-10.91l-116-66.95" fill="#01b1c8"/><path d="M270.12,65.87c2-5.05.19-11.12-4.37-14.75-5-4-14.48-5.55-20.56-2.39a15.13,15.13,0,0,0-8-11.87C229.8,33,221.4,34.93,215,39.71l0,0c.07-4.6-1.76-8.77-7.34-10-7.1-1.58-14.78,1.93-19.78,6.85a10.58,10.58,0,0,0-1.81-4.38c-2.38-3.17-6.86-4.53-10.64-4.91-4-.4-8.4.37-11.56,3-2.41,2-3.91,5.06-5.2,8.09-1.39,2.71-2.33,5.25-4.21,6-4.74,1.86-3.68-4-14.38,4.13S133.15,62,123.15,70.38s-11.05,27.42-11,27.83L232,100.39a37.44,37.44,0,0,1,10.9-22.73l14.8,7.18s-4.37,16.51,7.44,18.91,14.73-2.07,17.08-21.57C283.62,70.89,276.42,67.08,270.12,65.87Zm-17.18,4.81-6.81,4.17A32.94,32.94,0,0,1,252.94,70.68Z" fill="#60eaea"/><path d="M268.93,162.14c-20.15-7.76-26.41-40.2-25.18-53.08S256,83.8,265.18,88.16s0,15.57,0,15.59c4.48-5.47,7.61-11.75,4.89-18.85-2.44-6.38-8-10.4-14.62-11.71-1.14-.22-13.9-2.6-13.29-3.58,0,0-14.1,23-13.67,49.19,1.7,11.39,3.55,20.14,3.55,20.14a61.83,61.83,0,0,1-3.55-20.14c-2.28-15.28-4.26-35.32-1.09-45.4a28.13,28.13,0,0,1-16.21,4.87S189.54,87.32,195,112.52A60.16,60.16,0,0,1,191,66.82c-8.7-3.17-13.31,5.8-19.55,11.46A54.41,54.41,0,0,0,165,120.93c8.27,32.79,20.68,38.54,20.68,38.54s-38.82-12.14-41.15-38.54A140,140,0,0,1,148.57,74c-1.06-1.07-2.13-2.16-3.22-3.21-10.86,11.35-41,51.92-6.85,126.24,0,0-30.44-22.57-34.22-64.79a73.34,73.34,0,0,1,1.08-20.45c-7.45,35.45,2.23,68.3,29.54,98.31,34.06,37.43,117.65,22.45,117.65,22.45C302.4,227.41,289.08,169.9,268.93,162.14Z" fill="#01b1c8"/><path d="M114,85.06a146,146,0,0,0-6.78,19.08c5.45-18.48,16.52-32.84,23.15-40.24C125.44,65.26,120.06,71.12,114,85.06Z" fill="#01b1c8"/><path d="M105.37,111.83q.8-3.82,1.88-7.69C106.51,106.63,105.87,109.2,105.37,111.83Z" fill="#008caf"/><path d="M104.28,132.28c3.78,42.22,34.22,64.79,34.22,64.79-34.17-74.32-4-114.89,6.85-126.24-4.7-4.57-9.58-8.4-15-6.93-6.63,7.4-17.69,21.76-23.15,40.24q-1.07,3.86-1.88,7.69A73.34,73.34,0,0,0,104.28,132.28Z" fill="#008caf"/><path d="M144.5,120.93c2.32,26.4,41.15,38.54,41.15,38.54s-12.42-5.75-20.68-38.54a54.41,54.41,0,0,1,6.51-42.64c-3,2.74-6.42,4.71-10.86,4.15-4.06-.51-8-4.32-12-8.39A140,140,0,0,0,144.5,120.93Z" fill="#008caf"/><path d="M195,112.52c-5.43-25.19,16.21-34.26,16.21-34.26-18.52,0-4.87-4.14-18.85-10.88a14.15,14.15,0,0,0-1.31-.55A60.16,60.16,0,0,0,195,112.52Z" fill="#008caf"/><path d="M228.48,118.79c-.42-26.18,13.67-49.19,13.67-49.19-5.94-3.49-9.22.2-14.77,3.79C224.22,83.47,226.21,103.51,228.48,118.79Z" fill="#008caf"/><path d="M228.48,118.79A61.83,61.83,0,0,0,232,138.93S230.18,130.18,228.48,118.79Z" fill="#008caf"/><path d="M268.93,162.14c-20.15-7.76-26.41-40.2-25.18-53.08S256,83.8,265.18,88.16s0,15.57,0,15.59c4.48-5.47,7.61-11.75,4.89-18.85-2.44-6.38-8-10.4-14.62-11.71-1.14-.22-13.9-2.6-13.29-3.58,0,0-14.1,23-13.67,49.19,1.7,11.39,3.55,20.14,3.55,20.14a61.83,61.83,0,0,1-3.55-20.14c-2.28-15.28-4.26-35.32-1.09-45.4a28.13,28.13,0,0,1-16.21,4.87S189.54,87.32,195,112.52A60.16,60.16,0,0,1,191,66.82c-8.7-3.17-13.31,5.8-19.55,11.46A54.41,54.41,0,0,0,165,120.93c8.27,32.79,20.68,38.54,20.68,38.54s-38.82-12.14-41.15-38.54A140,140,0,0,1,148.57,74c-1.06-1.07-2.13-2.16-3.22-3.21-10.86,11.35-41,51.92-6.85,126.24,0,0-30.44-22.57-34.22-64.79a73.34,73.34,0,0,1,1.08-20.45c-7.45,35.45,2.23,68.3,29.54,98.31,34.06,37.43,117.65,22.45,117.65,22.45C302.4,227.41,289.08,169.9,268.93,162.14Z" fill="url(#linear-gradient)"/><path d="M269.32,230.06c-2.16.32-61.81-13.93-98.73-47.49,0,0,26.25,35.11,48.37,42.76C255.44,238,269.32,230.06,269.32,230.06Z" fill="#60eaea"/><path d="M282.82,222.27c4.57-2.79,3.3-1.9,12.33-7.12-9.57-1.92-47.7-8.43-85.19-44.8,0,0,6.88,38.3,65.3,56.12Z" fill="#60eaea"/><path d="M326.23,197.13s-58.69-12.42-80.41-34.2c0,0,30.06,33.37,62.18,44.72" fill="#60eaea"/><path d="M170.59,182.58S187.26,235,238,248.17c0,0,19.4-11,30.68-17.68,0,0-35.17-2.82-49.68-13.37" fill="#60eaea"/><path d="M102.93,95S90,75.34,97.62,74.61,97.46,85.7,102.93,95Z" fill="#01b1c8"/><path d="M108.27,76.31a24.08,24.08,0,0,1,6.58-9.23c4-3.5,8.74-5.68,11.44-9.7a4.34,4.34,0,0,0-.33-1.87A4.87,4.87,0,0,0,119.8,53a9.1,9.1,0,0,0-3.53,2.38c-3.17-1.62,9.55-11.1.81-14.48-8.58-3.32-10.26,13.08-10.21,23.37a55.91,55.91,0,0,0,.39,7.07C107.36,72,107.91,74.29,108.27,76.31Z" fill="#01b1c8"/><path d="M158,239.86,234,178.26l-93,13.36-33.07,19.28C114.18,214.75,151.8,235.85,158,239.86Z" fill="url(#linear-gradient-2)"/><path d="M252.93,149.62l-2.53,13.31s-38.47,37.6-55.43,44.72-46.3,13.8-49.22,11.73-3.1-6.93-3.1-6.93" fill="#008caf"/><path d="M252.93,149.62l-17.52-10.54c-20.17,8.24-40.24,16.92-59.76,26.61C159,174,146,183.11,139.5,201.16c-1.11,3.09-4.06,10.17-1.44,13.23,3.33,3.88,38.09-.32,59.15-15.56S252.93,149.62,252.93,149.62Z" fill="#b6cc99"/><path d="M252.93,149.62l-17.52-10.54c-20.17,8.24-40.24,16.92-59.76,26.61C159,174,146,183.11,139.5,201.16c-1.11,3.09-4.06,10.17-1.44,13.23,3.33,3.88,38.09-.32,59.15-15.56S252.93,149.62,252.93,149.62Z" fill="#41311a" opacity="0.41"/><path d="M252.93,146.39l-17.52-10.54c-20.17,8.24-40.24,16.92-59.76,26.61C159,170.72,146,179.88,139.5,197.93c-1.11,3.09-4.06,10.17-1.44,13.23,3.33,3.88,38.09-.32,59.15-15.56S252.93,146.39,252.93,146.39Z" fill="#b6cc99"/><path d="M226,139.08s-13,18.24-2.85,35.1l-7,6.17s-5.2-25.39,5.75-38.89Z" fill="#fffcff"/><path d="M175.65,162.46l-16.42,48.44,12.91-3.28s9-31.62,9.83-48.26Z" fill="#fffcff"/><path d="M161.16,207.65,212,170.73l-12.25-6.87L145.36,200.3C151.68,204.14,155,203.64,161.16,207.65Z" fill="url(#linear-gradient-3)"/><path d="M175.81,118.19s-6.47,4.64-4.43,12.57,10.2,17,10.2,17-4.7,8.16-5.3,11.78-2.18,15.86-2.18,15.86,3.58,1.59,6-.91c0,0,10.79-20.85,11.47-25.61s-6.1-15.64-6.1-15.64,10.18,7.25,12.22,8.16-1.59,19,0,19.94,5.89,2.49,7.71.45,3.63-23.34,1.36-26.06-17.19-17.17-17.19-17.17" fill="#41311a"/><path d="M185.43,95a50.83,50.83,0,0,0-11.8,3.29c-5,2.31-13,6.67-12.44,10.26s6.93,10.78,6.93,10.78l4.36-1.15-3-8.6s7.31-4.32,7.7-2.42-4.4,14.34-4.4,14.34,11.33-1.4,16.72-2.94c0,0,4.07-14.5,5.88-15.14a17,17,0,0,1,11.05.26c4.62,1.8,17.32,4.75,17.32,4.75l1-4s-9.75-4.38-18.86-8a38.62,38.62,0,0,0-17.82-2.3" fill="#b6cc99"/><path d="M180.94,90.13a5.24,5.24,0,0,1,0-5.67c1.92-2.87,5.83-2.31,6.71-2.07s6.22,3.11,5.75,6.46-4.66,6.75-4.66,6.75" fill="#41311a"/><path d="M180.54,87.42c-.22-.72.8,10.21,6,9.42A5.18,5.18,0,0,0,190,93.72s1-2.63,0-3.11-1.2.64-1.2.64-.16-2.07-1.52-2.39S181.26,89.73,180.54,87.42Z" fill="#f8c6af"/><path d="M187.65,82.39s-1-3.75,0-3.91,1.68,2.87,1.68,2.87,1.52-4.23,2.79-4.07,0,4.31,0,4.31,2.39-4,3.43-3.59-1.12,3.67-1.12,3.67,4.63.64,4.39,1.36-3.35.64-3.35.64,2.79,1.68,2.47,2.63-2.63-.32-2.87-.88,2,2.64,1.12,3.47-2.23-2-2.23-2,.88,2.79.16,3.43S192.19,88,192.19,88" fill="#41311a"/><path d="M179.17,174.49s3.18,4.54,5.51,6.22,2.72,1.56,1.81,2.85-5.31,1.94-7.13.65-5.83-4.8-5.7-6,.71-5.05.71-5.05" fill="#f8c6af"/><path d="M203.33,162.27s3.18,4.54,5.51,6.22,2.72,1.56,1.81,2.85-5.31,1.94-7.13.65-5.83-4.8-5.7-6,.71-5.05.71-5.05" fill="#f8c6af"/><path d="M168.11,119.35s-1.79,3.87-1.58,6.6,3.56,3.89,4.56,3.36,1.21-4.92,1.21-4.92.52,2.81,1.36,2.18-1.18-8.38-1.18-8.38" fill="#f8c6af"/><path d="M224.82,104.47s3.27.65,4.73,0a29.85,29.85,0,0,1,7.44-1.59c2.52-.18,2.28,1.68.91,1.69s-4.58.73-5.11,1.77-1.78,3.15-4.19,3.15-6-1.73-6-1.73" fill="#f8c6af"/></svg>