<svg id="Layer_1" data-name="Layer 1" xmlns="http://www.w3.org/2000/svg" xmlns:xlink="http://www.w3.org/1999/xlink" viewBox="0 0 400 300"><defs><linearGradient id="linear-gradient" x1="133.11" y1="226.67" x2="269.55" y2="90.23" gradientUnits="userSpaceOnUse"><stop offset="0" stop-opacity="0"/><stop offset="0.99" stop-color="#006837"/></linearGradient><linearGradient id="linear-gradient-2" x1="293.89" y1="144.52" x2="338.6" y2="99.8" gradientUnits="userSpaceOnUse"><stop offset="0" stop-opacity="0"/><stop offset="1" stop-color="#f15a24"/></linearGradient></defs><title>1</title><path d="M35.88,187.18c26.89,15.2,91.92,53.68,118.06,69.19a22,22,0,0,0,22.37.07L362.08,147.82a7.5,7.5,0,0,0-.07-13L243.3,67.16a18.91,18.91,0,0,0-18.69,0l-188.73,107A7.5,7.5,0,0,0,35.88,187.18Z" fill="#2fb7b3"/><polyline points="161.19 170.68 85.55 212.58 130.5 239.48 249.56 171.87" fill="url(#linear-gradient)"/><path d="M285.86,134.32s1.37,9.61,0,12.37-61.65,44.65-89.63,51.88-52.35,3.71-56.17.19,6.16-23.3,23.78-21.48" fill="#218782"/><path d="M110.88,178.29a.94.94,0,0,0,.94.27c.5-.2,3.23-1.77,4.14-3.73a1.27,1.27,0,0,0-.84-1.35" fill="#218782"/><path d="M104.36,178.3a9.08,9.08,0,0,1,11.78-8s1-3.28,1.85-2.8,1.28,4.13.62,4.61-2,.1-2,.1a12.48,12.48,0,0,1-3.61,5C110.54,179,105.69,180.82,104.36,178.3Z" fill="#218782"/><path d="M106.9,172.67a4.15,4.15,0,0,1,1.72-2.56c1.46-1.09,5.32-1.84,6-1.5s.7,1.46.7,1.46S110.32,169.83,106.9,172.67Z" fill="#218782"/><path d="M111.1,174.86c.19,0,1.86-.13,1.94.18s-1.43,1.45-1.94,1.53S111.1,174.86,111.1,174.86Z" fill="#218782"/><circle cx="107.26" cy="175.75" r="0.37" fill="#218782"/><path d="M130.5,184.42s-7.5-10.54,10.75-28.1,96.92-61,115.26-63.58,30.6,1.64,34.37,11.26" fill="#68e1fd"/><path d="M130.5,184.42a52.28,52.28,0,0,0,37.56,9.3c22.45-3,44.68-8.81,65.19-21.88s52.62-37.52,52.62-37.52A50.62,50.62,0,0,0,292,110.59c.14-13.93-12.48-17.83-24.18-15.88" fill="#68e1fd"/><path d="M150.86,167s68.48-41,90.77-45.92,19.52,15.53,19.52,15.53-59,37.82-85.2,42S150.86,167,150.86,167Z" fill="#fbb03b"/><polyline points="160.69 147.52 160.69 149.84 198.93 171.87 212.25 165.49 212.98 163.77" fill="#603912"/><polygon points="160.69 147.52 199.79 169.88 212.98 163.77 172.42 139.95 160.69 147.52" fill="#249aa6"/><polyline points="207.07 121.93 207.07 124.25 245.31 146.27 258.63 139.89 259.36 138.18" fill="#603912"/><polygon points="207.07 121.93 246.17 144.29 259.36 138.18 218.8 114.36 207.07 121.93" fill="#249aa6"/><path d="M238,103.32l37,21.17,15.68-14.9s2.22-9.15-8.23-14.64S247.42,95,238,103.32Z" fill="#68e1fd"/><polygon points="238.02 103.32 238.02 122.92 261.15 136.64 275 124.48 238.02 103.32" fill="#68e1fd"/><path d="M238,103.32l37,21.17,15.68-14.9s2.22-9.15-8.23-14.64S247.42,95,238,103.32Z" opacity="0.29"/><polygon points="238.02 103.32 238.02 122.92 261.15 136.64 275 124.48 238.02 103.32" opacity="0.61"/><path d="M87.7,181.88a1.25,1.25,0,0,0,1.26.36c.67-.27,4.3-2.36,5.5-5a1.69,1.69,0,0,0-1.12-1.8" fill="#218782"/><path d="M79,181.89a12.64,12.64,0,0,1,5.18-9.1c4.74-3.47,10.49-1.58,10.49-1.58s1.39-4.36,2.46-3.73,1.71,5.5.82,6.13-2.72.13-2.72.13a16.59,16.59,0,0,1-4.8,6.7C87.25,182.83,80.81,185.24,79,181.89Z" fill="#218782"/><path d="M82.42,174.4A5.52,5.52,0,0,1,84.7,171c1.94-1.44,7.07-2.44,8-2s.94,1.95.94,1.95S87,170.63,82.42,174.4Z" fill="#218782"/><path d="M88,177.31c.25,0,2.47-.17,2.58.23s-1.91,1.92-2.58,2S88,177.31,88,177.31Z" fill="#218782"/><circle cx="82.89" cy="178.5" r="0.49" fill="#218782"/><path d="M100.24,158.58a.94.94,0,0,0,.94.27c.5-.2,3.23-1.77,4.14-3.73a1.27,1.27,0,0,0-.84-1.35" fill="#218782"/><path d="M93.72,158.59a9.08,9.08,0,0,1,11.78-8s1-3.28,1.85-2.8,1.28,4.13.62,4.61-2,.1-2,.1a12.48,12.48,0,0,1-3.61,5C99.9,159.3,95.05,161.11,93.72,158.59Z" fill="#218782"/><path d="M96.26,153A4.15,4.15,0,0,1,98,150.39c1.46-1.09,5.32-1.84,6-1.5s.7,1.46.7,1.46S99.68,150.12,96.26,153Z" fill="#218782"/><path d="M100.46,155.15c.19,0,1.86-.13,1.94.18s-1.43,1.45-1.94,1.53S100.46,155.15,100.46,155.15Z" fill="#218782"/><circle cx="96.62" cy="156.04" r="0.37" fill="#218782"/><path d="M307.56,151.89a1.41,1.41,0,0,0,1.42.4c.76-.3,4.86-2.66,6.23-5.61a1.91,1.91,0,0,0-1.27-2" fill="#218782"/><path d="M297.76,151.9c-.14-.26.5-6.36,5.86-10.29s11.86-1.79,11.86-1.79,1.57-4.93,2.79-4.22,1.93,6.22.93,6.93-3.07.14-3.07.14-1.79,4.86-5.43,7.58S299.76,155.69,297.76,151.9Z" fill="#218782"/><path d="M301.58,143.43a6.24,6.24,0,0,1,2.58-3.85c2.2-1.63,8-2.76,9-2.25s1.06,2.2,1.06,2.2S306.72,139.17,301.58,143.43Z" fill="#218782"/><path d="M307.9,146.73c.29,0,2.79-.2,2.92.26s-2.16,2.18-2.92,2.31S307.9,146.73,307.9,146.73Z" fill="#218782"/><circle cx="302.11" cy="148.07" r="0.55" fill="#218782"/><path d="M149.14,119.81a2.42,2.42,0,0,0,2.08.65c1.52-18.55-15-19.48-15-19.48C149.18,105.45,149.44,116.24,149.14,119.81Z" fill="#009245"/><path d="M151.81,123.41c-1.07-.34,0-25.47,0-25.47L154,123.41S153.78,124,151.81,123.41Z" fill="#009245"/><path d="M153.25,122.63c.16-.63-1.42-16.49,9-20.34A33.51,33.51,0,0,0,155,122.63" fill="#009245"/><polyline points="177.19 129.32 172.8 152.79 179.91 151.47" fill="#e8ac70"/><path d="M195.43,149.91s2.66,9.28-1.7,12.67-11,3.75-11.86,5.44-2.22,9.93-2.22,9.93l-9.73,2s2-13.68,4.08-16.91a9.39,9.39,0,0,1,5.9-3.83s-7.1,1.25-8.43,3.83-2.18,10.2-2.18,10.2-6.29,1.69-8.11-2.54c0,0,2.3-14.52,4.72-16.57s12.8-5.08,12.8-5.08" fill="#8acc21"/><path d="M187.52,123.65c1.29.93,6.87,2.2,9.31,6.85s3.66,17-.13,19.37C194,151.51,185,147.36,185,147.36l2.49-6.32,5.9,1.87" fill="#527c00"/><path d="M183.94,123.65s-5.11-1.08-6,1-4.41,12-3.83,14.53,5.84,8.79,5.84,8.79l2.52-3.45-2.52-3.9,1.92-9.22" fill="#527c00"/><path d="M194.93,148s1.94,6.16,0,6.76-16.3-2.53-17.2-4.85-1.79-11.16-.6-14.22,5.29-15.9,8.15-14.58S193.73,134,193.73,134Z" fill="#527c00"/><path d="M179.93,115.91c-.19.48.93,8.47,2.79,8.72s5.84-.76,6.18-2.46.59-6.52-1.27-7.37S181.11,112.86,179.93,115.91Z" fill="#e8ac70"/><path d="M178.91,113.54s-.27,3.3,1.09,3.73,2.21-1.78,4.07-1.19,1.1,2.85,2.46,3.21.85,3.4,1.61,3.15,2.62-1.95,3.39-4.83-1.44-6.86-4.74-6.94S179.42,111.51,178.91,113.54Z" fill="#42210b"/><path d="M184.52,144.78S151,106.07,132.73,112.37l-.51-.69s10.26-4.92,29.58,9.34,23.48,22,23.48,22Z" fill="#42210b"/><path d="M190.06,143.14l-8.64-6.19-3.07-4.59s-4.42-1.62-4.35-1.56l2.64,2.41s-3-.83-3.65-.3.32,3.22,2,4.06a9.43,9.43,0,0,0,3.11,1l3.11,4.48s3.87,5.18,5.62,5.12S190.06,143.14,190.06,143.14Z" fill="#e8ac70"/><path d="M132.73,112.37s-18.1,3.4-17.42,40v51.7" fill="none" stroke="#f2f2f2" stroke-miterlimit="10"/><g opacity="0.68"><path d="M112.34,206.75c-2.7-.48-4.41-1.57-4.41-2.58,0-.77,1-1.59,2.68-2.15q-.23-.45-.43-.92c-2,.69-3.25,1.78-3.25,3.07,0,1.65,2.05,3,5.11,3.55Q112.18,207.23,112.34,206.75Z" fill="#f2f2f2"/><path d="M121.34,201.48c-.22.28-.46.54-.69.8,1.27.54,2,1.23,2,1.9s-.73,1.35-2,1.88a6.1,6.1,0,0,0,.53.88c1.53-.69,2.45-1.65,2.45-2.76S122.79,202.16,121.34,201.48Z" fill="#f2f2f2"/></g><g opacity="0.68"><path d="M132.09,198.76l-1,.59c3.2,1.6,5.16,3.69,5.16,6,0,3.94-5.78,7.3-13.82,8.57.06.33.12.66.2,1,8.6-1.36,14.62-5.07,14.62-9.56C137.23,202.8,135.3,200.52,132.09,198.76Z" fill="#f2f2f2"/><path d="M99.07,211.09c-2.93-1.57-4.7-3.57-4.7-5.75s2-4.39,5.19-6l-.68-.77c-3.43,1.78-5.51,4.14-5.51,6.76,0,2.45,1.8,4.67,4.83,6.41C98.49,211.53,98.79,211.32,99.07,211.09Z" fill="#f2f2f2"/></g><path d="M178.61,115.25l-2,2a27.24,27.24,0,0,0,16.79.58l-1.1-2.57" fill="#ffb56c"/><path d="M180,110.63s-1.69,4.5-1.37,4.62a19.39,19.39,0,0,0,13.71,0l-1.38-4.09S184.51,112.61,180,110.63Z" fill="#f6982c"/><ellipse cx="185.38" cy="111.16" rx="5.56" ry="2.23" fill="#ffb56c"/><path d="M132.22,182.82s-5.85-8,9.3-23.91l34.42,19.78S140,186.62,132.22,182.82Z" fill="#68e1fd"/><path d="M132.22,182.82s-5.85-8,9.3-23.91l34.42,19.78S140,186.62,132.22,182.82Z" opacity="0.29"/><path d="M326.28,127.46c.1-.36.22-.72.33-1.08a22.67,22.67,0,0,0-3.5-4.23.73.73,0,0,1-.27-.58l-2.6-1.23-39.4,21.34,7.42,8.17L326.32,128A.74.74,0,0,1,326.28,127.46Z" opacity="0.52" fill="url(#linear-gradient-2)"/><path d="M318.64,121.86a3.74,3.74,0,0,0,3.21,1c2.34-28.62-23.18-30.05-23.18-30.05C318.7,99.7,319.09,116.36,318.64,121.86Z" fill="#009245"/><path d="M322.75,127.41c-1.65-.52,0-39.29,0-39.29l3.42,39.29S325.8,128.37,322.75,127.41Z" fill="#009245"/><path d="M325,126.2c.24-1-2.2-25.44,13.91-31.39a51.7,51.7,0,0,0-11.23,31.39" fill="#009245"/></svg>