<?xml version="1.0" encoding="UTF-8" standalone="no"?>
<svg
   xmlns:dc="http://purl.org/dc/elements/1.1/"
   xmlns:cc="http://creativecommons.org/ns#"
   xmlns:rdf="http://www.w3.org/1999/02/22-rdf-syntax-ns#"
   xmlns:svg="http://www.w3.org/2000/svg"
   xmlns="http://www.w3.org/2000/svg"
   xmlns:xlink="http://www.w3.org/1999/xlink"
   xmlns:sodipodi="http://sodipodi.sourceforge.net/DTD/sodipodi-0.dtd"
   xmlns:inkscape="http://www.inkscape.org/namespaces/inkscape"
   inkscape:export-ydpi="450"
   inkscape:export-xdpi="450"
   inkscape:export-filename="C:\Users\Morgan\nowcasting\art\manypixels-iso-digital_nomad.png"
   inkscape:version="1.0 (4035a4fb49, 2020-05-01)"
   sodipodi:docname="manypixels-iso-digital_nomad.svg"
   version="1.1"
   viewBox="0 0 400 300"
   data-name="Layer 1"
   id="Layer_1">
  <metadata
     id="metadata212">
    <rdf:RDF>
      <cc:Work
         rdf:about="">
        <dc:format>image/svg+xml</dc:format>
        <dc:type
           rdf:resource="http://purl.org/dc/dcmitype/StillImage" />
      </cc:Work>
    </rdf:RDF>
  </metadata>
  <sodipodi:namedview
     inkscape:current-layer="Layer_1"
     inkscape:window-maximized="0"
     inkscape:window-y="0"
     inkscape:window-x="0"
     inkscape:cy="141.53014"
     inkscape:cx="239.56549"
     inkscape:zoom="1.8543875"
     showgrid="false"
     id="namedview210"
     inkscape:window-height="948"
     inkscape:window-width="1309"
     inkscape:pageshadow="2"
     inkscape:pageopacity="0"
     guidetolerance="10"
     gridtolerance="10"
     objecttolerance="10"
     borderopacity="1"
     bordercolor="#666666"
     pagecolor="#ffffff" />
  <defs
     id="defs21">
    <linearGradient
       gradientUnits="userSpaceOnUse"
       y2="157.75"
       x2="309.38"
       y1="196.18"
       x1="252.88"
       id="linear-gradient">
      <stop
         id="stop2"
         stop-opacity="0"
         offset="0.01" />
      <stop
         id="stop4"
         stop-color="#006837"
         offset="1" />
    </linearGradient>
    <linearGradient
       gradientUnits="userSpaceOnUse"
       y2="149.59"
       x2="267.01"
       y1="187.77"
       x1="219.84"
       id="linear-gradient-2">
      <stop
         id="stop7"
         stop-opacity="0"
         offset="0" />
      <stop
         id="stop9"
         stop-color="#006837"
         offset="1" />
    </linearGradient>
    <linearGradient
       xlink:href="#linear-gradient-2"
       y2="198.97"
       x2="228.79"
       y1="234.9"
       x1="182.52"
       id="linear-gradient-3" />
    <linearGradient
       xlink:href="#linear-gradient-2"
       y2="197.27"
       x2="219.4"
       y1="243.09"
       x1="150.22"
       id="linear-gradient-4" />
    <linearGradient
       gradientUnits="userSpaceOnUse"
       y2="194.72"
       x2="164.42"
       y1="245.03"
       x1="98.61"
       id="linear-gradient-5">
      <stop
         id="stop14"
         stop-opacity="0"
         offset="0" />
      <stop
         id="stop16"
         stop-opacity="0.26"
         stop-color="#001b0e"
         offset="0.26" />
      <stop
         id="stop18"
         stop-color="#006837"
         offset="1" />
    </linearGradient>
    <linearGradient
       gradientTransform="matrix(0.58906842,-2.2742275e-6,0,0.3097875,11.048853,171.92367)"
       id="linear-gradient-4-2"
       x1="150.22"
       y1="243.09"
       x2="219.39999"
       y2="197.27"
       xlink:href="#linear-gradient-2" />
  </defs>
  <title
     id="title23">#31-40</title>
  <path
     id="path25"
     fill="#85b23b"
     d="M97.91,217.38a46.9,46.9,0,0,0-12.25,13.76c-6.17,10.7-7.12,23.1,1.63,32.74,11.51,12.69,34.25,9.46,49.09,6.63a187.63,187.63,0,0,0,34.53-10c11.06-4.43,21.23-10.92,31.62-16.86,23.87-13.64,47.82-27.15,71.64-40.89,6.22-3.64,12.38-7.4,18.42-11.33,7.75-5,16-11,20.7-19.13a31.94,31.94,0,0,0,4.2-15.32c.25-10.46-5.05-19.24-13.78-24.83-28.13-18-72.85,7.78-72.85,7.78L184.14,166.8l-72.51,41.73A118.1,118.1,0,0,0,97.91,217.38Z" />
  <path
     id="path27"
     fill="url(#linear-gradient)"
     d="M240.84,199.6c1.23,4.3,9.49,3.2,12.36,6.07l32.64-25.08-22.29-1.39-23.69,18.06C238,201.81,239.53,195,240.84,199.6Z" />
  <path
     id="path29"
     fill="url(#linear-gradient-2)"
     d="M204.1,199.23c1.23,4.3,7.15-1,10,1.83l31-23.12-16.8-4.4-24.82,16.78C201.7,194.87,202.79,194.64,204.1,199.23Z" />
  <path
     id="path31"
     fill="url(#linear-gradient-3)"
     d="M156.19,244.06c1.23,4.3,17,7.09,17.79,10.78l45.5-25.7-39.05-10.77-23.82,13.71C154.8,236.62,154.88,239.47,156.19,244.06Z" />
  <path
     id="path33"
     fill="url(#linear-gradient-4)"
     d="M140.58,247.28c1.23,4.3,2.89,4.69,5.75,7.57l37.25-19.94-18.76-13.32L141,235.29C139.18,239.84,139.26,242.69,140.58,247.28Z" />
  <path
     id="path37"
     fill="#d8876a"
     d="M236.8,177.91a11.72,11.72,0,0,0,8.6-4.34c-1.64-39.17,9.24-112.51,9.24-112.51l-4.51-1.19C238.49,87.84,228.88,161,227,175.5,229.7,177.53,233.62,178.09,236.8,177.91Z" />
  <path
     id="path39"
     fill="#6a9546"
     d="M247.25,63.07c-.36-.89,1-46,1-46L251.87,59" />
  <path
     id="path41"
     fill="#85b23b"
     d="M249.58,49.5s-5.48-17.87-19.4-20.1-24.76,14.42-24.76,14.42l43.64,24.81L252.2,56" />
  <path
     id="path43"
     fill="#6a9546"
     d="M200.23,59.66q2.45.31,4.89.66l3.82-6.67-1.9,7c4.44.67,8.88,1.43,13.3,2.2l4,.72a22.11,22.11,0,0,1,2.44-5.87c.22-.28-.25,3.08-.72,6.2a117.78,117.78,0,0,1,22.89,6.5l-.52-2.78s-1.36-16.48-24.64-25.38-40.93,16.21-40.93,16.21l.47.1C189,58.1,194.61,59,200.23,59.66Z" />
  <path
     id="path45"
     fill="#6a9546"
     d="M249.25,73.27s-.08-.62-.18-1.72c-.65-6.93-2.21-32.75,9.88-38.88,14-7.09,16.49,10.74,16.49,10.74" />
  <path
     id="path47"
     fill="#85b23b"
     d="M249.06,68.63s-2-13.69,15.37-25.3,34.08,2.3,34.08,2.3l-12.07,8.91-7.76-4.64,3.86,7.21-10.14,6.18s-5.64-5.29-7.52-6.8c-.42-.34,3.35,8.92,3.35,8.92l-19,7.86Z" />
  <path
     id="path49"
     fill="#6a9546"
     d="M259.68,73.48l1.14-5.89.87,6.7c4.53,1.88,9,4,13.43,6.22l1.79-5.08-.2,5.88c2.4,1.2,4.8,2.39,7.12,3.66l1.59-6.38.16,7.37a47.64,47.64,0,0,1,8.05,5.72c2.27-13.76-8.53-31.63-21.87-35.17-13.53-3.59-22.72,12.12-22.72,12.12l3.4,2.26C254.91,71.66,257.3,72.54,259.68,73.48Z" />
  <path
     id="path51"
     fill="#85b23b"
     d="M222.06,73.48l-.42-3.31.92,3.16a92.53,92.53,0,0,1,10.62-2.43l.22-4.06.84,3.89a115.07,115.07,0,0,1,15.29-1.34c-.79-1.85-4.3-8.66-14.46-11.92-11.13-3.58-22.14,10.32-23.25,19.33l1.4-.09A81.13,81.13,0,0,1,222.06,73.48Z" />
  <ellipse
     id="ellipse53"
     fill="#b6cc99"
     ry="3.61"
     rx="15.4"
     cy="151.71"
     cx="272.95" />
  <path
     id="path55"
     fill="#b6cc99"
     d="M257.55,151.42s3.62,10.16,16.69,13.83c0,0,10.22-3.75,14.11-13.83" />
  <ellipse
     id="ellipse57"
     opacity="0.38"
     ry="3.61"
     rx="15.4"
     cy="151.71"
     cx="272.95" />
  <ellipse
     id="ellipse59"
     fill="#b6cc99"
     ry="2.81"
     rx="11.97"
     cy="179.9"
     cx="274.24" />
  <path
     id="path61"
     fill="#ffb92c"
     d="M287.8,142.48c-1.2-1.25-3.68-3.76-4.8-4.31s-1.8,2.65-1.8,2.65-3,12.12-3.41,13.62a13.39,13.39,0,0,0,1.89-.12l3.65-13.45L287,144.2a1.08,1.08,0,0,0,.56-.26A1.37,1.37,0,0,0,287.8,142.48Z" />
  <rect
     id="rect63"
     fill="#b6cc99"
     height="14.33"
     width="2.71"
     y="163.51"
     x="272.89" />
  <path
     id="path65"
     fill="#ffc98d"
     d="M261.74,154.19a8,8,0,0,1,4.64-2c2.58-.07,5.36.07,6.93,0s2.47-1.83,4.49-1.29,3.31,1.63,4.81,1.9a16,16,0,0,1,3,.94A38.59,38.59,0,0,1,273,155.33C268.68,155.17,264.93,155.38,261.74,154.19Z" />
  <path
     id="path67"
     fill="#008404"
     d="M237.65,177.94s-.69-10.58,5.21-15.38l-.79,11s5.44-4.64,8.78-4.5c0,0-5.42,5.78-5.69,8.93C245.15,177.94,241,180.55,237.65,177.94Z" />
  <path
     id="path153"
     fill="#e05e00"
     d="M185.6,230a24.73,24.73,0,0,0-4.92-3c-1.82-.79-7-6.88-7.42-7.5S172,216,171,215.78s-3,.91-3,.91-2.94-3-5.48-2.06c0,0-2.36,1.26-2.31,8a1.58,1.58,0,0,0-.22.17,27.41,27.41,0,0,0-.25,3.18,9,9,0,0,0,3.9,3.58c2.06,1.08,6.53,4.87,9.43,5.63s8.6.46,10.52-.27a3.44,3.44,0,0,0,2.31-2.8A3,3,0,0,0,185.6,230Z" />
  <path
     id="path155"
     fill="#ffc019"
     d="M168.61,216.44s-3.46-2.86-6.09-1.81-2.3,7.1-2.3,7.1,0,3.45,4.19,5.47,3.48,3.8,8.94,5.49,11.26.34,12.32-1.31-2.35-3.09-2.59-3.3-5.14-3.22-6.25-4.72-3.08-4.1-3.79-5.38-1-2.43-2.29-2.32A4,4,0,0,0,168.61,216.44Z" />
  <path
     id="path157"
     fill="#e05e00"
     d="M178.75,224.93h0a13.11,13.11,0,0,0-2.18-.26q.22-.65.42-1.31a7.68,7.68,0,0,1-.52-.6l0,0a8.88,8.88,0,0,0-1.61-.15l.46-.85a.36.36,0,0,0,0-.25.3.3,0,0,0-.22-.27.39.39,0,0,0-.2,0c-.62-.12-1.24-.22-1.86-.3q.29-.48.62-.93c.29-.39-.36-.76-.65-.38a12.55,12.55,0,0,0-.79,1.22,10.48,10.48,0,0,0-3.33.2c-.47.11-.27.84.2.72a9.35,9.35,0,0,1,2.75-.21,12.8,12.8,0,0,0-.74,1.89c-.37.22,0,.81.42.62a7.88,7.88,0,0,1,2-.6l-.48,1a4.8,4.8,0,0,0-.23.5.54.54,0,0,1-.07.13h0a.38.38,0,0,0,.25.71,12.35,12.35,0,0,1,2.56-.4q-.32.91-.65,1.8a.38.38,0,0,0,.55.42,26.52,26.52,0,0,1,3.42-1.94l.11,0a.37.37,0,0,0,.46-.3C179.16,225.28,179,225.11,178.75,224.93ZM172,223.11a11.86,11.86,0,0,1,.64-1.46c.57.06,1.14.16,1.72.26l-.42.79A8.8,8.8,0,0,0,172,223.11Zm1.73,1.79c.11-.28.21-.57.31-.77l.37-.72a8.08,8.08,0,0,1,1.75.12q-.18.58-.37,1.15A13,13,0,0,0,173.71,224.89Zm2.24,1.52.35-1a12,12,0,0,1,1.27.09C177,225.79,176.47,226.09,175.94,226.42Z" />
  <path
     id="path159"
     fill="#ffb92c"
     d="M156.77,98c-1.36.79-8.18-1.63-11.62-.58s-7.38,4-7.88,7.27,3.79,28.21,3,30,8.9,8.11,15.52,7.36,7.82-34.16,8.7-36.4S156.77,98,156.77,98Z" />
  <path
     id="path161"
     fill="#d8876a"
     d="M154.46,110s-13.62-3.47-15.4-4.4-.67,10.85-.67,10.85-.92.6-1.6-1.75-.92-10-.92-10,8.56-8.74,13-9.29,17.33,4.63,18.3,4.87-11.35,9.4-11.35,9.4Z" />
  <path
     id="path163"
     fill="#b6cc99"
     d="M169.74,138.05s2.68,42,3,46.73,0,30.57,0,30.57-6,2.27-11.65,0c-.47-.19-1-4.87-1.1-5.4-.8-4.05-1.58-8.12-2.23-12.2-3.24-20.21-4.46-41-1.9-61.42C159.07,110.55,169.74,138.05,169.74,138.05Z" />
  <path
     id="path165"
     fill="#1c5028"
     d="M186.54,118.45a14,14,0,0,1-12.36-9.84c-.19-.61-1.16-.35-1,.27a15.06,15.06,0,0,0,13.33,10.58C187.18,119.49,187.18,118.49,186.54,118.45Z" />
  <path
     id="path167"
     fill="#1c5028"
     d="M175.94,92.6a.4.4,0,0,0-.08.79A.4.4,0,0,0,175.94,92.6Z" />
  <path
     id="path169"
     fill="#d8876a"
     d="M178.59,219.17s6.22-15.83,19.62-13.21,22.54,17.05,23.37,22.35c0,0-19.08,5-26.76,1.44S178.59,219.17,178.59,219.17Z" />
  <path
     id="path171"
     fill="#e05e00"
     d="M211.83,212.85a24.73,24.73,0,0,0-4.92-3c-1.82-.79-7-6.88-7.42-7.5s-1.28-3.51-2.21-3.71-3,.91-3,.91-2.94-3-5.48-2.06c0,0-2.36,1.26-2.31,8a1.58,1.58,0,0,0-.22.17,27.41,27.41,0,0,0-.25,3.18,9,9,0,0,0,3.9,3.58c2.06,1.08,6.53,4.87,9.43,5.63s8.6.46,10.52-.27a3.44,3.44,0,0,0,2.31-2.8A3,3,0,0,0,211.83,212.85Z" />
  <path
     id="path173"
     fill="#ffc019"
     d="M194.84,199.3s-3.46-2.86-6.09-1.81-2.3,7.1-2.3,7.1,0,3.45,4.19,5.47,3.48,3.8,8.94,5.49,11.26.34,12.32-1.31-2.35-3.09-2.59-3.3-5.14-3.22-6.25-4.72-3.08-4.1-3.79-5.38-1-2.43-2.29-2.32A4,4,0,0,0,194.84,199.3Z" />
  <path
     id="path175"
     fill="#e05e00"
     d="M205,207.79h0a13.11,13.11,0,0,0-2.18-.26q.22-.65.42-1.31a7.68,7.68,0,0,1-.52-.6l0,0a8.88,8.88,0,0,0-1.61-.15l.46-.85a.36.36,0,0,0,0-.25.3.3,0,0,0-.22-.27.39.39,0,0,0-.2,0c-.62-.12-1.24-.22-1.86-.3q.29-.48.62-.93c.29-.39-.36-.76-.65-.38a12.55,12.55,0,0,0-.79,1.22,10.48,10.48,0,0,0-3.33.2c-.47.11-.27.84.2.72a9.35,9.35,0,0,1,2.75-.21,12.8,12.8,0,0,0-.74,1.89c-.37.22,0,.81.42.62a7.88,7.88,0,0,1,2-.6l-.48,1a4.8,4.8,0,0,0-.23.5.54.54,0,0,1-.07.13h0a.38.38,0,0,0,.25.71,12.35,12.35,0,0,1,2.56-.4q-.32.91-.65,1.8a.38.38,0,0,0,.55.42,26.52,26.52,0,0,1,3.42-1.94l.11,0a.37.37,0,0,0,.46-.3C205.39,208.14,205.18,208,205,207.79ZM198.21,206a11.86,11.86,0,0,1,.64-1.46c.57.06,1.14.16,1.72.26l-.42.79A8.8,8.8,0,0,0,198.21,206Zm1.73,1.79c.11-.28.21-.57.31-.77l.37-.72a8.08,8.08,0,0,1,1.75.12q-.18.58-.37,1.15A13,13,0,0,0,199.93,207.75Zm2.24,1.52.35-1a12,12,0,0,1,1.27.09C203.25,208.65,202.7,209,202.17,209.28Z" />
  <path
     id="path177"
     fill="#b6cc99"
     d="M177.76,134.17c.72,1.49,18.2,23.56,21.31,29.57s-2.1,34.77-2.1,34.77-6.25,2.78-11.1-.26c0,0-.27-23.79-1.7-25.43s-18.72-15.67-20.52-18.52,4.95-18.93,4.95-18.93" />
  <path
     id="path179"
     fill="#008404"
     d="M152.76,128.9s-.23-15.49,3.08-19.21,12.31-10.38,17.35-10.82,9.36,1.55,10.18,3.95,3.49,13.53,3.17,16.63-5.49,16.05-9.7,19-17.08,6.35-19.76,6.35S151.29,134.47,152.76,128.9Z" />
  <polyline
     id="polyline181"
     fill="#b6cc99"
     points="191.86 138.24 171.3 126.26 202.88 108.11 219.11 121.67" />
  <polyline
     id="polyline183"
     opacity="0.38"
     points="191.86 138.24 171.3 126.26 202.88 108.11 219.11 121.67" />
  <path
     id="path185"
     fill="#b6cc99"
     d="M197.19,114.6s-5.4,23.93-5.32,23.64,26.63-14.56,26.81-15.07,7-24.79,7-24.79Z" />
  <path
     id="path187"
     fill="#ffb92c"
     d="M186.23,133.78,180,130.2a1,1,0,0,0-.28-.09,1.11,1.11,0,0,0-.71-.21l-.83-.42a23,23,0,0,0,.37-4.59.93.93,0,0,0-.67-.91.86.86,0,0,0-1.27.37L173.85,130l-.08.07-6.06,3.88c1.08,2,2.29,4,3.5,6,1.81-1,3.59-2,5.34-3l.49-.1a1,1,0,0,0,.31,0,36.07,36.07,0,0,1,4.87-.44,9.38,9.38,0,0,0,3.43-.42,1,1,0,0,0,.54-.5A1,1,0,0,0,186.23,133.78Z" />
  <path
     id="path189"
     fill="#008404"
     d="M165.9,132.64c-.09-.13,5.4-1.7,5.4-1.7l7.29,5.39S168,149.92,159.79,149s-9.89-12.79-8.87-21.38A135.14,135.14,0,0,1,154.46,110s1.38-4,10.91-7.91" />
  <path
     id="path191"
     fill="#1c5028"
     d="M166.69,90.29h-.84a.5.5,0,0,0,0,1h.84A.5.5,0,0,0,166.69,90.29Z" />
  <path
     id="path193"
     fill="#1c5028"
     d="M173.84,94.58A7.66,7.66,0,0,1,166,96.14c-.61-.21-.87.75-.27,1a8.67,8.67,0,0,0,8.81-1.82C175,94.85,174.32,94.15,173.84,94.58Z" />
  <path
     id="path195"
     fill="#ffb92c"
     d="M177.41,88.12s-.91,12.35-4,12.94-6.56-1-7.64-2.57-3.39-9.35-2.27-10.77S175.67,85.86,177.41,88.12Z" />
  <path
     id="path197"
     fill="#ffb92c"
     d="M165,96.73l-.47,6.09s1.88,1.53,7.32-.26l.77-3.53" />
  <path
     id="path199"
     fill="#1c5028"
     d="M179.45,83.76a5,5,0,0,0-2.18-.34,4.87,4.87,0,0,0-1.69-2.7,5.1,5.1,0,0,0-5.32-.43,3.85,3.85,0,0,0-.82.58,4.55,4.55,0,0,0-3.53-1.19,3.84,3.84,0,0,0-3.27,2.54,3.23,3.23,0,0,0-.16,1.19A3.66,3.66,0,0,0,159.21,86a3.63,3.63,0,0,0,.45,3.19,3.2,3.2,0,0,0-.71,3.38,3.55,3.55,0,0,0,2.85,2.25,3.39,3.39,0,0,0-.1,1.83c.65,1.47,2.42,2.08,4.06,2.45.07-.78.15-1.55.19-2.33a.83.83,0,0,1,.05-.21,6.87,6.87,0,0,1-1.39-1.71c-.52-.85-.89-2.06,0-2.83a1.8,1.8,0,0,1,2.75.62,9.39,9.39,0,0,1,.61-1.15h0c.79-2,2.84-2.19,4.78-2.2,2.94,1.55,7.23,2.67,8.43-1.07A3.49,3.49,0,0,0,179.45,83.76Z" />
  <path
     id="path201"
     fill="#1c5028"
     d="M167.95,91.47s-.48,3.64.3,4.31,2.9.94,4.41.84,3,.05,3.47,0c0,0-1.06,3.79-2.29,4.83s-4.52-.08-5.31-.58-2-4-2-4l.14-5.34Z" />
  <path
     id="path203"
     fill="#1c5028"
     d="M139.37,92.19c1.7-3,5.63-3.69,8.72-3.23,1.89.29,2.7-2.6.8-2.89-4.43-.67-9.68.4-12.1,4.61a1.5,1.5,0,0,0,2.59,1.51Z" />
  <path
     id="path205"
     fill="#1c5028"
     d="M132.4,86.26c3.62-6,12-6.12,17.92-4.59,1.87.48,2.67-2.41.8-2.89-7.31-1.89-17-1.27-21.31,6a1.5,1.5,0,0,0,2.59,1.51Z" />
  <path
     id="path207"
     fill="#1c5028"
     d="M125.78,80.55c6.05-8.14,17.14-10,26.46-6.71,1.82.64,2.61-2.25.8-2.89-10.64-3.76-22.89-1.27-29.85,8.09-1.15,1.55,1.45,3,2.59,1.51Z" />
  <path
     style="fill:url(#linear-gradient-4-2);stroke-width:0.427184"
     d="m 93.860092,248.5276 c 0.724554,1.33208 1.702408,1.45289 3.387148,2.34507 l 21.9428,-6.17724 -11.05093,-4.12633 -14.031609,4.24415 c -1.072104,1.40953 -1.024979,2.29242 -0.247409,3.71435 z"
     fill="url(#linear-gradient-4)"
     id="path33-9" />
  <path
     style="stroke-width:1.11731"
     d="m 119.19004,244.69543 c 0,0 0.88171,-10.33611 -6.65753,-15.02546 l 1.00949,10.74643 c 0,0 -6.95143,-4.53304 -11.21941,-4.39627 0,0 6.92588,5.64676 7.2709,8.72415 0.0128,-0.0488 5.3158,2.50099 9.59655,-0.0488 z"
     fill="#008404"
     id="path67-3" />
</svg>
