<svg id="Layer_1" data-name="Layer 1" xmlns="http://www.w3.org/2000/svg" xmlns:xlink="http://www.w3.org/1999/xlink" viewBox="0 0 400 300"><defs><linearGradient id="linear-gradient" x1="72.33" y1="224.72" x2="88.07" y2="202.33" gradientUnits="userSpaceOnUse"><stop offset="0" stop-color="#fff" stop-opacity="0"/><stop offset="1" stop-color="#006a42"/></linearGradient><linearGradient id="linear-gradient-2" x1="166.18" y1="260.74" x2="191.39" y2="224.88" xlink:href="#linear-gradient"/></defs><title>-</title><polygon points="40.45 190.79 193.16 103.88 349.34 194.85 198.31 281.59 40.45 190.79" fill="#43e0bd"/><path d="M88.18,216.91l29.06-18.75-28-12.51L62.83,200.92C71,206.73,79.55,211.86,88.18,216.91Z" opacity="0.32" fill="url(#linear-gradient)"/><path d="M221.24,267.2l48.52-26.75L147.26,180.06l-27.95,20.31C127.44,206.19,212.62,262.15,221.24,267.2Z" opacity="0.32" fill="url(#linear-gradient-2)"/><path d="M185.63,160.48s20.58-18.7,24.55-18.69h17.28s21.66-25.56,27.71-26.9,26.9-9.06,26.9-9.06l32.28-33.44,12.78-9.9,12.65,2v50.43l9.55,3.21v76.74L249,252.33l-98.35-54s20.06-8.17,17.57-15S182,166.67,182,166.67" fill="#d8876a"/><path d="M137.56,88.21l1,6.7,7.87,12.25s3.59,7.1,3.77,8.34a30.41,30.41,0,0,1-.31,4.9l-3.46-5.93s0,2.8-1,2.8-2.38-7.11-2.38-7.11l-9.06-9.85-3.74-14.88" fill="#ffb92c"/><path d="M130.39,59.56s-11.81-3.72-14.29-4-12.42.71-18,16.95-8,26.12-6.54,29.17,12.24,8.39,19.21,7.9" fill="#b6cc99"/><path d="M121.55,62s6.2.38,7.22,3.67l1,3.29,4.38,3.17s.55-7.46-1.16-9.69a11,11,0,0,0-7-3.75C123.87,58.56,121.55,62,121.55,62Z" fill="#b6cc99"/><path d="M130.39,59.56s-11.81-3.72-14.29-4-12.42.71-18,16.95-8,26.12-6.54,29.17,12.24,8.39,19.21,7.9" opacity="0.29"/><path d="M115.47,194.24a26.92,26.92,0,0,0-5.35-3.26c-2-.86-7.65-7.49-8.08-8.16s-1.39-3.83-2.41-4-3.32,1-3.32,1-3.2-3.29-6-2.24c0,0-2.57,1.37-2.52,8.7a1.72,1.72,0,0,0-.24.18,29.83,29.83,0,0,0-.27,3.46,9.76,9.76,0,0,0,4.24,3.9c2.24,1.18,7.11,5.31,10.27,6.13s9.36.5,11.45-.3a3.74,3.74,0,0,0,2.51-3A3.27,3.27,0,0,0,115.47,194.24Z" fill="#e05e00"/><path d="M97,179.49s-3.77-3.11-6.63-2-2.5,7.73-2.5,7.73,0,3.75,4.56,6,3.79,4.14,9.73,6,12.26.37,13.41-1.43-2.56-3.36-2.82-3.59-5.59-3.51-6.8-5.14-3.36-4.46-4.13-5.86-1-2.64-2.5-2.53A4.39,4.39,0,0,0,97,179.49Z" fill="#ffc019"/><path d="M108,188.73h0a14.27,14.27,0,0,0-2.37-.29q.24-.71.46-1.43a8.36,8.36,0,0,1-.57-.65l-.05,0a9.67,9.67,0,0,0-1.76-.16l.5-.92a.39.39,0,0,0,0-.27.33.33,0,0,0-.23-.3.43.43,0,0,0-.22,0c-.68-.13-1.35-.24-2-.33q.31-.52.68-1c.31-.42-.4-.83-.71-.41a13.66,13.66,0,0,0-.86,1.33,11.41,11.41,0,0,0-3.62.22c-.51.12-.29.91.22.79a10.18,10.18,0,0,1,3-.23,13.93,13.93,0,0,0-.8,2.06c-.4.24,0,.89.46.68a8.57,8.57,0,0,1,2.18-.65q-.27.54-.53,1.08a5.23,5.23,0,0,0-.26.54.58.58,0,0,1-.07.15h0a.41.41,0,0,0,.27.77,13.44,13.44,0,0,1,2.78-.44q-.34,1-.71,2a.41.41,0,0,0,.6.46,28.86,28.86,0,0,1,3.72-2.11l.12,0a.4.4,0,0,0,.5-.33C108.47,189.12,108.24,188.93,108,188.73Zm-7.37-2a12.91,12.91,0,0,1,.69-1.59c.62.07,1.24.17,1.87.28l-.46.85A9.58,9.58,0,0,0,100.65,186.75Zm1.88,1.94c.12-.31.23-.62.34-.84l.4-.78a8.79,8.79,0,0,1,1.9.13q-.2.63-.41,1.25A14.18,14.18,0,0,0,102.53,188.69Zm2.44,1.66.38-1.09a13,13,0,0,1,1.39.09C106.13,189.67,105.54,190,105,190.35Z" fill="#e05e00"/><path d="M109.07,92.12c-3,18.89-8.68,37.17-13.58,55.61-2.56,9.63-4.79,19.35-6.85,29.1-.05.24-.09.47-.14.71a6.35,6.35,0,0,0,0,2.68c5.26,4.1,12.18,3.55,12.18,3.55s15.88-35.41,17-40.43,14.68-33.91,14.68-33.91S119.89,74.61,109.07,92.12Z" fill="#b6cc99"/><path d="M145.25,52.07a.43.43,0,0,0-.31.81A.43.43,0,0,0,145.25,52.07Z" fill="#1c5028"/><path d="M135.1,188.47s6.77-17.23,21.36-14.37S181,192.66,181.9,198.43c0,0-20.77,5.42-29.13,1.57S135.1,188.47,135.1,188.47Z" fill="#d8876a"/><path d="M164.64,173.26a26.92,26.92,0,0,0-5.56-2.88c-2-.72-8.15-6.94-8.63-7.58s-1.65-3.72-2.68-3.86-3.24,1.22-3.24,1.22-3.42-3.06-6.11-1.82c0,0-2.47,1.54-1.91,8.85a1.72,1.72,0,0,0-.23.2,29.83,29.83,0,0,0,0,3.47,9.76,9.76,0,0,0,4.5,3.59c2.32,1,7.46,4.8,10.67,5.4s9.38-.15,11.4-1.09a3.74,3.74,0,0,0,2.3-3.22A3.27,3.27,0,0,0,164.64,173.26Z" fill="#e05e00"/><path d="M145.16,159.83s-4-2.84-6.75-1.5-2,7.88-2,7.88.29,3.74,5,5.62,4.07,3.86,10.13,5.29,12.25-.48,13.28-2.36-2.79-3.18-3.07-3.39-5.82-3.11-7.14-4.66-3.66-4.21-4.52-5.56-1.23-2.57-2.67-2.35A4.39,4.39,0,0,0,145.16,159.83Z" fill="#ffc019"/><path d="M156.82,168.28h0a14.27,14.27,0,0,0-2.38-.12q.19-.73.36-1.46a8.36,8.36,0,0,1-.61-.61l-.05,0a9.67,9.67,0,0,0-1.76,0l.44-1a.39.39,0,0,0,0-.27.33.33,0,0,0-.25-.28.43.43,0,0,0-.22,0c-.68-.08-1.37-.15-2-.19q.28-.54.6-1.06c.28-.44-.45-.8-.73-.36a13.66,13.66,0,0,0-.77,1.39,11.41,11.41,0,0,0-3.6.47c-.5.16-.23.93.27.77a10.18,10.18,0,0,1,3-.43,13.93,13.93,0,0,0-.66,2.11c-.38.27.06.88.5.65a8.57,8.57,0,0,1,2.12-.8q-.23.55-.45,1.11a5.23,5.23,0,0,0-.22.56.58.58,0,0,1-.06.15h0a.41.41,0,0,0,.32.75,13.44,13.44,0,0,1,2.74-.63q-.27,1-.57,2a.41.41,0,0,0,.63.42,28.86,28.86,0,0,1,3.57-2.36l.12,0a.4.4,0,0,0,.47-.36C157.29,168.63,157.05,168.46,156.82,168.28Zm-7.49-1.47a12.91,12.91,0,0,1,.58-1.63c.63,0,1.25.09,1.88.15l-.4.88A9.58,9.58,0,0,0,149.33,166.81Zm2,1.81c.1-.31.18-.63.28-.86s.23-.54.35-.81a8.79,8.79,0,0,1,1.91,0q-.15.64-.32,1.28A14.18,14.18,0,0,0,151.34,168.62Zm2.55,1.49q.16-.56.31-1.11a13,13,0,0,1,1.39,0C155,169.35,154.44,169.72,153.88,170.11Z" fill="#e05e00"/><path d="M118.36,91.28s-7.34,17.5-5.38,20.6,20.77,18.38,22.33,20.16,1.85,27.68,1.85,27.68c5.28,3.31,12.08.29,12.08.29s5.67-31.3,2.28-37.85S129.12,91.6,128.34,90" fill="#b6cc99"/><path d="M140.51,60.75A15.85,15.85,0,0,0,128,59.5a23.77,23.77,0,0,0-4.75,2.22c-8.72,5.16-11,18-13.36,27-.36,1.35-4.88,16.91-4.26,17.2,4.7,2.13,12.49,1.46,17.59.36a64.32,64.32,0,0,0,12.43-4.18s-.73-8.53-.69-8.54c.9-3.55,1.65-7.14,2.47-10.68C139.28,74.69,141.55,69.13,140.51,60.75Z" fill="#008404"/><path d="M136.19,47l-.88-.24a.54.54,0,0,0-.28,1.05l.88.24A.54.54,0,0,0,136.19,47Z" fill="#1c5028"/><path d="M142.48,53.55A8.34,8.34,0,0,1,133.8,53c-.58-.4-1.13.54-.55.94a9.44,9.44,0,0,0,9.78.6C143.65,54.17,143.1,53.23,142.48,53.55Z" fill="#1c5028"/><path d="M148.07,47.78s-4.48,12.71-7.93,12.44-6.6-2.92-7.3-4.88-.89-10.79.68-12S146.89,44.91,148.07,47.78Z" fill="#ffb92c"/><path d="M132.61,53.29l-2.22,6.26s1.53,2.14,7.76,1.82L140,57.89" fill="#ffb92c"/><path d="M151.45,43.78a5.47,5.47,0,0,0-2.19-1,5.3,5.3,0,0,0-1-3.32,5.56,5.56,0,0,0-5.46-2,4.19,4.19,0,0,0-1,.38,5,5,0,0,0-3.36-2.26,4.18,4.18,0,0,0-4.16,1.74,3.51,3.51,0,0,0-.5,1.21,4,4,0,0,0-4.18,1.76,4,4,0,0,0-.43,3.48,3.48,3.48,0,0,0-1.71,3.35,3.87,3.87,0,0,0,2.36,3.17,3.69,3.69,0,0,0-.63,1.89c.26,1.73,1.95,2.87,3.56,3.73.3-.79.6-1.59.86-2.39a.91.91,0,0,1,.12-.21,7.48,7.48,0,0,1-1-2.19c-.31-1-.35-2.41.78-3s2.34.28,2.71,1.43a10.22,10.22,0,0,1,1-1h0c1.4-1.85,3.61-1.49,5.65-.95,2.64,2.47,6.84,4.86,9.16,1.28A3.8,3.8,0,0,0,151.45,43.78Z" fill="#1c5028"/><path d="M137.17,48.6s-1.54,3.68-.91,4.61S139,55,140.65,55.34s3.1.9,3.64,1c0,0-2.19,3.68-3.78,4.42s-4.72-1.37-5.41-2.12-.94-4.74-.94-4.74l1.67-5.57Z" fill="#1c5028"/><path d="M174.24,101.7s-33.95,95.07-32.62,95.61,36.26-95.61,36.26-95.61Z" fill="#1c5028"/><path d="M171.94,105.1c1,.37,6,3,6.91,1.89s6.2-13.21,4.95-14.26-5.93-2.61-7-2S171.94,105.1,171.94,105.1Z" fill="#1c5028"/><path d="M178.48,94.37s2.45-4,1.65-4.62-7.59,4.84-7.59,4.84L139.19,78.33c-.87,2.3-.83,6.23-2,8.39,1.42,1.61,35.36,15.27,35.36,15.27l6.91,5.3s1.48-2.9,2.63-5.54S178.48,94.37,178.48,94.37Z" fill="#ffb92c"/><path d="M132.54,67.52A13.67,13.67,0,0,0,124.32,64a.71.71,0,0,1-.08.07c-1.3.63-2.77,1.18-4.11,1.9-.92.83-1.85,1.65-2.75,2.5-1.18,3.29-2.13,7.91,0,11.45,1.67,2.84,12,7.76,23,12.25,1.88-4.29,3.9-8.52,6-12.73A48.33,48.33,0,0,1,132.54,67.52Z" fill="#008404"/><path d="M133.68,104.35l-10.77,23.21c-.29.63.65,1.18.94.55l10.77-23.21C134.92,104.27,134,103.72,133.68,104.35Z" fill="#1c5028"/><path d="M90.3,84.24s-4.11,11-.31,12.67,14,4.46,14,4.46l5.74-19.3" fill="#47510b"/><path d="M109.76,82.07l-12.93-3.5a7.18,7.18,0,0,0-6.53,5.67l13.13,3.94S105.21,81.63,109.76,82.07Z" fill="#b6cc99"/><path d="M99,67.33s-3,8.13-.22,9.38S109.18,80,109.18,80l4.24-14.29" fill="#47510b"/><path d="M113.42,65.71l-9.57-2.59A5.31,5.31,0,0,0,99,67.33l9.72,2.91S110,65.39,113.42,65.71Z" fill="#b6cc99"/><path d="M110.33,64.88a13.13,13.13,0,0,1,12.85-7.51L121,56.75s-9.26-.42-12.32,7.68" fill="#47510b"/><path d="M135.78,90c-.06.25-13.74-4.8-20.67-11.4l19.53,16.24Z" fill="#1c5028"/><path d="M121.55,62s6.2.38,7.22,3.67l1,3.29,4.38,3.17s.55-7.46-1.16-9.69a11,11,0,0,0-7-3.75C123.87,58.56,121.55,62,121.55,62Z" fill="#b6cc99"/><path d="M121.55,62s6.2.38,7.22,3.67l1,3.29,4.38,3.17s.55-7.46-1.16-9.69a11,11,0,0,0-7-3.75C123.87,58.56,121.55,62,121.55,62Z" opacity="0.29"/><path d="M124.41,84.74s-16.33,10.27-16.54,11-2.34,7.14-2.34,7.14L129,87.19Z" fill="#47510b"/><polygon points="339.79 64.45 323.58 101.38 304.38 145.43 291.82 153.56 269.66 167.17 256.36 187.28 249.01 201.38 249.03 252.33 349.34 194.84 349.34 118.1 339.79 114.89 339.79 64.45" fill="#ba6247"/><path d="M181.9,206.74c0-1.53,10.09-19.47,10.09-19.47l4.36-20.11,22.52-9.76-13,16.37Z" fill="#e5af9e"/><path d="M246.3,144.42,234,182.08l24.52-28.46,30.14-21.44s30.65-55.09,30.14-53.61-34.74,43.88-34.74,43.88l-19.41,13Z" fill="#e5af9e"/><polygon points="223.88 197.31 221.25 210.25 226.12 217.63 226.12 228.93 234.27 235.01 233.3 221.54 228.52 209.7 223.88 197.31" fill="#e5af9e"/></svg>