<svg id="Layer_1" data-name="Layer 1" xmlns="http://www.w3.org/2000/svg" xmlns:xlink="http://www.w3.org/1999/xlink" viewBox="0 0 400 300"><defs><linearGradient id="linear-gradient" x1="261.67" y1="212.75" x2="274.56" y2="199.52" gradientUnits="userSpaceOnUse"><stop offset="0" stop-color="gray" stop-opacity="0"/><stop offset="1" stop-color="#009245"/></linearGradient><linearGradient id="linear-gradient-2" x1="218.98" y1="239.29" x2="256.06" y2="187.59" xlink:href="#linear-gradient"/><linearGradient id="linear-gradient-3" x1="182.17" y1="221.33" x2="213.37" y2="172.55" xlink:href="#linear-gradient"/><linearGradient id="linear-gradient-4" x1="94.17" y1="233.46" x2="131.04" y2="203.27" xlink:href="#linear-gradient"/><linearGradient id="linear-gradient-5" x1="225.13" y1="213.79" x2="240.25" y2="201.4" xlink:href="#linear-gradient"/></defs><title>#31-40</title><ellipse cx="198.06" cy="204.09" rx="155.13" ry="85" fill="#ccfff2"/><polygon points="285.87 208.39 262.98 224.69 250.42 211.41 262.98 190.94 285.87 208.39" fill="url(#linear-gradient)"/><path d="M226.78,267.26l43.84-30-49.37-29.77-48.43,26.19C179.14,237.51,220.57,263.25,226.78,267.26Z" fill="url(#linear-gradient-2)"/><path d="M208.58,254.18l53.58-33.62L165.93,172,117.5,198.17C123.82,202,202.36,250.17,208.58,254.18Z" fill="url(#linear-gradient-3)"/><path d="M90,246.42l45.4-27.1-18.27-10.8L68.7,234.7C75,238.55,83.79,242.41,90,246.42Z" fill="url(#linear-gradient-4)"/><path d="M132.69,204.09s-5.45,3.2-8,1.72c0,0,1.42,11-.88,12.32s-5.77,4.08-4.7,4.79,1.33,1.51,4.53.62a34.2,34.2,0,0,0,6-2.4s.61-6,1.77-5.68.89,5.15.89,5.15l3.11-1.3Z" fill="#f2696a"/><path d="M123,199.21s-5.45,3.2-8,1.72c0,0,1.42,11-.88,12.32s-5.77,4.08-4.7,4.79,1.33,1.51,4.53.62a34.2,34.2,0,0,0,6-2.4s.61-6,1.77-5.68.89,5.15.89,5.15l3.11-1.3Z" fill="#f2696a"/><polygon points="272.13 67.83 285.87 208.39 229.76 174.01 272.13 67.83" fill="#06577a"/><polygon points="165.55 171.94 167.52 7.43 272.13 67.83 265.05 227.25 165.55 171.94" fill="#006ba4"/><path d="M107.22,130.82s-.39,20.57-.17,30.27,5.47,40.39,5.47,40.39,2.79,2.88,11.37,0v6.66s12.71-.41,18.25-4.05c0,0-4.93-46.56-5.54-51.7-1.21-10-7.29-23-7.29-23" fill="#9fb8b7"/><path d="M157.27,102.88c-3.5,2.88-7.82,5.09-12,5.36a7.9,7.9,0,0,1-1.16.19,4.86,4.86,0,0,1-1.73-.23,46.08,46.08,0,0,1-9.69-3.74c-3.44-1.94-6.75-3.94-10.34-5.63a11.41,11.41,0,0,0-7.6-1,24,24,0,0,0-8.33,3.57c-5.7,3.67-1.69,20.77.78,29.43,6.73,3.66,15.71,2.81,22.07-1.46-.13-2.55.66-6.56,1.48-10.58,11.21,5.37,25.7-.25,29.45-5.11A12.68,12.68,0,0,0,157.27,102.88Z" fill="#8ccc00"/><path d="M103.21,130.83c10.72-9.44,15.15-33.37,7.21-31.66-9.41,2-15.54,24.56-15.54,24.56l1.2,7.08A9.39,9.39,0,0,0,103.21,130.83Z" fill="#8ccc00"/><path d="M106.44,101.39s-2.9-.28-5.93,15S114,120.8,114,120.8" fill="#8ccc00"/><path d="M262.15,214.38l5.54,24.46a2.12,2.12,0,0,0,2.93-1.6l-5.39-23.38" fill="#d87f1e"/><path d="M237,232.58l.21,25.08a2.12,2.12,0,0,0,3.2-.94l-.29-24" fill="#d87f1e"/><path d="M207,214.57,198.09,235s-.48,1.22,2.59,1.49l9.74-22" fill="#d87f1e"/><path d="M266.83,210.27a306,306,0,0,0-49.2-21.46l.8-.63c.62-.49-.26-1.36-.87-.87l-20.34,16.06c-.62.49.26,1.36.87.87l18.49-14.59a.6.6,0,0,0,.28.2,304.15,304.15,0,0,1,49.35,21.49C266.9,211.71,267.52,210.65,266.83,210.27Z" fill="#659ac6"/><path d="M262.05,212.27a64.15,64.15,0,0,0-14.86,10.9,387.29,387.29,0,0,0-45.35-14.77.62.62,0,0,0-.33,1.19,387.32,387.32,0,0,1,45.17,14.69.62.62,0,0,0,.75.3l1.16.47-1.05,6.9c-.12.78,1.07,1.11,1.19.33l1-6.76,2.44,1c.73.3,1.05-.89.33-1.19-1.36-.56-2.72-1.1-4.08-1.64a63.11,63.11,0,0,1,14.23-10.34C263.37,213,262.75,211.9,262.05,212.27Z" fill="#659ac6"/><path d="M264,214.52l-6.27,7.94c-.49.62.38,1.49.87.87l6.27-7.94C265.39,214.78,264.52,213.9,264,214.52Z" fill="#659ac6"/><path d="M278.63,127.84l3.66,2.22,3.81-3.68L282.33,124Z" fill="#748bfd"/><path d="M286.35,118.75l3.27-3.35-3.75-2.32-3.27,3.35Z" fill="#748bfd"/><path d="M265.13,113.45l-3.85,3.88,3.13,1.9,3.8-3.89Z" fill="#748bfd"/><path d="M268.93,115.77l-3.79,3.89L269,122l3.77-3.86Z" fill="#748bfd"/><path d="M291,121.61a41.8,41.8,0,0,0,3.25-3.36l-3.9-2.42-3.27,3.35Z" fill="#748bfd"/><path d="M277.86,121.28l-3.73,3.83,3.78,2.29,3.71-3.8Z" fill="#748bfd"/><path d="M277.47,113.27l3.27-3.36-3.81-2.35-3.28,3.36Z" fill="#748bfd"/><path d="M278.45,120.69,282.2,123l3.56-3.65L282,117Z" fill="#748bfd"/><path d="M282.91,123.44l3.79,2.35,3.68-3.59-3.91-2.41Z" fill="#748bfd"/><path d="M281.88,116l3.27-3.35-3.7-2.29-3.27,3.36Z" fill="#748bfd"/><path d="M277.6,114.31,274,118l3.7,2.28,3.56-3.65Z" fill="#748bfd"/><path d="M273.45,118.56l-3.76,3.86,3.73,2.26,3.74-3.83Z" fill="#748bfd"/><path d="M276.23,107.12l-3-1.85-3.32,3.36,3,1.86Z" fill="#748bfd"/><path d="M276.89,113.87l-3.81-2.35-3.57,3.65,3.81,2.35Z" fill="#748bfd"/><path d="M272.36,111.08l-3-1.87-3.6,3.64,3.08,1.88Z" fill="#748bfd"/><path d="M286.7,119l.36.22,3.27-3.35-.36-.22Z" fill="#1a1a1a"/><path d="M282,123.82l-3.7,3.8.36.22,3.7-3.79Z" fill="#1a1a1a"/><path d="M286.7,119l3.27-3.35-.36-.22-3.27,3.35Z" fill="#1a1a1a"/><path d="M282.56,123.22l.36.22,3.56-3.65-.36-.22Z" fill="#1a1a1a"/><path d="M282.2,123l.36.22,3.56-3.65-.36-.22Z" fill="#1a1a1a"/><path d="M282,123.82l-.36-.22-3.71,3.8.36.22Z" fill="#1a1a1a"/><path d="M282.24,116.21l3.27-3.35-.36-.22L281.88,116Z" fill="#1a1a1a"/><path d="M281.3,116.59l-3.56,3.65.36.22,3.56-3.65Z" fill="#1a1a1a"/><path d="M278.09,120.47l.36.22L282,117l-.36-.22Z" fill="#1a1a1a"/><path d="M277.51,121.07l-3.74,3.83.36.22,3.73-3.83Z" fill="#1a1a1a"/><path d="M282.24,116.21l.36.22,3.27-3.35-.35-.22Z" fill="#1a1a1a"/><path d="M277.51,121.07l-.36-.22-3.74,3.83.36.22Z" fill="#1a1a1a"/><path d="M277.83,113.49l3.27-3.36-.36-.22-3.27,3.36Z" fill="#1a1a1a"/><path d="M277.24,114.09l-3.57,3.65.36.22,3.56-3.65Z" fill="#1a1a1a"/><path d="M277.83,113.49l.36.22,3.27-3.36-.35-.22Z" fill="#1a1a1a"/><path d="M276.89,113.87l-3.56,3.65.36.22,3.57-3.65Z" fill="#1a1a1a"/><path d="M273.09,118.34l-3.77,3.86.36.22,3.76-3.86Z" fill="#1a1a1a"/><path d="M273.09,118.34l-.36-.22L269,122l.36.22Z" fill="#1a1a1a"/><path d="M268.57,115.56l-.36-.22-3.8,3.89.36.22Z" fill="#1a1a1a"/><path d="M272.72,111.3l-.36-.22-3.57,3.66.36.22Z" fill="#1a1a1a"/><path d="M273.3,110.7l3.28-3.36-.36-.22-3.28,3.36Z" fill="#1a1a1a"/><path d="M268.57,115.56l-3.8,3.89.36.22,3.79-3.89Z" fill="#1a1a1a"/><path d="M273.07,111.52l-.36-.22L269.15,115l.36.22Z" fill="#1a1a1a"/><path d="M273.3,110.7l.36.22,3.28-3.36-.36-.22Z" fill="#1a1a1a"/><polygon points="290.92 122.06 290.92 122.06 290.92 122.06 290.92 122.06" fill="#748bfd"/><path d="M277.16,113.59l-3.81-2.35-.28.28,3.81,2.35Z" fill="#1a1a1a"/><path d="M282,117l3.75,2.32.29-.29-3.76-2.31Z" fill="#1a1a1a"/><path d="M286.06,119l.29-.3-3.75-2.32-.29.3Z" fill="#1a1a1a"/><path d="M281.59,116.29l.29-.3-3.7-2.28-.29.3Z" fill="#1a1a1a"/><path d="M272.64,110.8l-3-1.87-.29.29,3,1.87Z" fill="#1a1a1a"/><path d="M286.76,119.49l-.29.29,3.91,2.41.3-.29Z" fill="#1a1a1a"/><path d="M272.65,110.79l.29-.3-3-1.86-.29.3Z" fill="#1a1a1a"/><path d="M277.18,113.57l.29-.3-3.81-2.35-.29.3Z" fill="#1a1a1a"/><path d="M281.3,116.59l.28-.29L277.87,114l-.28.28Z" fill="#1a1a1a"/><path d="M286.77,119.49l3.91,2.42.3-.29-3.92-2.42Z" fill="#1a1a1a"/><path d="M286.41,119.27l.29-.3-.36-.22-.29.3Z" fill="#1a1a1a"/><path d="M286.12,119.57l.36.22.29-.29-.36-.22Z" fill="#1a1a1a"/><path d="M285.76,119.35l.36.22.29-.29-.36-.22Z" fill="#1a1a1a"/><path d="M286.77,119.49l.29-.3-.36-.22-.29.3Z" fill="#1a1a1a"/><path d="M281.95,116.51l.29-.3-.36-.22-.29.3Z" fill="#1a1a1a"/><path d="M282.3,116.73l.29-.3-.36-.22-.29.3Z" fill="#1a1a1a"/><path d="M282,117l.28-.29-.36-.22-.28.29Z" fill="#1a1a1a"/><path d="M281.66,116.81l.28-.29-.36-.22-.28.29Z" fill="#1a1a1a"/><path d="M277.89,114l.29-.3-.36-.22-.29.3Z" fill="#1a1a1a"/><path d="M277.53,113.79l.29-.3-.36-.22-.29.3Z" fill="#1a1a1a"/><path d="M277.6,114.31l.28-.28-.36-.22-.28.28Z" fill="#1a1a1a"/><path d="M277.24,114.09l.28-.28-.36-.22-.28.28Z" fill="#1a1a1a"/><path d="M273.37,111.22l.29-.3-.36-.22-.29.3Z" fill="#1a1a1a"/><path d="M273,111l-.36-.22-.28.28.36.22Z" fill="#1a1a1a"/><path d="M273.35,111.24,273,111l-.28.28.36.22Z" fill="#1a1a1a"/><path d="M273.3,110.7l-.36-.22-.29.3.36.22Z" fill="#1a1a1a"/><path d="M281.58,116.3h0l-3.7-2.28h0Z" fill="#1a1a1a"/><path d="M286,119.06h0l-3.75-2.32h0Z" fill="#1a1a1a"/><path d="M269.61,108.92h0l3,1.87h0Z" fill="#1a1a1a"/><path d="M286.76,119.49l3.92,2.41h0l-3.91-2.42Z" fill="#1a1a1a"/><path d="M277.16,113.59h0l-3.81-2.35v0Z" fill="#1a1a1a"/><path d="M286.41,119.27h0l.36.22h0Z" fill="#1a1a1a"/><path d="M286,119.06l.36.22h0l-.36-.22Z" fill="#1a1a1a"/><path d="M281.94,116.52h0l-.36-.22h0Z" fill="#1a1a1a"/><path d="M282.29,116.74h0l-.36-.22h0Z" fill="#1a1a1a"/><path d="M277.87,114h0l-.36-.22h0Z" fill="#1a1a1a"/><path d="M277.52,113.8h0l-.36-.22h0Z" fill="#1a1a1a"/><path d="M273.37,111.22,273,111v0l.36.22Z" fill="#1a1a1a"/><path d="M273,111l-.36-.22h0l.36.22Z" fill="#1a1a1a"/><path d="M278.15,121l3.75,2.32.29-.3-3.75-2.32Z" fill="#1a1a1a"/><path d="M282.62,123.74l3.79,2.34.3-.29-3.79-2.35Z" fill="#1a1a1a"/><path d="M278.14,121l-.28.29,3.75,2.32.29-.29Z" fill="#1a1a1a"/><path d="M274,118l-.29.3,3.7,2.28.29-.3Z" fill="#1a1a1a"/><path d="M268.49,115.05l-3.08-1.89-.29.29,3.08,1.89Z" fill="#1a1a1a"/><path d="M269.2,115.49l-.28.28,3.81,2.35.28-.28Z" fill="#1a1a1a"/><path d="M269.51,115.18l-.29.3,3.81,2.35.29-.3Z" fill="#1a1a1a"/><path d="M282.61,123.75l-.29.29,3.77,2.33.3-.29Z" fill="#1a1a1a"/><path d="M273.73,118.28l-.28.28,3.7,2.28.28-.29Z" fill="#1a1a1a"/><path d="M268.5,115l.29-.3-3.08-1.88-.29.3Z" fill="#1a1a1a"/><path d="M282.26,123.52l.36.22.29-.3-.36-.22Z" fill="#1a1a1a"/><path d="M281.9,123.31l-.29.29.36.22.29-.29Z" fill="#1a1a1a"/><path d="M282,123.82l.36.22.29-.29-.36-.22Z" fill="#1a1a1a"/><path d="M281.91,123.3l.36.22.29-.3-.36-.22Z" fill="#1a1a1a"/><path d="M277.74,120.25l-.29.3.36.22.29-.3Z" fill="#1a1a1a"/><path d="M277.79,120.78l-.28.29.36.22.28-.29Z" fill="#1a1a1a"/><path d="M278.09,120.47l-.29.3.36.22.29-.3Z" fill="#1a1a1a"/><path d="M277.43,120.56l-.28.29.36.22.28-.29Z" fill="#1a1a1a"/><path d="M273.37,118.06l-.28.28.36.22.28-.28Z" fill="#1a1a1a"/><path d="M273.32,117.52l-.29.3.36.22.29-.3Z" fill="#1a1a1a"/><path d="M273.68,117.74l-.29.3.36.22.29-.3Z" fill="#1a1a1a"/><path d="M273,117.84l-.28.28.36.22.28-.28Z" fill="#1a1a1a"/><path d="M269.15,115l-.36-.22-.29.3.36.22Z" fill="#1a1a1a"/><path d="M268.85,115.27l-.28.28.36.22.28-.28Z" fill="#1a1a1a"/><path d="M268.49,115.05l-.28.28.36.22.28-.28Z" fill="#1a1a1a"/><path d="M269.51,115.18l-.36-.22-.29.3.36.22Z" fill="#1a1a1a"/><path d="M286.4,126.08h0l-3.79-2.34h0Z" fill="#1a1a1a"/><path d="M269.22,115.48h0l3.81,2.35h0Z" fill="#1a1a1a"/><path d="M273.74,118.26h0l3.71,2.28h0Z" fill="#1a1a1a"/><path d="M265.42,113.15h0l3.08,1.89h0Z" fill="#1a1a1a"/><path d="M278.15,121h0l3.76,2.31h0Z" fill="#1a1a1a"/><path d="M281.9,123.31l.36.22h0l-.36-.22Z" fill="#1a1a1a"/><path d="M282.26,123.53l.36.22h0l-.36-.22Z" fill="#1a1a1a"/><path d="M277.8,120.77h0l.36.22h0Z" fill="#1a1a1a"/><path d="M277.44,120.55h0l.36.22h0Z" fill="#1a1a1a"/><path d="M273,117.82h0l.36.22h0Z" fill="#1a1a1a"/><path d="M273.38,118h0l.36.22h0Z" fill="#1a1a1a"/><path d="M268.86,115.26l-.36-.22h0l.36.22Z" fill="#1a1a1a"/><path d="M268.86,115.26h0l.36.22h0Z" fill="#1a1a1a"/><path d="M321.17,143.52,285.93,122c-2.75-1.68-4.45,1.1-1.7,2.78l35.24,21.49C322.22,148,323.92,145.2,321.17,143.52Z" fill="#1a1a1a"/><path d="M326,157.95l3.66,2.22,3.81-3.68-3.77-2.33Z" fill="#748bfd"/><path d="M333.74,148.86l3.27-3.35-3.75-2.32L330,146.54Z" fill="#748bfd"/><path d="M312.52,143.56l-3.85,3.88,3.13,1.9,3.8-3.89Z" fill="#748bfd"/><path d="M316.32,145.89l-3.79,3.89,3.84,2.32,3.77-3.86Z" fill="#748bfd"/><path d="M338.37,151.72a41.8,41.8,0,0,0,3.25-3.36l-3.9-2.42-3.27,3.35Z" fill="#748bfd"/><path d="M325.26,151.4l-3.73,3.83,3.78,2.29,3.71-3.8Z" fill="#748bfd"/><path d="M324.86,143.38l3.27-3.36-3.81-2.35L321.05,141Z" fill="#748bfd"/><path d="M325.84,150.8l3.75,2.32,3.56-3.65-3.75-2.32Z" fill="#748bfd"/><path d="M330.3,153.55l3.79,2.35,3.68-3.59-3.91-2.41Z" fill="#748bfd"/><path d="M329.28,146.11l3.27-3.35-3.7-2.29-3.27,3.36Z" fill="#748bfd"/><path d="M325,144.42l-3.56,3.65,3.7,2.28,3.56-3.65Z" fill="#748bfd"/><path d="M320.84,148.67l-3.76,3.86,3.73,2.26,3.74-3.83Z" fill="#748bfd"/><path d="M323.62,137.24l-3-1.85-3.32,3.36,3,1.86Z" fill="#748bfd"/><path d="M324.28,144l-3.81-2.35-3.57,3.65,3.81,2.35Z" fill="#748bfd"/><path d="M319.76,141.2l-3-1.87-3.6,3.64,3.08,1.88Z" fill="#748bfd"/><path d="M334.1,149.08l.36.22,3.27-3.35-.36-.22Z" fill="#1a1a1a"/><path d="M329.37,153.93l-3.7,3.8.36.22,3.7-3.79Z" fill="#1a1a1a"/><path d="M334.1,149.08l3.27-3.35-.36-.22-3.27,3.35Z" fill="#1a1a1a"/><path d="M329.95,153.33l.36.22,3.56-3.65-.36-.22Z" fill="#1a1a1a"/><path d="M329.59,153.12l.36.22,3.56-3.65-.36-.22Z" fill="#1a1a1a"/><path d="M329.37,153.93l-.36-.22-3.71,3.8.36.22Z" fill="#1a1a1a"/><path d="M329.63,146.33l3.27-3.35-.36-.22-3.27,3.35Z" fill="#1a1a1a"/><path d="M328.69,146.7l-3.56,3.65.36.22,3.56-3.65Z" fill="#1a1a1a"/><path d="M325.49,150.58l.36.22,3.56-3.65-.36-.22Z" fill="#1a1a1a"/><path d="M324.9,151.18,321.16,155l.36.22,3.73-3.83Z" fill="#1a1a1a"/><path d="M329.63,146.33l.36.22,3.27-3.35-.35-.22Z" fill="#1a1a1a"/><path d="M324.9,151.18l-.36-.22-3.74,3.83.36.22Z" fill="#1a1a1a"/><path d="M325.22,143.6l3.27-3.36-.36-.22-3.27,3.36Z" fill="#1a1a1a"/><path d="M324.64,144.2l-3.57,3.65.36.22,3.56-3.65Z" fill="#1a1a1a"/><path d="M325.22,143.6l.36.22,3.27-3.36-.35-.22Z" fill="#1a1a1a"/><path d="M324.28,144l-3.56,3.65.36.22,3.57-3.65Z" fill="#1a1a1a"/><path d="M320.49,148.45l-3.77,3.86.36.22,3.76-3.86Z" fill="#1a1a1a"/><path d="M320.49,148.45l-.36-.22-3.77,3.86.36.22Z" fill="#1a1a1a"/><path d="M316,145.67l-.36-.22-3.8,3.89.36.22Z" fill="#1a1a1a"/><path d="M320.11,141.41l-.36-.22-3.57,3.66.36.22Z" fill="#1a1a1a"/><path d="M320.69,140.82l3.28-3.36-.36-.22-3.28,3.36Z" fill="#1a1a1a"/><path d="M316,145.67l-3.8,3.89.36.22,3.79-3.89Z" fill="#1a1a1a"/><path d="M320.47,141.63l-.36-.22-3.57,3.65.36.22Z" fill="#1a1a1a"/><path d="M320.69,140.82l.36.22,3.28-3.36-.36-.22Z" fill="#1a1a1a"/><polygon points="338.31 152.17 338.31 152.17 338.31 152.17 338.31 152.17" fill="#748bfd"/><path d="M324.56,143.7l-3.81-2.35-.28.28,3.81,2.35Z" fill="#1a1a1a"/><path d="M329.4,147.14l3.75,2.32.29-.29-3.76-2.31Z" fill="#1a1a1a"/><path d="M333.45,149.16l.29-.3L330,146.54l-.29.3Z" fill="#1a1a1a"/><path d="M329,146.41l.29-.3-3.7-2.28-.29.3Z" fill="#1a1a1a"/><path d="M320,140.91,317,139l-.29.29,3,1.87Z" fill="#1a1a1a"/><path d="M334.16,149.61l-.29.29,3.91,2.41.3-.29Z" fill="#1a1a1a"/><path d="M320,140.9l.29-.3-3-1.86-.29.3Z" fill="#1a1a1a"/><path d="M324.57,143.68l.29-.3L321.05,141l-.29.3Z" fill="#1a1a1a"/><path d="M328.69,146.7l.28-.29-3.71-2.28-.28.28Z" fill="#1a1a1a"/><path d="M334.16,149.6l3.91,2.42.3-.29-3.92-2.42Z" fill="#1a1a1a"/><path d="M333.81,149.38l.29-.3-.36-.22-.29.3Z" fill="#1a1a1a"/><path d="M333.51,149.68l.36.22.29-.29-.36-.22Z" fill="#1a1a1a"/><path d="M333.16,149.46l.36.22.29-.29-.36-.22Z" fill="#1a1a1a"/><path d="M334.16,149.6l.29-.3-.36-.22-.29.3Z" fill="#1a1a1a"/><path d="M329.34,146.63l.29-.3-.36-.22-.29.3Z" fill="#1a1a1a"/><path d="M329.7,146.84l.29-.3-.36-.22-.29.3Z" fill="#1a1a1a"/><path d="M329.4,147.14l.28-.29-.36-.22-.28.29Z" fill="#1a1a1a"/><path d="M329,146.92l.28-.29-.36-.22-.28.29Z" fill="#1a1a1a"/><path d="M325.28,144.12l.29-.3-.36-.22-.29.3Z" fill="#1a1a1a"/><path d="M324.93,143.9l.29-.3-.36-.22-.29.3Z" fill="#1a1a1a"/><path d="M325,144.42l.28-.28-.36-.22-.28.28Z" fill="#1a1a1a"/><path d="M324.64,144.2l.28-.28-.36-.22-.28.28Z" fill="#1a1a1a"/><path d="M320.76,141.34l.29-.3-.36-.22-.29.3Z" fill="#1a1a1a"/><path d="M320.39,141.13l-.36-.22-.28.28.36.22Z" fill="#1a1a1a"/><path d="M320.74,141.35l-.36-.22-.28.28.36.22Z" fill="#1a1a1a"/><path d="M320.69,140.82l-.36-.22-.29.3.36.22Z" fill="#1a1a1a"/><path d="M329,146.42h0l-3.7-2.28h0Z" fill="#1a1a1a"/><path d="M333.44,149.17h0l-3.75-2.32h0Z" fill="#1a1a1a"/><path d="M317,139h0l3,1.87h0Z" fill="#1a1a1a"/><path d="M334.16,149.61l3.92,2.41h0l-3.91-2.42Z" fill="#1a1a1a"/><path d="M324.56,143.7h0l-3.81-2.35v0Z" fill="#1a1a1a"/><path d="M333.81,149.38h0l.36.22h0Z" fill="#1a1a1a"/><path d="M333.44,149.17l.36.22h0l-.36-.22Z" fill="#1a1a1a"/><path d="M329.33,146.64h0l-.36-.22h0Z" fill="#1a1a1a"/><path d="M329.69,146.86h0l-.36-.22h0Z" fill="#1a1a1a"/><path d="M325.27,144.14h0l-.36-.22h0Z" fill="#1a1a1a"/><path d="M324.91,143.92h0l-.36-.22h0Z" fill="#1a1a1a"/><path d="M320.76,141.34l-.36-.22v0l.36.22Z" fill="#1a1a1a"/><path d="M320.4,141.12l-.36-.22h0l.36.22Z" fill="#1a1a1a"/><path d="M325.55,151.1l3.75,2.32.29-.3-3.75-2.32Z" fill="#1a1a1a"/><path d="M330,153.85l3.79,2.34.3-.29-3.79-2.35Z" fill="#1a1a1a"/><path d="M325.54,151.11l-.28.29,3.75,2.32.29-.29Z" fill="#1a1a1a"/><path d="M321.43,148.07l-.29.3,3.7,2.28.29-.3Z" fill="#1a1a1a"/><path d="M315.88,145.16l-3.08-1.89-.29.29,3.08,1.89Z" fill="#1a1a1a"/><path d="M316.6,145.6l-.28.28,3.81,2.35.28-.28Z" fill="#1a1a1a"/><path d="M316.9,145.29l-.29.3,3.81,2.35.29-.3Z" fill="#1a1a1a"/><path d="M330,153.86l-.29.29,3.77,2.33.3-.29Z" fill="#1a1a1a"/><path d="M321.12,148.39l-.28.28,3.7,2.28.28-.29Z" fill="#1a1a1a"/><path d="M315.9,145.15l.29-.3L313.11,143l-.29.3Z" fill="#1a1a1a"/><path d="M329.66,153.63l.36.22.29-.3-.36-.22Z" fill="#1a1a1a"/><path d="M329.3,153.42l-.29.29.36.22.29-.29Z" fill="#1a1a1a"/><path d="M329.37,153.93l.36.22.29-.29-.36-.22Z" fill="#1a1a1a"/><path d="M329.3,153.41l.36.22.29-.3-.36-.22Z" fill="#1a1a1a"/><path d="M325.13,150.36l-.29.3.36.22.29-.3Z" fill="#1a1a1a"/><path d="M325.18,150.89l-.28.29.36.22.28-.29Z" fill="#1a1a1a"/><path d="M325.49,150.58l-.29.3.36.22.29-.3Z" fill="#1a1a1a"/><path d="M324.83,150.67l-.28.29.36.22.28-.29Z" fill="#1a1a1a"/><path d="M320.76,148.17l-.28.28.36.22.28-.28Z" fill="#1a1a1a"/><path d="M320.71,147.64l-.29.3.36.22.29-.3Z" fill="#1a1a1a"/><path d="M321.07,147.86l-.29.3.36.22.29-.3Z" fill="#1a1a1a"/><path d="M320.41,147.95l-.28.28.36.22.28-.28Z" fill="#1a1a1a"/><path d="M316.55,145.07l-.36-.22-.29.3.36.22Z" fill="#1a1a1a"/><path d="M316.24,145.38l-.28.28.36.22.28-.28Z" fill="#1a1a1a"/><path d="M315.88,145.16l-.28.28.36.22.28-.28Z" fill="#1a1a1a"/><path d="M316.9,145.29l-.36-.22-.29.3.36.22Z" fill="#1a1a1a"/><path d="M333.8,156.19h0L330,153.85h0Z" fill="#1a1a1a"/><path d="M316.61,145.59h0l3.81,2.35h0Z" fill="#1a1a1a"/><path d="M321.13,148.37h0l3.71,2.28h0Z" fill="#1a1a1a"/><path d="M312.82,143.26h0l3.08,1.89h0Z" fill="#1a1a1a"/><path d="M325.55,151.1h0l3.76,2.31h0Z" fill="#1a1a1a"/><path d="M329.3,153.42l.36.22h0l-.36-.22Z" fill="#1a1a1a"/><path d="M329.65,153.64l.36.22h0l-.36-.22Z" fill="#1a1a1a"/><path d="M325.19,150.88h0l.36.22h0Z" fill="#1a1a1a"/><path d="M324.84,150.66h0l.36.22h0Z" fill="#1a1a1a"/><path d="M320.42,147.93h0l.36.22h0Z" fill="#1a1a1a"/><path d="M320.78,148.15h0l.36.22h0Z" fill="#1a1a1a"/><path d="M316.25,145.37l-.36-.22h0l.36.22Z" fill="#1a1a1a"/><path d="M316.25,145.37h0l.36.22h0Z" fill="#1a1a1a"/><ellipse cx="305.98" cy="127.31" rx="6.32" ry="8.07" transform="translate(-11.89 221.06) rotate(-39.02)" fill="#ccc"/><polyline points="286.82 132.44 300.9 121.04 311.06 133.57 296.98 144.97" fill="#ccc"/><ellipse cx="291.9" cy="138.7" rx="6.32" ry="8.07" transform="translate(-22.21 214.74) rotate(-39.02)" fill="#b3b3b3"/><path d="M300,127.54a10.15,10.15,0,0,1,5.7,10.38l4.39-3.55s-.17-7.83-6.23-10.3Z" fill="#b3b3b3"/><path d="M298.72,130a.84.84,0,0,0,0,1.68A.84.84,0,0,0,298.72,130Z" fill="#1a1a1a"/><path d="M300.65,132.72a.84.84,0,0,0,0,1.68A.84.84,0,0,0,300.65,132.72Z" fill="#1a1a1a"/><path d="M301.81,135.63a.84.84,0,0,0,0,1.68A.84.84,0,0,0,301.81,135.63Z" fill="#1a1a1a"/><polyline points="194.65 200.87 194.65 210.63 244.98 239.57 272.75 223.55 272.75 216.12" fill="#ff9b0d"/><path d="M246.85,231.78l25.9-16.44L223.4,184.51S195,201.13,194.65,200.87Z" fill="#ffc358"/><path d="M120.07,84.18c.73-.57,4.05-1.66,8.11,1.35s5.47,9.29,2.84,12.33-6.34,1.33-6.39-1.61.45-8.81-2.05-9.64" fill="#006ba4"/><path d="M110.1,89.66c-.21.78-.37,9.86,5.37,10.44s6.7-6.7,6.3-10.44S112,82.62,110.1,89.66Z" fill="#ffc358"/><path d="M110,93.33c.14.3,2.88-3.25,4.18-5,0,0,1.74,7.9,7,5.94a20.09,20.09,0,0,0-1.52,4.21s3.73-1.55,4.09-7.41-2.58-8.25-6.56-8.49C114.51,82.44,105.88,84.58,110,93.33Z" fill="#006ba4"/><path d="M121.86,94.08a1,1,0,0,0-1.32-.26,2.88,2.88,0,0,0-1.1,1.74.37.37,0,0,0,.38.47l-.2.28a.37.37,0,0,0-.07.14c-.34.29,0,.89.43.63a5.35,5.35,0,0,0,1.47-1.38C121.75,95.28,122.2,94.61,121.86,94.08Z" fill="#ffc358"/><polygon points="117.23 111.19 101.78 101.39 104.82 120.51 119.04 128.91 117.23 111.19" fill="#f2696a"/><path d="M110.17,113.9l-.27.09c.21-.29.41-.58.59-.89a3.43,3.43,0,0,0,.62-1.16.86.86,0,0,0-.73-1.07c.46-.76.64-1.59-.59-1.82h-.08a.89.89,0,0,0-1,.34c-.21.29-.45.57-.67.85a.94.94,0,0,0-.83-.86.68.68,0,0,0-1,.13l-2.35,3h0l-.52-3.64a.74.74,0,0,0-.1-.44.77.77,0,0,0-1.26-.23.81.81,0,0,0-.33.44,11.73,11.73,0,0,0-.16,5.24l-.31.29a1.37,1.37,0,0,1,.18.41,19.81,19.81,0,0,0,3,7.23,21.88,21.88,0,0,0,4.79-4.35.81.81,0,0,0,.22-.49,4.57,4.57,0,0,0,1.77-2.05A.87.87,0,0,0,110.17,113.9Z" fill="#ffc358"/><path d="M100.34,131.49c2.21-2.68,4-6.58,4-9L100.07,113s-5.26,7.53-6.61,13.8C93.48,130.3,96.89,131.77,100.34,131.49Z" fill="#8ccc00"/><path d="M117.13,143.25c-.05-.79-1.29-.79-1.23,0q2.15,30.89,6.78,61.52c.12.78,1.31.45,1.19-.33Q119.27,174,117.13,143.25Z" fill="#fff"/><rect x="173.16" y="49.02" width="2.66" height="75.87" rx="1.08" ry="1.08" transform="translate(70.72 -78.09) rotate(31.35)" fill="#d1eae4"/><path d="M164.06,102.28c1.9-3.4.55-4.18.55-4.18l-2.37,3.47s-2.51,3.13-3.33,4a6.72,6.72,0,0,1,.92,2.91c.61-.48,2.09-.55,3.51-2.34C165.45,103.47,164.06,102.28,164.06,102.28Z" fill="#ffc358"/><path d="M168.26,103.78c.5-.2.89-.53.71-1.09a1,1,0,0,0-.83-.69l.17-.09a.84.84,0,0,0-.11-1.53c-.75-.27-1.84.25-2.55.45a.57.57,0,0,0-.42.65.75.75,0,0,0,.29.94c-.47.21-.83.53-.79,1a.76.76,0,0,0,.52.68c-.5.29-.87.76-.54,1.32.46.78,2,.4,2.73.21a2.17,2.17,0,0,0,1.2-.6.81.81,0,0,0-.12-1.09A1.15,1.15,0,0,0,168.26,103.78Z" fill="#ffc358"/><path d="M101.5,113.48a1,1,0,0,1,0-.22c-.65-.25-2.1-.61-2.3,1.12-.26,2.23,2.44,8.67,4.18,8.15a2.43,2.43,0,0,0,1.27-1A12.47,12.47,0,0,1,101.5,113.48Z" fill="#06577a"/><ellipse cx="229.76" cy="104.24" rx="19.21" ry="25.29" transform="translate(-15.62 45.53) rotate(-10.95)" fill="#ffb236"/><ellipse cx="226.14" cy="104.24" rx="19.21" ry="25.29" transform="translate(-15.68 44.85) rotate(-10.95)" fill="#ffc358"/><path d="M224.6,117.74a8.58,8.58,0,0,0-1.87-5.91,8.09,8.09,0,0,0-7.65-2.6c-.13-3.81-1.31-7.62-4.8-9.7a6.87,6.87,0,0,0-6-.65,6.54,6.54,0,0,0-.69.39,4.67,4.67,0,0,0-2.91-2.6c-2.38-.67-4.09.59-5.15,2.39-1.81-1.74-4.24-2.63-6.8-1.43-3.17,1.48-3.63,5.5-3.11,8.56.87,5.14,4.23,8.5,8.43,10.6a10.15,10.15,0,0,0,4,7.13,7.6,7.6,0,0,0,6.31,1.18A6.48,6.48,0,0,0,209,131a6.77,6.77,0,0,0,4.63-.08,7,7,0,0,0,6.71,4.52,4.8,4.8,0,0,0,3.4-1.44,4.87,4.87,0,0,0,4.39.84c2.85-.9,3.65-3.63,3.42-6.36A13.11,13.11,0,0,0,224.6,117.74Z" fill="#9fb8b7"/><path d="M224.6,117.74a8.58,8.58,0,0,0-1.87-5.91,8.09,8.09,0,0,0-7.65-2.6c-.13-3.81-1.31-7.62-4.8-9.7a6.87,6.87,0,0,0-6-.65,6.54,6.54,0,0,0-.69.39,4.67,4.67,0,0,0-2.91-2.6c-2.38-.67-4.09.59-5.15,2.39-1.81-1.74-4.24-2.63-6.8-1.43-3.17,1.48-3.63,5.5-3.11,8.56.87,5.14,4.23,8.5,8.43,10.6a10.15,10.15,0,0,0,4,7.13,7.6,7.6,0,0,0,6.31,1.18A6.48,6.48,0,0,0,209,131a6.77,6.77,0,0,0,4.63-.08,7,7,0,0,0,6.71,4.52,4.8,4.8,0,0,0,3.4-1.44,4.87,4.87,0,0,0,4.39.84c2.85-.9,3.65-3.63,3.42-6.36A13.11,13.11,0,0,0,224.6,117.74Z" opacity="0.08"/><path d="M219.83,120.27a8.58,8.58,0,0,0-1.87-5.91,8.09,8.09,0,0,0-7.65-2.6c-.13-3.81-1.31-7.62-4.8-9.7a6.87,6.87,0,0,0-6-.65,6.54,6.54,0,0,0-.69.39,4.67,4.67,0,0,0-2.91-2.6c-2.38-.67-4.09.59-5.15,2.39-1.81-1.74-4.24-2.63-6.8-1.43-3.17,1.48-3.63,5.5-3.11,8.56.87,5.14,4.23,8.5,8.43,10.6a10.15,10.15,0,0,0,4,7.13,7.6,7.6,0,0,0,6.31,1.18,6.48,6.48,0,0,0,4.6,5.94,6.77,6.77,0,0,0,4.63-.08,7,7,0,0,0,6.71,4.52,4.8,4.8,0,0,0,3.4-1.44,4.87,4.87,0,0,0,4.39.84c2.85-.9,3.65-3.63,3.42-6.36A13.11,13.11,0,0,0,219.83,120.27Z" fill="#9fb8b7"/><path d="M207.47,73.4l3.06,4a1.85,1.85,0,0,0,2.94-2.24l-3.06-4A1.85,1.85,0,0,0,207.47,73.4Z" fill="#ffb236"/><path d="M222.45,60.94V72.4a1.85,1.85,0,0,0,3.7,0V60.94A1.85,1.85,0,0,0,222.45,60.94Z" fill="#ffb236"/><path d="M193.92,81.54l9.56,6.32a1.85,1.85,0,0,0,2-3.08L196,78.46A1.85,1.85,0,0,0,193.92,81.54Z" fill="#ffb236"/><path d="M237.64,70.06l-2.91,4.13a1.85,1.85,0,0,0,3,2.13l2.91-4.13A1.85,1.85,0,0,0,237.64,70.06Z" fill="#ffb236"/><path d="M253.1,73.34l-8,8.19a1.85,1.85,0,0,0,2.64,2.58l8-8.19A1.85,1.85,0,0,0,253.1,73.34Z" fill="#ffb236"/><path d="M255.48,87.81l-4.83,1.47a1.85,1.85,0,0,0,1.07,3.54l4.83-1.47A1.85,1.85,0,0,0,255.48,87.81Z" fill="#ffb236"/><path d="M187.8,128.55a12.13,12.13,0,0,0-1.13,1.31,18.47,18.47,0,0,0-1.93,3.4,6.2,6.2,0,0,0-.37,4.48,3.09,3.09,0,0,0,4,1.62,3.28,3.28,0,0,0,1.72-3.09C190.18,133.65,189,130.83,187.8,128.55Z" fill="#9fb8b7"/><path d="M197,141a12.13,12.13,0,0,0-1.13,1.31,18.47,18.47,0,0,0-1.93,3.4,6.2,6.2,0,0,0-.37,4.48,3.09,3.09,0,0,0,4,1.62,3.28,3.28,0,0,0,1.72-3.09C199.39,146.08,198.24,143.26,197,141Z" fill="#9fb8b7"/><path d="M212.29,140.58a12.13,12.13,0,0,0-1.13,1.31,18.47,18.47,0,0,0-1.93,3.4,6.2,6.2,0,0,0-.37,4.48,3.09,3.09,0,0,0,4,1.62,3.28,3.28,0,0,0,1.72-3.09C214.67,145.68,213.52,142.86,212.29,140.58Z" fill="#9fb8b7"/><ellipse cx="294.23" cy="223.93" rx="13.35" ry="7.14" fill="#99c6ba"/><path d="M228.64,221l13.73-12.61-7.57-6.72-21.12,11.42C220,216.92,222.43,217,228.64,221Z" fill="url(#linear-gradient-5)"/><path d="M229.26,192.62s-1.67,14.36,5.93,17.14,11.67-4.45,11.78-17.14" fill="#9fb8b7"/><ellipse cx="238.12" cy="192.62" rx="8.86" ry="5.12" fill="#06577a"/><path d="M238.12,192.62s0-19.9-9.49-28c0,0-5.06,3.23-3.79,8.19s6.72,1.27,7.66,3.87-1.87,3.36,0,6S238.12,187.5,238.12,192.62Z" fill="#8ccc00"/><path d="M240,190.94s-.78-23.07,4-29.92,7.92,2.56,5.77,6.75-5.91,3.15-4.57,6.75,3.69,5.49,1,7S239.85,188,240,190.94Z" fill="#8ccc00"/><path d="M187.8,128.55a12.13,12.13,0,0,0-1.13,1.31,18.47,18.47,0,0,0-1.93,3.4,6.2,6.2,0,0,0-.37,4.48,3.09,3.09,0,0,0,4,1.62,3.28,3.28,0,0,0,1.72-3.09C190.18,133.65,189,130.83,187.8,128.55Z" opacity="0.08"/><path d="M197,141a12.13,12.13,0,0,0-1.13,1.31,18.47,18.47,0,0,0-1.93,3.4,6.2,6.2,0,0,0-.37,4.48,3.09,3.09,0,0,0,4,1.62,3.28,3.28,0,0,0,1.72-3.09C199.39,146.08,198.24,143.26,197,141Z" opacity="0.08"/><path d="M212.29,140.58a12.13,12.13,0,0,0-1.13,1.31,18.47,18.47,0,0,0-1.93,3.4,6.2,6.2,0,0,0-.37,4.48,3.09,3.09,0,0,0,4,1.62,3.28,3.28,0,0,0,1.72-3.09C214.67,145.68,213.52,142.86,212.29,140.58Z" opacity="0.08"/><path d="M187.08,129.35a12.13,12.13,0,0,0-1.13,1.31,18.47,18.47,0,0,0-1.93,3.4,6.2,6.2,0,0,0-.37,4.48,3.09,3.09,0,0,0,4,1.62,3.28,3.28,0,0,0,1.72-3.09C189.46,134.45,188.31,131.63,187.08,129.35Z" fill="#9fb8b7"/><path d="M196.29,141.79a12.13,12.13,0,0,0-1.13,1.31,18.47,18.47,0,0,0-1.93,3.4,6.2,6.2,0,0,0-.37,4.48,3.09,3.09,0,0,0,4,1.62,3.28,3.28,0,0,0,1.72-3.09C198.67,146.89,197.52,144.06,196.29,141.79Z" fill="#9fb8b7"/><path d="M211.57,141.39a12.13,12.13,0,0,0-1.13,1.31,18.47,18.47,0,0,0-1.93,3.4,6.2,6.2,0,0,0-.37,4.48,3.09,3.09,0,0,0,4,1.62,3.28,3.28,0,0,0,1.72-3.09C213.95,146.48,212.8,143.66,211.57,141.39Z" fill="#9fb8b7"/></svg>