<svg id="Layer_1" data-name="Layer 1" xmlns="http://www.w3.org/2000/svg" xmlns:xlink="http://www.w3.org/1999/xlink" viewBox="0 0 400 300"><defs><linearGradient id="linear-gradient" x1="247.14" y1="154.38" x2="266.2" y2="124.58" gradientUnits="userSpaceOnUse"><stop offset="0" stop-opacity="0"/><stop offset="1" stop-color="#006837"/></linearGradient><linearGradient id="linear-gradient-2" x1="212.46" y1="217.87" x2="232.41" y2="186.67" xlink:href="#linear-gradient"/><linearGradient id="linear-gradient-3" x1="235.99" y1="249.97" x2="256.24" y2="218.32" xlink:href="#linear-gradient"/><linearGradient id="linear-gradient-4" x1="266.99" y1="207.26" x2="287.75" y2="174.79" xlink:href="#linear-gradient"/><linearGradient id="linear-gradient-5" x1="132.23" y1="192.15" x2="149.61" y2="126.42" xlink:href="#linear-gradient"/></defs><title>#41-50</title><path d="M33.8,146.94,163.23,71.7a15.21,15.21,0,0,1,15.24,0L368,180.81a8.51,8.51,0,0,1,0,14.75L236.56,271.71a15.21,15.21,0,0,1-15.21,0L33.84,163.88A9.78,9.78,0,0,1,33.8,146.94Z" fill="#51bc51"/><path d="M247.22,164.1l31.63-21.17L254,134l-29.22,17.2C231.11,155,241,160.1,247.22,164.1Z" opacity="0.68" fill="url(#linear-gradient)"/><path d="M213.86,229l29.45-24.58-21.06-7.52L191.4,216.05C197.72,219.89,207.65,225,213.86,229Z" opacity="0.68" fill="url(#linear-gradient-2)"/><path d="M236.24,260.46l32.6-23.17-26.39-7.8-29.37,17.65C219.4,251,230,256.45,236.24,260.46Z" opacity="0.68" fill="url(#linear-gradient-3)"/><path d="M276.44,222.77,309,199.6,266,179.83,235.12,199C241.44,202.84,270.23,218.76,276.44,222.77Z" opacity="0.68" fill="url(#linear-gradient-4)"/><path d="M138.88,224.3l100.86-70.84L72.14,149,41.29,168.17C47.61,172,132.67,220.29,138.88,224.3Z" opacity="0.68" fill="url(#linear-gradient-5)"/><polyline points="61.1 153.46 68.28 141.01 74.19 155.99" fill="#000c55"/><polyline points="61.1 153.46 151.95 201.15 239.74 153.46 223.69 147.24" fill="#000c55"/><path d="M153.39,198.34c8.24-13.13,22-22,35.66-28.71a221.27,221.27,0,0,1,26.12-10.91A142.69,142.69,0,0,1,234.52,154l2.5-1.36c-30.72-45.52-47.88-71.77-95.64-73.35-50.77-1.68-78.64,72-78.64,72,54.4,14.8,90.27,47.28,90.27,47.28Z" fill="#b6cc99"/><path d="M113.1,109.93a19.79,19.79,0,0,0-6.85,6.19c-3.13,4.65-17,23.73-10.39,29,6.82,5.42,15.36,9.3,23.62,11.9,16.11,5.07,16-27.5,15.74-36.72C134.9,108.43,122.53,104.73,113.1,109.93Z" fill="#f8e4e3"/><path d="M58.73,158.58c-.28-1.14,1.89-4.18,2.36-5.12,2.09-4.14,4.32-8.22,6.61-12.26a268.23,268.23,0,0,1,21.63-33c8.72-11.16,22.82-23.17,36.85-27.1a67.48,67.48,0,0,1,48,4.6,142.39,142.39,0,0,1,15,8.38c23,15.42,53.95,64.45,53.95,64.45" fill="none" stroke="#42210b" stroke-miterlimit="10"/><path d="M151.81,204.47c1.34-1.13-7.11-99,15.22-121.73" fill="none" stroke="#42210b" stroke-miterlimit="10"/><path d="M153.39,198.34c8.24-13.13,22-22,35.66-28.71a221.27,221.27,0,0,1,26.12-10.91A142.69,142.69,0,0,1,234.52,154l2.5-1.36c-30.72-45.52-47.88-71.77-95.64-73.35-50.77-1.68-78.64,72-78.64,72,54.4,14.8,90.27,47.28,90.27,47.28Z" opacity="0.4"/><path d="M153.26,198.55c-.86.71-6-99.16,10.36-105.47,30.93-11.89,73.65,59.58,73.65,59.58S181.64,175.19,153.26,198.55Z" fill="#b6cc99"/><path d="M169.77,186.76s-10-51,8-55.69c24.12-6.21,35.26,32.32,35.26,32.32Z" fill="#000c55"/><path d="M74.8,126.32l-3.15,6.29s24.12-15.75,31-14,22.78,19.71,31.33,31.43,18.26,31,18.26,31,18.43-29.84,40-37.45,36.31-6.21,36.31-6.21l-8.67-11.46s-30.49-24.09-62.45-31.67S84.45,111.49,74.8,126.32Z" fill="#000c55" opacity="0.13"/><path d="M74.8,126.32s4.77-11.09,29.65-13c0,0,26.31,12.32,48.86,60.47,0,0,29.28-46.47,72.08-42.75,0,0-34.19-52.6-74.19-57.25S74.8,126.32,74.8,126.32Z" fill="#b6cc99"/><path d="M74.8,126.32s4.77-11.09,29.65-13c0,0,26.31,12.32,48.86,60.47,0,0,29.28-46.47,72.08-42.75,0,0-34.05-54-74.19-57.25C108.23,70.38,74.8,126.32,74.8,126.32Z" fill="#fff" opacity="0.8"/><path d="M153.32,173.83c.33.84-.62-67.9-19.69-93.52,0,0-13.44-1-29.27,11.36C85.89,106.15,74.8,126.32,74.8,126.32S95,111.37,106,114.51C112,116.23,142.76,147.24,153.32,173.83Z" opacity="0.13"/><path d="M242.83,152.92a37,37,0,0,1-.73,6.42c-.4,2,2.59,2.78,3,.83a41.94,41.94,0,0,0,.84-7.25C246,150.92,242.88,150.92,242.83,152.92Z" fill="#000c55"/><path d="M60.13,159.56l-1-6.2c-.32-2-3.31-1.13-3,.83l1,6.2C57.46,162.35,60.46,161.51,60.13,159.56Z" fill="#000c55"/><path d="M153.46,203.77a9.87,9.87,0,0,1-3-1.17,1.55,1.55,0,0,0-1.57,2.68,12.59,12.59,0,0,0,3.77,1.49,1.59,1.59,0,0,0,1.91-1.08A1.57,1.57,0,0,0,153.46,203.77Z" fill="#000c55"/><path d="M306.62,57.43a22.85,22.85,0,0,0-6.92-6,14.32,14.32,0,0,0-3.25-17.3c-3.84-3.51-9.1-6.17-14.42-5.11a12.65,12.65,0,0,0-4.85,2.08,20.8,20.8,0,0,0-9-1.1c-5.18.63-8.61,5.65-10.58,10.13a14.33,14.33,0,0,0-1.24,6.33c-7.47.79-14.6,5.24-14.87,13.29a14.83,14.83,0,0,0,5.4,11.82c-6.28,4.13-10.25,11.51-5.21,18.7,6.84,9.75,19.87,15.22,31.08,10.9,7.31,7.33,21.37,5.26,27.88-2.67,5-6.06,6.06-14.89,2.84-21.47C309.06,71.87,311.94,64.46,306.62,57.43Z" fill="#26721e"/><path d="M306.07,57.43a22.85,22.85,0,0,0-6.92-6,14.32,14.32,0,0,0-3.25-17.3c-3.84-3.51-9.1-6.17-14.42-5.11a12.56,12.56,0,0,0-2.18.66c3.48,2.41,6.58,5.39,8.23,9.27,2.35,5.53.23,10.79-3.21,15.22,5.1,2.25,11.59,3.95,12.78,10.18s-4.11,9.53-9.31,10.94c3.24,2.25,5.74,5.32,5.74,9.55,0,4.76-2.91,9.87-6.37,13-3.62,3.27-8.13,4.63-12.86,5,7.65,5.22,19.87,2.89,25.8-4.35,5-6.06,6.06-14.89,2.84-21.47C308.5,71.88,311.38,64.47,306.07,57.43Z" fill="#106004"/><path d="M287.4,71.32c-4.4.8-13.43,15-13.43,15l0-21.86a16,16,0,0,0-3.3.84c-.57.39-5.05,75.27-5.05,75.27l.11,1.15a11.22,11.22,0,0,0,7.5,3.42c2.34.17,3.94-.93,5.6-2.19-.87-6.42-5.27-40-2.65-49.09,2.9-10,13.64-19.41,13.64-19.41S291.8,70.53,287.4,71.32Z" fill="#ce640d"/><path d="M273.24,145.13c2.34.17,3.95-.94,5.61-2.19-.87-6.36-5.28-40.06-2.65-49.12a36.77,36.77,0,0,1,6.63-11.89c-1.61,2-3.6,3.76-5.19,5.84a42,42,0,0,0-2.88,4.32c-1.72,9.33-3.24,18.71-3.39,28.21-.13,8.26.52,16.5,1.13,24.74C272.75,145.07,273,145.11,273.24,145.13Z" fill="#9b4607"/><path d="M265.63,139.4s2.26-22.3-1.84-27.13a128.93,128.93,0,0,0-4.28,20.33h0s-5.52-23.87-11.74-26.91c0,0,.27,19.17,3.15,30.12,0,0-5.3-7.64-11.5-9.33,0,0,5.37,12,12.2,16.36C251.62,142.83,262.3,145.25,265.63,139.4Z" fill="#26721e"/><polygon points="220.76 204.76 235.87 191.8 239.28 194.25 224.04 207.29 220.76 204.76" fill="#ce640d"/><path d="M220.76,204.76a2.24,2.24,0,0,1,2.86,0c1.18,1.06,1,2.93-.25,2.9S220.26,206.77,220.76,204.76Z" fill="#9b4607"/><path d="M235.8,191.85a2.24,2.24,0,0,1,2.86,0c1.18,1.06,1,2.93-.25,2.9S235.3,193.86,235.8,191.85Z" fill="#ce640d"/><polygon points="243.31 204.39 228.2 191.44 224.79 193.88 240.03 206.93 243.31 204.39" fill="#ce640d"/><path d="M243.3,204.39a2.24,2.24,0,0,0-2.86,0c-1.18,1.06-1,2.93.25,2.9S243.81,206.4,243.3,204.39Z" fill="#9b4607"/><path d="M228.27,191.49a2.24,2.24,0,0,0-2.86,0c-1.18,1.06-1,2.93.25,2.9S228.77,193.5,228.27,191.49Z" fill="#ce640d"/><polygon points="230.35 208.91 230.39 189.02 234.47 188.03 234.41 208.09 230.35 208.91" fill="#ce640d"/><path d="M230.35,208.91a2.24,2.24,0,0,1,1.87-2.17c1.57-.2,2.86,1.18,2,2.09S231.54,210.6,230.35,208.91Z" fill="#9b4607"/><path d="M230.38,189.1a2.24,2.24,0,0,1,1.87-2.17c1.57-.2,2.86,1.18,2,2.09S231.58,190.79,230.38,189.1Z" fill="#ce640d"/><path d="M230.09,201.93c-.63-.06-9.35.95-11-4.06s1.85-6.45.82-10.77l4.22,1a8.28,8.28,0,0,1-.69-5.65l4.79,1.75a12.85,12.85,0,0,1,.77-7.82,13.27,13.27,0,0,0,1.08-7.48s5,4.28,5.34,7.48a48.45,48.45,0,0,1,0,7l4.09-3s.72,4.11,0,5.44l2.52-2.39s4.06,4.13,2.83,9.68C244.88,193.16,243.13,203.2,230.09,201.93Z" fill="#ffac27"/><path d="M224.41,200.28s-3.63-.65-3.65-4.17,1.69-5.38.42-7.2c0,0,1.92,3.49,2,4.69a5.24,5.24,0,0,0,2.5,4.73,26.75,26.75,0,0,0,4.7,1.94S225.76,201.29,224.41,200.28Z" fill="#fff173"/><path d="M230.66,198.31s-3.65-2.31-4.17-6a51,51,0,0,0-1.7-7.3,53.18,53.18,0,0,0,3.56,4.7C229.41,190.8,230.66,198.31,230.66,198.31Z" fill="#fff173"/><path d="M242,183.49l-2.52,2.39c.72-1.34,0-5.44,0-5.44l-4.09,3a48.45,48.45,0,0,0,0-7c-.26-2.67-3.8-6.09-5-7.15,2.79,5.74,2.29,13.07,1.89,19.44.72-1.05,1.38-2.14,2.11-3.19A.88.88,0,0,1,236,186a29.53,29.53,0,0,1-.76,5.64,51.86,51.86,0,0,0,5.18-4.91.88.88,0,0,1,1.49.62c.81,8.16-4.26,12.73-10.84,14.72,12.06.63,13.71-8.85,13.71-8.85C246,187.62,242,183.49,242,183.49Z" fill="#ff8f29"/><ellipse cx="270.69" cy="171.69" rx="9.89" ry="8.13" transform="translate(10.7 359.19) rotate(-68.18)" fill="#ce640d"/><path d="M274.37,162.51l36,18.73L303,199.61l-36-18.73S265.21,171.18,274.37,162.51Z" fill="#ce640d"/><ellipse cx="306.67" cy="190.43" rx="9.89" ry="8.13" transform="translate(15.91 404.37) rotate(-68.18)" fill="#9b4607"/><path d="M270,196.13s-6.22,5.44-4.85,6.76,11.3-4.5,11.3-4.5" fill="#ff666d"/><path d="M263.28,147.12s-4.33-5.5-5.38-5.46-.66,1.09-.66,1.09-2.77-2.13-4.33-.65c0,0-1.43-.69-1.76,0a1.22,1.22,0,0,0,.25,1.3s-.84.67-.55,1.14a.9.9,0,0,0,.76.45s-.5.27-.38.69,4.91,4.2,11.67,4.36" fill="#f7931e"/><path d="M258.81,147.93h-.08a2.61,2.61,0,0,1-.34-.75,3.44,3.44,0,0,1-.18-.87,3.58,3.58,0,0,1,.31-1.74.12.12,0,0,0,0-.13,10,10,0,0,1-1.35-2c-.06-.13-.25,0-.19.11a9.91,9.91,0,0,0,1,1.65c.24.31.3.37.18.73a3.62,3.62,0,0,0-.16.77,3.77,3.77,0,0,0,.21,1.68c.09.24.25.81.53.87a.11.11,0,0,0,.14-.08v0A.11.11,0,0,0,258.81,147.93Z" fill="#42210b"/><path d="M257.07,143.75,253,142c-.13-.06-.24.13-.11.19l4.06,1.79C257.09,144,257.2,143.81,257.07,143.75Z" fill="#42210b"/><path d="M256.24,144.76a13.59,13.59,0,0,1-4.74-1.49c-.13-.07-.24.12-.11.19a13.89,13.89,0,0,0,4.85,1.52C256.38,145,256.38,144.78,256.24,144.76Z" fill="#42210b"/><path d="M255.88,146a19.41,19.41,0,0,1-4.47-1.16c-.13-.05-.19.16-.06.21a19.41,19.41,0,0,0,4.47,1.16C256,146.24,256,146,255.88,146Z" fill="#42210b"/><path d="M286.06,170.9c3,.75,6.31,1.37,9.1-.25,4.6-19.4,1.23-25.42-6.72-27.72a7.2,7.2,0,0,0-8,3.34,193,193,0,0,0-1.66,21.9c0,.38,2.65,1.32,3,1.46a29.42,29.42,0,0,0,3.29,1Z" fill="#ffa197"/><path d="M281.41,145s-5.91,8.39-18,.15c0,0-4.15,5-3.47,5.8s13.62,10.68,19.77,5.31" fill="#ffa197"/><path d="M284.92,143.35h0s-.46,4.15,2.71,2.92a26.42,26.42,0,0,0,3.86-1.87v-2.5" fill="#cc6c62"/><path d="M282.92,134.57s-1.53,8.29,1.95,9.63,6.68-4.93,6.68-6.86C291.55,133.34,287.57,133.69,282.92,134.57Z" fill="#f7931e"/><path d="M302.8,155.73a2.65,2.65,0,0,0-.63-1.42c-.72-.82-1.86-1.18-2.48-2.1-1-1.5.62-2.82.74-4.3.23-2.73-3.3-3.05-4.84-4.41a5.26,5.26,0,0,1-1.42-2.73c-.88-3.16-1.06-7-4.14-9a6.65,6.65,0,0,0-3.19-.85,6.1,6.1,0,0,0-3.84.82,4.06,4.06,0,0,0-1.73,3c-.05.86.21,2.23,1.26,2.35.69.08,1-.45,1.47-.87s.78-1.09,1.27-1.55a2.25,2.25,0,0,1,1.16-.61c1.75-.27.17,2.87.14,3.54a1.51,1.51,0,0,0,.3,1,2,2,0,0,0,1.06.59c.84.23,2.3.66,1.78,1.86a21.75,21.75,0,0,1-1.3,1.82,3.63,3.63,0,0,0,.14,4.18,8.86,8.86,0,0,0,1.66,1.51,2.92,2.92,0,0,1,1.25,2s0,.1,0,.14a27.24,27.24,0,0,0-.65,4.33,2.55,2.55,0,0,0,.37,1.47,4.51,4.51,0,0,0,1.06,1.35,7.11,7.11,0,0,0,6.77,1.38,6.44,6.44,0,0,0,3.27-1.75A2.35,2.35,0,0,0,302.8,155.73ZM300,148a2.88,2.88,0,0,0,0-.54,2.55,2.55,0,0,0-.09-.4A2,2,0,0,1,300,148Z" fill="#5e331f"/><ellipse cx="282.86" cy="139.19" rx="1.18" ry="1.36" fill="none" stroke="#42210b" stroke-miterlimit="10" stroke-width="0.25"/><ellipse cx="286.28" cy="139.46" rx="1.18" ry="1.36" fill="none" stroke="#42210b" stroke-miterlimit="10" stroke-width="0.25"/><path d="M285.18,139.11c0-.13-.19-.17-.29-.2a1,1,0,0,0-.26,0l.07-.33c0-.13-.18-.19-.2-.06s-.06.28-.09.41h0c-.14,0-.58.29-.39.48a.11.11,0,0,0,.17-.1.37.37,0,0,1,.19-.15c0,.16-.08.32-.13.48-.13.41-.39.83-.48,1.24s.15.42.45.49a.1.1,0,0,0,.06-.2c-.36-.09-.27-.29-.16-.56s.17-.42.24-.63.18-.57.25-.86l.19,0a.85.85,0,0,1,.2.06.09.09,0,0,0,.13.09h0A.11.11,0,0,0,285.18,139.11Z" fill="#42210b"/><path d="M286.43,141.52a1.67,1.67,0,0,1-1.3.54.1.1,0,0,0,0,.21,1.88,1.88,0,0,0,1.44-.6C286.67,141.57,286.53,141.42,286.43,141.52Z" fill="#42210b"/><path d="M278.82,168.17s-16.79.13-18.11,8.56,7.09,20.79,7.09,20.79,4.08,2.42,7,1.67c0,0,3.42,2.37,6.45,2.25s-.8-18-.8-18,17.56,0,14.68-12.81" fill="#5e331f"/><path d="M282.81,169.57a8.48,8.48,0,0,0-.91.57l.28-.29c.52-.57-.33-1.43-.85-.85-.2.22-.41.43-.62.63a.69.69,0,0,0-.61-.39c.33-.49-.42-1.16-1-.72-.76.61-1.54,1.19-2.32,1.76-1.19.5-2.38,1-3.59,1.43a12.61,12.61,0,0,0-3.38,1.3.61.61,0,0,0-.16.59l0,.12a.46.46,0,0,0,.39.42.6.6,0,0,0,.52.15l.43-.1a4.5,4.5,0,0,0-1.52,2.39.63.63,0,0,0,.55.74.58.58,0,0,0,.8,0c.29-.29.6-.56.91-.83a12.38,12.38,0,0,0-1.14,1.86.6.6,0,0,0-.06.32c-.39.57.4,1.34.9.78l.79-.87a.64.64,0,0,0,1.14.29l1.54-2.09c-.13.38-.25.76-.35,1.15a.61.61,0,0,0,1.1.46c1.05-1.38,2.72-2.32,4-3.46a34,34,0,0,0,3.63-3.71.6.6,0,0,0,.09-.64C284.06,170.19,283.48,169.22,282.81,169.57Z" fill="#f7931e"/><path d="M288.61,156.35s-1.38,7.86-4.87,10a66.41,66.41,0,0,1-6.93,3.74,3.62,3.62,0,0,1,3.61,3.67s11.68-2.15,14.48-5.64S288.61,156.35,288.61,156.35Z" fill="#ffa197"/><path d="M274.82,199.18s-6.22,5.44-4.85,6.76,11.3-4.5,11.3-4.5" fill="#ff666d"/><path d="M252.71,229.5l.93,4.31a20.12,20.12,0,0,0-3.77-.39c-1,.13-2.2,1.85-1,3s3.27,1.06,5.33,1.53,2.38.58,3.7.21,1.52-2.16,1.52-2.16l-1-7.52" fill="#ff666d"/><path d="M260.55,220.55l.16,11.2s-1.85,1.91-8.1,1.68,0-11.41,0-11.41" fill="#edbab9"/><path d="M242.45,229.48l-1.6,4.33a20.12,20.12,0,0,0-3.77-.39c-1,.13-2.2,1.85-1,3s3.27,1.06,5.33,1.53,2.38.58,3.7.21,1.52-2.16,1.52-2.16l2.81-5.76" fill="#ff666d"/><path d="M250.53,206.36q4,.87,8.06,1.35a.45.45,0,0,1,.31.17q.47-1.41.8-2.86c.12-.55,1-.32.84.23a30.5,30.5,0,0,1-2.21,6.37c-.24.51-1,.07-.76-.44.4-.85.76-1.71,1.08-2.59h-.06q-4.18-.49-8.29-1.38C249.75,207.08,250,206.24,250.53,206.36Z" fill="#008074"/><path d="M257.73,212.53a11.76,11.76,0,0,0,2.7,3.1c.44.35-.19,1-.62.62A12.44,12.44,0,0,1,257,213,.44.44,0,0,1,257.73,212.53Z" fill="#008074"/><path d="M263.18,209.68s-7-5.6-11.6-6.25-7,4.36-6.72,7.72,11.41,5.2,11.41,5.2" fill="#edbab9"/><path d="M259.46,211.54c-.9-.84-12.74-6.36-16.91-3.84s-3.91,4.39-3.38,7.46,2.51,16.38,2.51,16.38,6,5.11,11.51,3.7L252,222.94l15.77-8.61" fill="#ffe0de"/><path d="M243.73,182.36a3.19,3.19,0,0,1,.79-2.08.53.53,0,0,1,.18-.13c.06-.72.26-1.43.82-1.68a.55.55,0,0,1,.31,0,.48.48,0,0,1,.57.5l0,.77a.81.81,0,0,1,.36-.41.67.67,0,0,1,.66,0,.46.46,0,0,1,.39.49l-.13,3.28c.16-.61.52-1.81,1.4-1.18.69.49.19,1.84.08,2.48a25.28,25.28,0,0,1-.92,3.83.52.52,0,0,1-.18.25q0,.2.1.4a5.41,5.41,0,0,0,1.12,2.59c.51.44-.23,1.18-.74.74l-.07-.07v0c.17.56-.7.95-1,.4l-.1-.2a.63.63,0,0,1-.16.12c0,.11.08.22.12.33.21.65-.81.92-1,.28v0a.49.49,0,0,1-.88,0c-.12-.26-.09.61-.19.35-.27.11.29-.84.12-1.17-.65-1.24-2.29-2.48-2.24-6.51C243.16,184.76,242.39,182.8,243.73,182.36Z" fill="#ff666d"/><path d="M247.5,180c0-.22.36-.23.35,0q-.1,2.1-.28,4.18c0,.22-.37.22-.35,0Q247.4,182.06,247.5,180Z" fill="#c1444d"/><path d="M246.13,178.92a.18.18,0,0,1,.35,0l-.14,5.63a.18.18,0,0,1-.35,0Z" fill="#c1444d"/><path d="M244.93,180.44l.1,4.3a.18.18,0,0,1-.35,0l-.1-4.3A.18.18,0,0,1,244.93,180.44Z" fill="#c1444d"/><path d="M243.84,182.48q.08,1.59.28,3.17c0,.22-.32.22-.35,0q-.2-1.58-.28-3.17C243.48,182.25,243.83,182.25,243.84,182.48Z" fill="#c1444d"/><path d="M263.09,193.47s-5.32,1.94-6.71,1.82-7.2-7.53-7.2-7.53-4,1.11-5.34,4.7c0,0,7.51,10.75,10.79,11.39s7.29-1,7.29-1" fill="#b6cc99"/><path d="M264.87,212.32l6.85,1.27s.27,7.12-3.12,9.72-16.56-.36-16.56-.36" fill="#ffe0de"/><path d="M268.09,191.77c-.63.46-6,1.11-7.16,3.6s-2.85,15.33-2.85,15.33,6.48,7.09,12.1,5.37c1.67-.51,7.07-18.56,7.3-20.2C278.09,191.61,268.09,191.77,268.09,191.77Z" fill="#b6cc99"/><path d="M266,183.46c-.07.46-.89,7,1.05,8.5s6.3-2,6.41-3.75,1.58-5.34-.27-6.25S266.55,180.22,266,183.46Z" fill="#ff666d"/><path d="M266,183.46a6.13,6.13,0,0,1-1.92-2.4c-.29-1.14,1.12-2,2.49-2s2.54.35,3.72-.35a4.21,4.21,0,0,1,4.16,0c1.11.76,1.3,2.59,2,3.53s2.18,1,2.15,2.8-2.61,1.93-2.79,3.1-.81,2.89-2.39,3.18-3.75.33-3.93.1,1-4.16-.09-4.42S266,186.24,266,183.46Z" fill="#008074"/><ellipse cx="287.75" cy="216.12" rx="8.13" ry="9.89" transform="translate(-62.53 133.58) rotate(-23.65)" fill="#ce640d"/><path d="M283.78,207.06l-35.36,19.88,7.93,18.12,35.36-19.88S293.2,215.44,283.78,207.06Z" fill="#ce640d"/><ellipse cx="252.39" cy="236" rx="8.13" ry="9.89" transform="translate(-73.47 121.07) rotate(-23.65)" fill="#9b4607"/><path d="M252,222.16s8.79,3.63,14.47,1.42,5.21-10,5.21-10a8.55,8.55,0,0,1-6.23,2.23" fill="#ffe0de"/><path d="M288.59,151.78a.5.5,0,0,0-1,0c.07,3.39.45,8-1.4,11s-5.39,5-8.45,6.39c-.58.27-.08,1.13.5.86,3.17-1.46,6.92-3.66,8.81-6.75S288.66,155.35,288.59,151.78Z" fill="#cc6c62"/><path d="M295.33,162.25a12.74,12.74,0,0,1-2.78,7.53c-.4.5.31,1.21.71.71a13.9,13.9,0,0,0,3.08-8.24C296.36,161.61,295.36,161.61,295.33,162.25Z" fill="#cc6c62"/></svg>